<?xml version="1.0" encoding="UTF-8"?>
<!DOCTYPE svg PUBLIC "-//W3C//DTD SVG 1.1//EN" "http://www.w3.org/Graphics/SVG/1.1/DTD/svg11.dtd">
<!-- Creator: CorelDRAW 2021 (64-Bit) -->
<svg xmlns="http://www.w3.org/2000/svg" xml:space="preserve" width="63.4997mm" height="33.157mm" version="1.1" style="shape-rendering:geometricPrecision; text-rendering:geometricPrecision; image-rendering:optimizeQuality; fill-rule:evenodd; clip-rule:evenodd"
viewBox="0 0 6629.55 3461.69"
 xmlns:xlink="http://www.w3.org/1999/xlink"
 xmlns:xodm="http://www.corel.com/coreldraw/odm/2003">
 <defs>
  <style type="text/css">
   <![CDATA[
    .fil0 {fill:#000066;fill-rule:nonzero}
   ]]>
  </style>
 </defs>
 <g id="Layer_x0020_1">
  <metadata id="CorelCorpID_0Corel-Layer"/>
  <path class="fil0" d="M549.58 259.72c0,80.45 -26.74,142.09 -80.22,184.93 -53.49,42.61 -129.64,64.13 -228.44,64.13l-162.04 0 0 430.83 -70.25 0 0 -927.6 245.66 0c92.47,0 164.77,21.53 217.12,64.81 52.13,43.07 78.19,104.03 78.19,182.89zm-73.66 -1.36c0,-121.25 -77.73,-181.98 -233.65,-181.98l-163.4 0 0 368.5 163.4 0c155.93,0 233.65,-62.1 233.65,-186.52z"/>
  <path id="_1" class="fil0" d="M1325.8 939.62l-136.2 -307.31 -450.1 0 -131.44 307.31 -75.01 0 404.99 -934.18 50.31 0 412.47 934.18 -75.01 0zm-363.3 -824.03l-194.45 452.81 392.98 0 -198.53 -452.81z"/>
  <path id="_2" class="fil0" d="M1926.38 54.62l0 80.22c-65.04,-47.37 -131.67,-70.93 -199.66,-70.93 -56.21,0 -101.53,14.96 -135.98,44.64 -34.22,29.92 -51.44,69.13 -51.44,117.4 0,27.88 4.3,52.58 12.68,73.88 8.38,21.53 26.07,43.29 52.81,65.5 26.75,21.98 66.86,44.87 120.56,68.44 62.33,28.33 110.6,55.53 144.6,81.59 34.21,26.06 58.02,54.61 71.38,85.66 13.6,31.05 20.4,68.22 20.4,111.5 0,46.01 -10.88,87.26 -32.64,123.52 -21.76,36.26 -52.12,64.58 -91.56,84.98 -39.43,20.4 -84.98,30.59 -136.88,30.59 -84.98,0 -161.81,-25.38 -230.94,-75.69l0 -88.39c74.33,66.86 151.84,100.17 232.31,100.17 55.29,0 100.39,-15.64 134.84,-47.37 34.45,-31.73 51.68,-74.33 51.68,-127.82 0,-32.86 -5.22,-60.51 -16.1,-82.95 -10.88,-22.66 -31.04,-44.87 -60.5,-67.08 -29.46,-22.21 -73.21,-46.91 -130.99,-74.33 -78.42,-35.35 -133.72,-72.75 -165.9,-111.5 -31.96,-38.98 -48.05,-88.39 -48.05,-148.22 0,-43.29 11.11,-82.49 33.31,-117.39 21.99,-35.13 53.03,-62.33 93.15,-81.81 40.11,-19.49 84.98,-29.24 134.39,-29.24 71.84,0 138.02,18.36 198.53,54.62z"/>
  <polygon id="_3" class="fil0" points="2118.33,939.62 2118.33,12.02 2188.59,12.02 2188.59,939.62 "/>
  <path id="_4" class="fil0" d="M2836.07 65.27c-75.24,0 -143.46,17.46 -204.65,52.35 -60.96,34.9 -109.01,83.18 -143.91,144.82 -35.12,61.42 -52.58,129.87 -52.58,205.11 0,83.63 17,157.05 51.22,220.51 33.99,63.23 82.04,112.41 143.91,147.31 62.1,34.9 134.17,52.35 216.66,52.35 41.02,0 81.36,-4.53 120.79,-13.59 39.43,-9.07 81.59,-23.57 126.69,-43.3l0 -255.63 -199.66 0 0 -63.92 270.82 0 0 366.01c-50.08,25.16 -100.62,43.74 -151.84,55.98 -50.99,12.24 -107.2,18.35 -168.16,18.35 -100.62,0 -187.42,-21.07 -261.08,-63.23 -73.43,-41.93 -129.18,-99.04 -167.25,-171.11 -38.08,-72.3 -57.11,-152.07 -57.11,-239.77 0,-89.07 20.4,-169.75 60.74,-242.27 40.56,-72.75 97.22,-130.09 169.97,-172.01 72.98,-42.16 155.93,-63.24 249.29,-63.24 52.81,0 103.57,5.9 152.52,17.69 48.72,11.78 100.4,29.68 155.02,54.16l0 77.73c-97.91,-56.2 -201.71,-84.31 -311.39,-84.31z"/>
  <path id="_5" class="fil0" d="M4236.2 246.35c0,52.36 -14.28,96.77 -42.84,133.49 -28.55,36.71 -68.9,62.55 -121.24,77.05 75.24,7.93 134.39,33.31 177.45,76.15 42.83,42.61 64.35,97 64.35,162.95 0,76.14 -28.55,135.74 -85.66,178.81 -57.11,43.29 -130.99,64.81 -221.87,64.81l-268.79 0 0 -927.6 211.67 0c83.63,0 152.52,19.94 206.24,59.83 53.72,39.88 80.68,98.13 80.68,174.5zm-74.33 8.16c0,-60.74 -19.26,-105.61 -57.8,-134.62 -38.52,-29.01 -96.31,-43.52 -173.37,-43.52l-122.83 0 0 359.89 111.73 0c79.54,0 139.83,-15.87 180.85,-47.37 41.02,-31.73 61.42,-76.6 61.42,-134.39zm79.1 436.04c0,-62.33 -22.67,-109.7 -67.54,-142.1 -44.87,-32.18 -112.18,-48.5 -202.16,-48.5l-163.4 0 0 375.98 186.75 0c75.24,0 135.07,-15.18 179.49,-45.55 44.42,-30.37 66.86,-76.83 66.86,-139.83z"/>
  <polygon id="_6" class="fil0" points="4455.35,939.62 4455.35,12.02 4525.6,12.02 4525.6,939.62 "/>
  <path id="_7" class="fil0" d="M5236.77 246.35c0,52.36 -14.28,96.77 -42.84,133.49 -28.55,36.71 -68.9,62.55 -121.24,77.05 75.24,7.93 134.39,33.31 177.45,76.15 42.83,42.61 64.35,97 64.35,162.95 0,76.14 -28.55,135.74 -85.66,178.81 -57.11,43.29 -130.99,64.81 -221.87,64.81l-268.79 0 0 -927.6 211.67 0c83.63,0 152.52,19.94 206.24,59.83 53.72,39.88 80.68,98.13 80.68,174.5zm-74.33 8.16c0,-60.74 -19.26,-105.61 -57.8,-134.62 -38.52,-29.01 -96.31,-43.52 -173.37,-43.52l-122.83 0 0 359.89 111.73 0c79.54,0 139.83,-15.87 180.85,-47.37 41.02,-31.73 61.42,-76.6 61.42,-134.39zm79.1 436.04c0,-62.33 -22.67,-109.7 -67.54,-142.1 -44.87,-32.18 -112.18,-48.5 -202.16,-48.5l-163.4 0 0 375.98 186.75 0c75.24,0 135.07,-15.18 179.49,-45.55 44.42,-30.37 66.86,-76.83 66.86,-139.83z"/>
  <polygon id="_8" class="fil0" points="5981.71,874.57 5981.71,939.62 5455.93,939.62 5455.93,12.02 5526.18,12.02 5526.18,874.57 "/>
  <polygon id="_9" class="fil0" points="6173.44,76.38 6173.44,438.98 6579.1,438.98 6579.1,504.71 6173.44,504.71 6173.44,875.93 6603.13,875.93 6603.13,939.62 6103.18,939.62 6103.18,12.02 6591.12,12.02 6591.12,76.38 "/>
  <path class="fil0" d="M749.1 1334.37c0,123.73 -63.7,211.93 -191.1,264.61 92.18,16.84 165.37,54.51 218.96,113.62 53.9,58.8 80.86,128.01 80.86,207.64 0,78.41 -21.75,143.32 -64.93,194.47 -43.49,51.45 -99.84,89.13 -169.36,112.4 -69.21,23.27 -143.64,34.91 -223.27,34.91l-400.27 0 0 -1253.51 361.68 0c123.73,0 219.29,30.02 286.66,90.35 67.38,60.02 100.76,138.43 100.76,235.51zm-185.59 14.4c0,-63.4 -18.07,-109.64 -53.9,-138.74 -35.83,-29.1 -94.94,-43.48 -177.63,-43.48l-154.35 0 0 382.21 127.4 0c87.89,0 153.13,-18.99 195.08,-56.96 42.27,-37.98 63.4,-85.76 63.4,-143.02zm108.71 555.24c0,-133.83 -104.12,-200.9 -312.38,-200.9l-182.21 0 0 400.9 189.26 0c104.13,0 181,-16.23 230.62,-48.7 49.61,-32.76 74.72,-82.99 74.72,-151.29z"/>
  <path id="_1_0" class="fil0" d="M1945.04 2262.02l-166.91 -369.65 -532.88 0 -157.72 369.65 -184.06 0 538.4 -1260.55 126.48 0 560.76 1260.55 -184.06 0zm-442.23 -985.23l-187.43 454.18 389.26 0 -201.82 -454.18z"/>
  <path id="_2_1" class="fil0" d="M3056.75 1363.77c0,119.75 -37.97,208.87 -113.92,267.05 -75.95,58.19 -183.45,87.59 -322.79,87.59l-173.34 0 0 543.6 -179.47 0 0 -1253.51 382.21 0c127.4,0 227.24,31.55 299.21,94.64 72.28,63.08 108.11,150.06 108.11,260.62zm-185.59 -4.29c0,-62.17 -19.29,-109.95 -57.88,-143.32 -38.6,-33.07 -105.35,-49.61 -200.6,-49.61l-165.99 0 0 393.84 165.99 0c97.69,0 165.07,-16.84 202.44,-50.83 37.36,-33.69 56.04,-83.92 56.04,-150.07z"/>
  <polygon id="_3_2" class="fil0" points="3750.42,1166.55 3750.42,2262.02 3570.03,2262.02 3570.03,1166.55 3140.35,1166.55 3140.35,1008.51 4187.45,1008.51 4187.45,1166.55 "/>
  <polygon id="_4_3" class="fil0" points="4356.81,2262.02 4356.81,1008.51 4536.28,1008.51 4536.28,2262.02 "/>
  <path id="_5_4" class="fil0" d="M5420.14 1080.49l0 203.66c-89.13,-86.98 -187.12,-130.16 -293.39,-130.16 -56.36,0 -101.07,13.17 -134.15,39.51 -33.38,26.34 -49.92,61.56 -49.92,105.66 0,28.18 4.28,52.98 12.86,74.73 8.87,21.43 28.18,45.94 57.88,73.5 30.02,27.56 75.03,58.19 134.75,92.49 88.51,51.45 155.58,96.78 201.52,136.59 45.63,39.82 77.17,80.85 94.63,122.51 17.15,41.96 26.03,92.79 26.03,152.51 0,61.25 -15.62,116.38 -46.24,165.99 -30.93,49.61 -73.8,88.82 -128.94,117.61 -54.81,28.78 -117.9,43.18 -189.26,43.18 -120.67,0 -233.37,-38.59 -338.11,-115.77l0 -227.85c44.1,59.1 95.55,104.43 153.74,136.28 58.49,31.55 119.74,47.47 184.37,47.47 52.67,0 96.47,-15.62 131.38,-46.55 35.23,-31.24 52.68,-70.74 52.68,-118.52 0,-31.54 -5.83,-59.72 -17.46,-84.22 -11.64,-24.49 -37.06,-52.98 -76.27,-84.83 -39.19,-32.16 -98.61,-71.36 -178.24,-117.91 -93.41,-53.9 -159.26,-108.41 -197.84,-163.54 -38.59,-54.82 -57.88,-120.97 -57.88,-198.16 0,-58.49 15.92,-111.78 48.08,-159.56 31.85,-48.08 75.65,-85.44 131.39,-112.39 55.74,-26.96 119.13,-40.42 190.18,-40.42 102.91,0 199.06,29.4 288.19,88.2z"/>
  <polygon id="_6_5" class="fil0" points="6192.52,1166.55 6192.52,2262.02 6012.12,2262.02 6012.12,1166.55 5582.44,1166.55 5582.44,1008.51 6629.55,1008.51 6629.55,1166.55 "/>
  <path class="fil0" d="M1556.82 2461.46l0 91.33c-111.14,-64.06 -227.42,-95.96 -349.1,-95.96 -89.26,0 -169.02,20.84 -239.25,61.99 -69.97,41.17 -123.99,97.5 -162.06,169.02 -37.83,71.78 -56.86,150.25 -56.86,235.65 0,87.47 19.29,165.94 58.14,235.91 38.59,69.72 92.62,125.02 162.08,165.68 69.2,40.91 148.69,61.22 237.96,61.22 125.81,0 243.62,-33.44 353.48,-100.33l0 92.62c-108.82,55.31 -226.65,83.09 -353.48,83.09 -109.84,0 -206.06,-24.44 -288.64,-73.06 -82.32,-48.88 -145.35,-114.23 -189.08,-196.03 -43.73,-82.07 -65.6,-170.05 -65.6,-264.72 0,-103.93 23.41,-197.31 70.49,-280.15 47.08,-83.09 111.65,-148.18 193.71,-195.25 82.06,-47.34 175.71,-71 280.67,-71 116.53,0 232.57,26.76 347.56,80z"/>
  <polygon id="_1_6" class="fil0" points="2507.91,2878.23 2507.91,2395.1 2587.92,2395.1 2587.92,3448.05 2507.91,3448.05 2507.91,2954.37 1820.51,2954.37 1820.51,3448.05 1740.77,3448.05 1740.77,2395.1 1820.51,2395.1 1820.51,2878.23 "/>
  <path id="_2_7" class="fil0" d="M3245.73 3389.14c113.97,0 201.17,-34.99 261.37,-105.47 60.45,-70.23 90.55,-164.65 90.55,-283.24l0 -605.33 80.01 0 0 605.33c0,89.26 -16.21,168.76 -48.62,238.48 -32.42,69.46 -80.53,124 -144.33,163.62 -63.8,39.36 -141.49,59.17 -233.08,59.17 -142,0 -250.31,-41.42 -324.4,-124 -74.08,-82.83 -111.13,-195.52 -111.13,-338.81l0 -603.78 80.52 0 0 605.33c0,118.59 29.84,213.01 89.53,283.24 59.43,70.48 145.86,105.47 259.58,105.47z"/>
  <path id="_3_8" class="fil0" d="M4490.85 2668.82c0,68.69 -19.29,125.28 -58.14,169.53 -38.59,44.25 -92.87,73.58 -162.59,88.24 36.02,14.92 65.61,33.96 87.98,56.86 22.64,22.9 51.71,60.97 86.7,114.22l224.07 350.39 -98.01 0 -202.2 -322.6c-42.96,-67.91 -82.84,-113.71 -119.37,-137.88 -36.53,-24.18 -82.06,-36.27 -136.86,-36.27l-128.11 0 0 496.76 -79.74 0 0 -1052.96 265.23 0c102.91,0 182.14,24.44 237.7,73.57 55.57,48.88 83.36,115.77 83.36,200.15zm-83.61 0c0,-73.32 -22.38,-125.28 -67.15,-155.38 -44.76,-30.1 -108.3,-45.28 -190.62,-45.28l-165.17 0 0 408.53 122.2 0c98.01,0 172.62,-15.18 223.81,-45.54 51.2,-30.35 76.92,-84.64 76.92,-162.33z"/>
  <path id="_4_9" class="fil0" d="M5597.31 2461.46l0 91.33c-111.14,-64.06 -227.42,-95.96 -349.1,-95.96 -89.26,0 -169.02,20.84 -239.25,61.99 -69.97,41.17 -123.99,97.5 -162.06,169.02 -37.83,71.78 -56.86,150.25 -56.86,235.65 0,87.47 19.29,165.94 58.14,235.91 38.59,69.72 92.62,125.02 162.08,165.68 69.2,40.91 148.69,61.22 237.96,61.22 125.81,0 243.62,-33.44 353.48,-100.33l0 92.62c-108.82,55.31 -226.65,83.09 -353.48,83.09 -109.84,0 -206.06,-24.44 -288.64,-73.06 -82.32,-48.88 -145.35,-114.23 -189.08,-196.03 -43.73,-82.07 -65.6,-170.05 -65.6,-264.72 0,-103.93 23.41,-197.31 70.49,-280.15 47.08,-83.09 111.65,-148.18 193.71,-195.25 82.06,-47.34 175.71,-71 280.67,-71 116.53,0 232.57,26.76 347.56,80z"/>
  <polygon id="_5_10" class="fil0" points="6548.41,2878.23 6548.41,2395.1 6628.41,2395.1 6628.41,3448.05 6548.41,3448.05 6548.41,2954.37 5861,2954.37 5861,3448.05 5781.26,3448.05 5781.26,2395.1 5861,2395.1 5861,2878.23 "/>
 </g>
</svg>
