<?xml version="1.0" encoding="UTF-8"?>
<!DOCTYPE svg PUBLIC "-//W3C//DTD SVG 1.1//EN" "http://www.w3.org/Graphics/SVG/1.1/DTD/svg11.dtd">
<!-- Creator: CorelDRAW 2021 (64-Bit) -->
<svg xmlns="http://www.w3.org/2000/svg" xml:space="preserve" width="1.6934mm" height="1.6934mm" version="1.1" style="shape-rendering:geometricPrecision; text-rendering:geometricPrecision; image-rendering:optimizeQuality; fill-rule:evenodd; clip-rule:evenodd"
viewBox="0 0 169.34 169.34"
 xmlns:xlink="http://www.w3.org/1999/xlink"
 xmlns:xodm="http://www.corel.com/coreldraw/odm/2003">
 <defs>
  <style type="text/css">
   <![CDATA[
    .str1 {stroke:#0B6608;stroke-width:12.7;stroke-linecap:round;stroke-linejoin:round;stroke-miterlimit:22.9256}
    .str0 {stroke:black;stroke-width:7.62;stroke-linecap:round;stroke-linejoin:round;stroke-miterlimit:22.9256}
    .fil2 {fill:none}
    .fil9 {fill:black}
    .fil15 {fill:#0B6608}
    .fil0 {fill:#372B71}
    .fil5 {fill:#3FFFFF}
    .fil1 {fill:#E0FCFD}
    .fil14 {fill:#FFB347}
    .fil6 {fill:#FFFE32}
    .fil8 {fill:white}
    .fil11 {fill:#FBB135;fill-rule:nonzero}
    .fil10 {fill:#F16436;fill-rule:nonzero}
    .fil12 {fill:#282828;fill-rule:nonzero}
    .fil13 {fill:black;fill-rule:nonzero}
    .fil7 {fill:#BCC4C4;fill-rule:nonzero}
    .fil4 {fill:#E0FCFD;fill-rule:nonzero}
    .fil3 {fill:#E0FCFD;fill-rule:nonzero}
   ]]>
  </style>
 </defs>
 <g id="Layer_x0020_1">
  <metadata id="CorelCorpID_0Corel-Layer"/>
  <g id="_2181740704992">
   <path class="fil0" d="M84.67 2.83l-29.22 0c-1.59,0 -3.04,0.27 -4.35,0.81 -1.3,0.54 -2.52,1.37 -3.64,2.49l-41.33 41.33c-1.12,1.12 -1.95,2.34 -2.49,3.64 -0.54,1.31 -0.81,2.76 -0.81,4.35l-0.01 0 0 58.44 0.01 0c0,1.59 0.27,3.04 0.81,4.35 0.54,1.3 1.37,2.52 2.49,3.64l41.33 41.33c1.12,1.12 2.34,1.95 3.64,2.49 1.31,0.54 2.76,0.81 4.35,0.81l58.44 0c1.59,0 3.04,-0.27 4.35,-0.81 1.3,-0.54 2.52,-1.37 3.64,-2.49l41.33 -41.33c1.12,-1.12 1.95,-2.34 2.49,-3.64 0.54,-1.31 0.81,-2.76 0.81,-4.35l0.01 0 0 -58.44 -0.01 0c0,-1.59 -0.27,-3.04 -0.81,-4.35 -0.54,-1.3 -1.37,-2.52 -2.49,-3.64l-41.33 -41.33c-1.12,-1.12 -2.34,-1.95 -3.64,-2.49 -1.31,-0.54 -2.76,-0.81 -4.35,-0.81l-29.22 0zm-0.8 25.4l-0.22 0c-0.58,0 -1.14,0.01 -1.68,0.04 -0.55,0.02 -1.11,0.07 -1.66,0.12l-0.01 0c-6.82,0.52 -13.29,2.26 -19.21,4.98 -4.04,1.86 -7.81,4.18 -11.27,6.9 -0.35,0.27 -0.7,0.56 -1.05,0.84l-0.01 0.01c-0.69,0.57 -1.37,1.16 -2.03,1.76l-0.03 0.02c-0.32,0.3 -0.64,0.6 -0.96,0.9l-0.03 0.03c-0.32,0.3 -0.64,0.61 -0.95,0.93 -0.32,0.31 -0.63,0.63 -0.94,0.96l-0.01 0.01c-0.31,0.33 -0.61,0.65 -0.91,0.98l-0.02 0.02c-0.3,0.33 -0.59,0.66 -0.88,0.99l-0.01 0.02c-0.3,0.34 -0.59,0.68 -0.87,1.02l-0.01 0.01c-0.28,0.35 -0.56,0.7 -0.84,1.05l-0.01 0.01c-3.15,4.01 -5.78,8.47 -7.76,13.25 -1.88,4.53 -3.18,9.36 -3.82,14.4l0 0c-0.12,0.94 -0.22,1.88 -0.29,2.84l0 0.02c-0.04,0.47 -0.07,0.94 -0.09,1.42l0 0.01c-0.02,0.48 -0.04,0.95 -0.05,1.43l-0.01 0.02c-0.01,0.48 -0.01,0.97 -0.01,1.45l0 0 0 0c0,0.49 0,0.97 0.01,1.45l0.01 0.01c0.01,0.48 0.03,0.96 0.05,1.44l0 0.01c0.02,0.48 0.05,0.95 0.09,1.43l0 0.01c0.46,6.07 1.88,11.86 4.11,17.24 2.33,5.63 5.55,10.8 9.49,15.35l0 0c0.3,0.34 0.6,0.68 0.9,1.01l0 0c0.61,0.67 1.23,1.32 1.87,1.96 0.32,0.32 0.64,0.63 0.96,0.94l0.01 0.01c0.33,0.31 0.65,0.62 0.99,0.92l0 0c4.25,3.86 9.09,7.09 14.37,9.52 5.92,2.72 12.39,4.46 19.21,4.98l0.01 0c0.55,0.05 1.11,0.1 1.67,0.12 0.53,0.03 1.09,0.04 1.67,0.04l0.22 0c0.17,0 0.34,0 0.52,0l0.28 0c7.65,0 14.94,-1.52 21.59,-4.27 6.9,-2.86 13.12,-7.05 18.32,-12.26 1.28,-1.28 2.49,-2.61 3.64,-4.01l0 0c3.54,-4.29 6.46,-9.1 8.62,-14.31 2.23,-5.38 3.65,-11.17 4.11,-17.24l0 -0.01c0.04,-0.48 0.07,-0.95 0.09,-1.43l0 -0.01c0.02,-0.48 0.04,-0.96 0.05,-1.44l0 -0.01c0.02,-0.48 0.02,-0.96 0.02,-1.45l0 0 0 0c0,-0.49 0,-0.97 -0.02,-1.45l0 -0.02c-0.01,-0.48 -0.03,-0.95 -0.05,-1.43l0 -0.01c-0.02,-0.48 -0.05,-0.95 -0.09,-1.42l0 -0.02c-0.07,-0.96 -0.17,-1.9 -0.29,-2.84l0 0c-0.64,-5.04 -1.94,-9.87 -3.82,-14.4 -1.98,-4.78 -4.61,-9.24 -7.76,-13.26l-0.01 0c-0.27,-0.35 -0.56,-0.7 -0.84,-1.05l-0.01 -0.01c-0.28,-0.34 -0.57,-0.68 -0.87,-1.02l-0.01 -0.02c-0.29,-0.33 -0.58,-0.66 -0.88,-0.99l-0.02 -0.02c-0.3,-0.33 -0.6,-0.66 -0.91,-0.98l-0.01 -0.01c-0.31,-0.32 -0.62,-0.64 -0.94,-0.96l0 0c-0.32,-0.32 -0.64,-0.63 -0.96,-0.94l-0.01 -0.01c-0.33,-0.31 -0.65,-0.61 -0.98,-0.92l-0.01 0c-0.33,-0.31 -0.67,-0.6 -1.01,-0.9l0 0c-0.34,-0.3 -0.69,-0.59 -1.03,-0.87l-0.01 -0.01c-4.29,-3.53 -9.1,-6.45 -14.31,-8.61 -6.65,-2.75 -13.94,-4.27 -21.59,-4.27l-0.28 0c-0.18,0 -0.35,0 -0.52,0z"/>
   <path class="fil1" d="M55.45 0l58.44 0c3.89,0 7.23,1.39 9.98,4.14l41.33 41.33c2.75,2.75 4.14,6.09 4.14,9.98l0 58.44c0,3.89 -1.39,7.23 -4.14,9.98l-41.33 41.33c-2.75,2.75 -6.09,4.14 -9.98,4.14l-58.44 0c-3.89,0 -7.23,-1.39 -9.98,-4.14l-41.33 -41.33c-2.75,-2.75 -4.13,-6.09 -4.13,-9.98l0 -58.44c0,-3.89 1.38,-7.23 4.13,-9.98l41.33 -41.33c2.75,-2.75 6.09,-4.14 9.98,-4.14zm29.22 2.83l-29.22 0c-1.59,0 -3.04,0.27 -4.35,0.81 -1.3,0.54 -2.52,1.37 -3.64,2.49l-41.33 41.33c-1.12,1.12 -1.95,2.34 -2.49,3.64 -0.54,1.31 -0.81,2.76 -0.81,4.35l-0.01 0 0 58.44 0.01 0c0,1.59 0.27,3.04 0.81,4.35 0.54,1.3 1.37,2.52 2.49,3.64l41.33 41.33c1.12,1.12 2.34,1.95 3.64,2.49 1.31,0.54 2.76,0.81 4.35,0.81l58.44 0c1.59,0 3.04,-0.27 4.35,-0.81 1.3,-0.54 2.52,-1.37 3.64,-2.49l41.33 -41.33c1.12,-1.12 1.95,-2.34 2.49,-3.64 0.54,-1.31 0.81,-2.76 0.81,-4.35l0.01 0 0 -58.44 -0.01 0c0,-1.59 -0.27,-3.04 -0.81,-4.35 -0.54,-1.3 -1.37,-2.52 -2.49,-3.64l-41.33 -41.33c-1.12,-1.12 -2.34,-1.95 -3.64,-2.49 -1.31,-0.54 -2.76,-0.81 -4.35,-0.81l-29.22 0z"/>
   <circle class="fil2" cx="84.67" cy="84.67" r="62.44"/>
   <path class="fil3" d="M64.18 158.36l0 -1.43 0.78 0c0.51,0 0.84,-0.06 1.01,-0.16 0.16,-0.11 0.24,-0.39 0.24,-0.84l0 -0.33 0 -4.86 -2.03 0 0 -1.41c0.78,-0.02 1.41,-0.14 1.88,-0.38 0.47,-0.24 0.79,-0.61 0.97,-1.09l2.21 0 0 7.85c0,0.55 0.07,0.9 0.21,1.03 0.13,0.13 0.48,0.19 1.05,0.19l0.69 0 0 1.43 -7.01 0z"/>
   <path id="_1" class="fil3" d="M78.48 148.95c-0.43,0 -0.77,0.16 -1.02,0.49 -0.25,0.33 -0.38,0.78 -0.38,1.35 0,0.67 0.12,1.19 0.37,1.55 0.25,0.37 0.61,0.55 1.06,0.55 0.44,0 0.79,-0.18 1.07,-0.54 0.28,-0.37 0.41,-0.83 0.41,-1.41 0,-0.63 -0.13,-1.12 -0.39,-1.47 -0.27,-0.35 -0.64,-0.52 -1.12,-0.52zm1.65 4.63c-0.38,0.27 -0.78,0.46 -1.19,0.59 -0.41,0.13 -0.85,0.19 -1.33,0.19 -1.12,0 -2.01,-0.3 -2.67,-0.89 -0.67,-0.6 -1,-1.4 -1,-2.42 0,-1.04 0.41,-1.89 1.22,-2.53 0.81,-0.65 1.87,-0.97 3.18,-0.97 1.53,0 2.74,0.47 3.63,1.41 0.88,0.94 1.32,2.23 1.32,3.87 0,1.81 -0.47,3.24 -1.42,4.28 -0.94,1.04 -2.23,1.56 -3.88,1.56 -1.1,0 -1.99,-0.21 -2.65,-0.63 -0.67,-0.43 -1,-0.98 -1,-1.67 0,-0.43 0.15,-0.78 0.45,-1.06 0.31,-0.28 0.7,-0.42 1.19,-0.42 0.45,0 0.82,0.13 1.09,0.37 0.27,0.24 0.41,0.55 0.41,0.95 0,0.22 -0.06,0.41 -0.17,0.57 -0.11,0.15 -0.28,0.29 -0.51,0.4 0.18,0.06 0.34,0.1 0.48,0.13 0.14,0.04 0.27,0.05 0.39,0.05 0.8,0 1.41,-0.3 1.83,-0.91 0.42,-0.61 0.63,-1.49 0.63,-2.66l0 -0.21z"/>
   <path id="_2" class="fil3" d="M87.38 158.36l0 -0.29c0,-0.94 0.12,-1.8 0.36,-2.57 0.23,-0.78 0.59,-1.49 1.07,-2.14 0.17,-0.22 0.6,-0.67 1.31,-1.36 0.71,-0.69 1.28,-1.31 1.73,-1.86 -0.23,0.13 -0.48,0.22 -0.75,0.28 -0.27,0.06 -0.57,0.1 -0.89,0.1 -0.29,0 -0.68,-0.05 -1.16,-0.15 -0.48,-0.1 -0.81,-0.15 -1,-0.15 -0.52,0 -0.92,0.16 -1.18,0.47 -0.25,0.31 -0.38,0.79 -0.38,1.42 0,0.04 0,0.16 0.01,0.34 0.01,0.12 0.02,0.22 0.02,0.29l-1.57 0 0 -4.88 1.57 0 0 1.27c0.35,-0.48 0.73,-0.83 1.12,-1.05 0.4,-0.23 0.84,-0.34 1.35,-0.34 0.51,0 1.11,0.14 1.79,0.41 0.68,0.27 1.12,0.4 1.31,0.4 0.23,0 0.41,-0.05 0.54,-0.16 0.13,-0.11 0.2,-0.25 0.2,-0.43l0 -0.1 1.35 0c0,0.04 0.01,0.08 0.01,0.12 0,0.05 0,0.12 0,0.21 0,0.69 -0.48,1.8 -1.45,3.34 -0.16,0.24 -0.28,0.43 -0.36,0.56 -0.7,1.16 -1.18,2.18 -1.43,3.04 -0.25,0.86 -0.38,1.81 -0.38,2.83l0 0.4 -3.19 0z"/>
   <path id="_3" class="fil3" d="M98.32 158.36l0 -0.29c0,-0.94 0.12,-1.8 0.36,-2.57 0.23,-0.78 0.59,-1.49 1.07,-2.14 0.17,-0.22 0.6,-0.67 1.31,-1.36 0.71,-0.69 1.28,-1.31 1.73,-1.86 -0.23,0.13 -0.48,0.22 -0.75,0.28 -0.27,0.06 -0.57,0.1 -0.89,0.1 -0.29,0 -0.68,-0.05 -1.16,-0.15 -0.48,-0.1 -0.81,-0.15 -1,-0.15 -0.52,0 -0.92,0.16 -1.18,0.47 -0.25,0.31 -0.38,0.79 -0.38,1.42 0,0.04 0,0.16 0.01,0.34 0.01,0.12 0.02,0.22 0.02,0.29l-1.57 0 0 -4.88 1.57 0 0 1.27c0.35,-0.48 0.73,-0.83 1.12,-1.05 0.4,-0.23 0.84,-0.34 1.35,-0.34 0.51,0 1.11,0.14 1.79,0.41 0.68,0.27 1.12,0.4 1.31,0.4 0.23,0 0.41,-0.05 0.54,-0.16 0.13,-0.11 0.2,-0.25 0.2,-0.43l0 -0.1 1.35 0c0,0.04 0.01,0.08 0.01,0.12 0,0.05 0,0.12 0,0.21 0,0.69 -0.48,1.8 -1.45,3.34 -0.16,0.24 -0.28,0.43 -0.36,0.56 -0.7,1.16 -1.18,2.18 -1.43,3.04 -0.25,0.86 -0.38,1.81 -0.38,2.83l0 0.4 -3.19 0z"/>
   <path class="fil4" d="M44.39 139.84c-1.25,0.3 -2.21,0.98 -2.9,2.06 -0.72,1.14 -0.96,2.36 -0.74,3.68 -1.03,-1.45 -1.13,-2.84 -0.28,-4.19 0.85,-1.32 2.14,-1.84 3.92,-1.55zm2.42 10.07l6.9 -10.9 0.35 0.21c0.44,0.28 1.12,0.66 2.04,1.13l-0.13 0.2c-0.37,-0.19 -0.83,-0.2 -1.37,-0.02 -0.54,0.17 -1.17,0.84 -1.9,2l-3.18 5.02c-0.61,0.96 -0.94,1.71 -0.98,2.24 -0.04,0.54 0.17,1.05 0.62,1.53l-0.11 0.17c-0.88,-0.64 -1.62,-1.18 -2.24,-1.58zm0.42 -4.22l1.44 -2.26c-0.35,-0.5 -0.79,-0.92 -1.34,-1.27 -0.87,-0.55 -1.68,-0.72 -2.42,-0.51 -0.73,0.22 -1.34,0.69 -1.8,1.42 -0.48,0.75 -0.66,1.52 -0.54,2.29 0.12,0.78 0.63,1.45 1.56,2.04 0.5,0.31 0.92,0.47 1.26,0.46 0.34,-0.02 0.94,-0.75 1.84,-2.17zm4.96 -7.64l0.77 0.48 -6.91 10.89c-0.17,-0.11 -0.31,-0.2 -0.4,-0.26 -0.41,-0.22 -0.8,-0.44 -1.18,-0.64 -0.27,-0.12 -0.54,-0.27 -0.83,-0.44 -1.23,-0.79 -1.92,-1.67 -2.1,-2.67 -0.17,-1.01 0.06,-2.01 0.68,-2.98 0.63,-0.99 1.45,-1.58 2.45,-1.77 0.99,-0.2 1.99,0.02 3,0.65 0.55,0.36 1.05,0.81 1.49,1.35l1.15 -1.84c0.57,-0.89 0.87,-1.63 0.88,-2.22 0.03,-0.59 -0.21,-1.12 -0.74,-1.55l0.13 -0.2c0.26,0.22 0.6,0.49 1.01,0.77l0.6 0.43z"/>
   <path id="_1_0" class="fil4" d="M36.62 125.14l-4.4 13.59 -0.87 -0.82c0.18,-0.42 0.39,-0.97 0.62,-1.65 0.24,-0.72 0.39,-1.14 0.45,-1.26 0.02,-0.1 0.06,-0.17 0.1,-0.27l1.99 -6.28c0.7,-2.18 0.78,-3.82 0.26,-4.93l0.17 -0.17c0.74,0.83 1.3,1.43 1.68,1.79zm2.1 10.49l-2.68 -2.56 -1.26 3.91 3.94 -1.35zm-1.59 -5.92l-0.77 2.38 3.35 3.18 2.4 -0.83c0,0 0.05,-0.02 0.15,-0.06 0.01,0 0.14,-0.05 0.37,-0.13 0.36,-0.14 0.66,-0.32 0.9,-0.59 0.43,-0.44 0.49,-0.99 0.16,-1.65l0.17 -0.17c0.1,0.1 0.26,0.28 0.48,0.53 0.32,0.38 0.61,0.7 0.88,0.96 0.26,0.24 0.59,0.52 1,0.84 0.28,0.22 0.47,0.35 0.55,0.44l-0.17 0.18c-0.96,-0.3 -2.2,-0.18 -3.71,0.34l-8.37 2.89c-0.2,0.66 -0.22,1.31 -0.06,1.93 0.15,0.62 0.48,1.2 0.98,1.72l-0.16 0.18 -0.31 -0.3c-0.28,-0.27 -0.65,-0.65 -1.1,-1.14 -0.47,-0.52 -0.79,-0.85 -0.94,-1l4.4 -13.59c0.58,0.53 1.3,1.15 2.16,1.86l-0.16 0.18c-0.53,-0.36 -0.98,-0.32 -1.36,0.07 -0.29,0.31 -0.56,0.9 -0.84,1.78z"/>
   <path id="_2_1" class="fil4" d="M30.78 124.13l-0.15 -0.24c0.85,-0.6 1.36,-1.42 1.52,-2.44 0.15,-1.02 -0.03,-1.94 -0.57,-2.77 -0.41,-0.66 -0.92,-1.07 -1.54,-1.24 -0.62,-0.18 -1.19,-0.1 -1.7,0.22 -0.54,0.34 -0.84,0.8 -0.88,1.38 -0.06,0.56 0.09,1.52 0.43,2.87 0.26,1.07 0.43,1.87 0.46,2.37 0.06,0.59 -0.03,1.13 -0.26,1.62 -0.22,0.52 -0.58,0.92 -1.06,1.24 -0.55,0.35 -1.2,0.5 -1.95,0.46 0.31,-0.08 0.58,-0.19 0.78,-0.32 0.53,-0.33 0.92,-0.76 1.17,-1.27 0.25,-0.53 0.37,-1.06 0.34,-1.58 -0.03,-0.52 -0.18,-1.33 -0.47,-2.42 -0.38,-1.4 -0.52,-2.5 -0.42,-3.3 0.1,-0.78 0.51,-1.38 1.22,-1.83 0.69,-0.44 1.49,-0.57 2.39,-0.41 0.91,0.18 1.69,0.79 2.36,1.85 0.27,0.42 0.57,1.08 0.89,1.93 0.28,0.75 0.52,1.29 0.72,1.62l-0.03 0.13c-0.12,0.07 -0.28,0.15 -0.47,0.27 -0.21,0.14 -0.55,0.38 -0.98,0.72 -0.44,0.33 -0.78,0.55 -1.01,0.7 -0.29,0.19 -0.55,0.33 -0.79,0.44zm-8.94 -4.59l0.13 0.23c-0.79,0.51 -1.19,1.2 -1.18,2.06 0.02,0.86 0.3,1.72 0.85,2.61 0.43,0.69 0.94,1.17 1.53,1.44 0.58,0.27 1.08,0.27 1.5,0 0.44,-0.27 0.67,-0.67 0.7,-1.2 0.05,-0.54 -0.09,-1.48 -0.4,-2.81 -0.3,-1.25 -0.46,-2.15 -0.5,-2.69 -0.03,-0.59 0.08,-1.18 0.35,-1.76 0.28,-0.58 0.71,-1.04 1.27,-1.4 0.87,-0.55 1.74,-0.65 2.63,-0.32 -0.47,-0.04 -1,0.13 -1.58,0.5 -0.56,0.36 -0.97,0.79 -1.24,1.32 -0.26,0.54 -0.39,1.09 -0.4,1.65 -0.01,0.57 0.12,1.4 0.39,2.48 0.41,1.64 0.59,2.78 0.53,3.39 -0.06,0.63 -0.43,1.15 -1.12,1.57 -0.78,0.51 -1.61,0.57 -2.45,0.22 -0.83,-0.37 -1.62,-1.14 -2.35,-2.3 -0.5,-0.8 -0.97,-1.85 -1.43,-3.18l0.07 -0.03 0.38 -0.27c0.21,-0.13 0.45,-0.3 0.73,-0.49 0.34,-0.25 0.64,-0.46 0.91,-0.62 0.19,-0.11 0.41,-0.25 0.68,-0.4z"/>
   <path id="_3_2" class="fil4" d="M27.12 108.98l-11.72 5.39c-0.42,-0.92 -0.84,-1.72 -1.26,-2.39l0.2 -0.1c0.29,0.4 0.69,0.66 1.22,0.77 0.54,0.11 1.45,-0.13 2.72,-0.72l5.3 -2.43c1.14,-0.52 1.83,-1.03 2.09,-1.52 0.25,-0.49 0.33,-0.96 0.25,-1.41l0.2 -0.1c0.23,0.74 0.57,1.58 1,2.51zm-11.34 6.23l11.73 -5.38c0.24,0.53 0.65,1.33 1.24,2.38l-0.2 0.09c-0.4,-0.5 -0.91,-0.75 -1.51,-0.74 -0.59,0 -1.53,0.29 -2.81,0.88l-4.97 2.29c-0.95,0.43 -1.61,0.87 -1.96,1.31 -0.33,0.44 -0.44,0.96 -0.32,1.58l-0.2 0.09c-0.36,-0.94 -0.68,-1.77 -1,-2.5z"/>
   <path id="_4" class="fil4" d="M21.82 93.69l-5.74 1.33c-0.11,-0.38 -0.21,-0.72 -0.32,-1.04 -0.16,-0.5 -0.27,-0.83 -0.31,-0.99l0.22 -0.05c0.46,0.66 1.32,0.84 2.59,0.55l3.03 -0.71c0.02,0.06 0.1,0.19 0.25,0.43 0.06,0.13 0.11,0.22 0.17,0.29 0.05,0.07 0.09,0.13 0.11,0.19zm-8.65 11.16c1.6,0.65 3.46,0.74 5.56,0.25 0.5,-0.12 1.2,-0.33 2.08,-0.66 0.87,-0.32 1.73,-0.88 2.56,-1.68 -0.85,1.83 -2.31,2.99 -4.4,3.47 -1.27,0.3 -2.41,0.29 -3.41,-0.03 -0.98,-0.31 -1.77,-0.76 -2.39,-1.35zm3.11 -8.96l6.04 -1.4c0.8,1.15 1.32,2.18 1.53,3.09 0.35,1.55 0.13,2.91 -0.67,4.09 -0.4,0.59 -0.98,1.09 -1.71,1.52 -0.73,0.42 -1.62,0.75 -2.66,0.99 -4.55,1.05 -7.28,-0.33 -8.16,-4.14 -0.32,-1.39 -0.4,-2.8 -0.23,-4.22 0.74,-0.18 1.31,-0.32 1.7,-0.44 0.33,-0.1 0.76,-0.21 1.25,-0.32l0.05 0.23c-0.81,0.4 -1.38,0.99 -1.71,1.82 -0.33,0.83 -0.38,1.76 -0.14,2.76 0.71,3.09 2.92,4.2 6.64,3.35 3.77,-0.88 5.36,-2.64 4.74,-5.26 -0.24,-1.05 -0.66,-1.74 -1.27,-2.07 -0.29,-0.07 -0.8,-0.04 -1.5,0.13l-1.62 0.37c-1.15,0.27 -1.71,0.85 -1.69,1.73l-0.22 0.05c-0.06,-0.3 -0.12,-0.71 -0.21,-1.24 -0.06,-0.42 -0.12,-0.76 -0.16,-1.04z"/>
   <path id="_5" class="fil4" d="M22.8 74.19c-0.69,-0.84 -1.63,-1.36 -2.85,-1.52 -1.32,-0.18 -2.43,0.07 -3.34,0.74 0.77,-1.47 1.9,-2.1 3.38,-1.9 0.75,0.11 1.36,0.41 1.88,0.92 0.52,0.5 0.82,1.09 0.93,1.76zm-6.96 -0.33c-0.57,-0.57 -1.31,-0.92 -2.19,-1.04 -0.71,-0.09 -1.36,-0.05 -1.95,0.16 -0.61,0.2 -1.04,0.47 -1.28,0.82 0.28,-0.78 0.7,-1.35 1.28,-1.7 0.58,-0.36 1.2,-0.5 1.83,-0.41 0.56,0.08 1.07,0.33 1.53,0.75 0.43,0.42 0.69,0.9 0.78,1.42zm-6.44 5.75l12.77 1.73c-0.07,0.7 -0.13,1.56 -0.18,2.56l-0.23 -0.03c-0.14,-1.07 -1.17,-1.73 -3.07,-1.99l-6.33 -0.86c-1.67,-0.22 -2.76,0.15 -3.24,1.14l-0.22 -0.03c0.2,-0.82 0.37,-1.67 0.5,-2.52zm7.03 -2.21l-0.16 1.22 2.17 0.29c1.53,0.2 2.51,0.17 2.96,-0.11 0.25,-0.25 0.42,-0.66 0.5,-1.23 0.12,-0.95 -0.06,-1.66 -0.55,-2.14 -0.5,-0.46 -1.11,-0.74 -1.84,-0.84 -0.59,-0.08 -1.11,-0.02 -1.57,0.17 -0.45,0.2 -0.79,0.49 -1.02,0.86 -0.21,0.38 -0.38,0.98 -0.49,1.78zm-3.47 0.76l2.43 0.33 0.13 -0.93c0.11,-0.78 -0.02,-1.4 -0.39,-1.88 -0.36,-0.48 -0.93,-0.78 -1.73,-0.88 -0.81,-0.11 -1.46,0.04 -1.95,0.43 -0.48,0.4 -0.77,0.91 -0.85,1.54 -0.05,0.35 0,0.64 0.14,0.88 0.42,0.2 1.15,0.38 2.22,0.51zm9.34 2.28l-12.78 -1.73 0.13 -2.09c0.14,-1.03 0.57,-1.8 1.3,-2.32 0.73,-0.52 1.58,-0.7 2.58,-0.57 1.24,0.17 2.06,0.83 2.47,1.99 0.63,-1.69 1.88,-2.41 3.75,-2.16 0.94,0.13 1.74,0.52 2.37,1.2 0.64,0.68 0.87,1.66 0.7,2.96 -0.06,0.48 -0.17,0.99 -0.31,1.55 -0.1,0.49 -0.18,0.88 -0.21,1.17z"/>
   <path id="_6" class="fil4" d="M24.86 66.68l-12.4 -3.5c0.28,-0.97 0.47,-1.84 0.58,-2.63l0.24 0.07c-0.05,0.49 0.09,0.94 0.42,1.36 0.34,0.44 1.18,0.85 2.53,1.23l5.61 1.58c1.21,0.33 2.06,0.4 2.57,0.19 0.51,-0.22 0.87,-0.52 1.11,-0.91l0.22 0.06c-0.31,0.71 -0.6,1.56 -0.88,2.55zm-12.64 -2.61l12.39 3.49c-0.15,0.57 -0.34,1.43 -0.58,2.62l-0.22 -0.06c0.01,-0.65 -0.21,-1.17 -0.66,-1.55 -0.45,-0.39 -1.36,-0.77 -2.71,-1.14l-5.26 -1.49c-1.02,-0.28 -1.8,-0.37 -2.34,-0.26 -0.54,0.1 -0.97,0.43 -1.27,0.99l-0.23 -0.07c0.36,-0.93 0.65,-1.78 0.88,-2.53z"/>
   <path id="_7" class="fil4" d="M30.24 53.29c-0.36,-1.03 -1.08,-1.82 -2.18,-2.39 -1.17,-0.6 -2.3,-0.75 -3.38,-0.43 1.21,-1.11 2.49,-1.32 3.82,-0.63 0.65,0.34 1.15,0.83 1.46,1.49 0.31,0.64 0.4,1.29 0.28,1.96zm-6.43 -2.64c-0.35,-0.74 -0.92,-1.31 -1.72,-1.72 -0.63,-0.33 -1.26,-0.5 -1.89,-0.51 -0.64,-0.01 -1.14,0.1 -1.49,0.34 0.53,-0.63 1.12,-1.02 1.78,-1.17 0.67,-0.14 1.29,-0.06 1.86,0.24 0.52,0.26 0.9,0.66 1.19,1.22 0.27,0.54 0.36,1.08 0.27,1.6zm-7.99 3.24l11.44 5.92c-0.31,0.64 -0.65,1.43 -1.05,2.35l-0.2 -0.11c0.23,-1.06 -0.51,-2.02 -2.23,-2.91l-5.65 -2.93c-1.51,-0.78 -2.66,-0.78 -3.45,-0.01l-0.19 -0.1c0.47,-0.71 0.92,-1.45 1.33,-2.21zm7.34 0.28l-0.56 1.09 1.96 1.02c1.36,0.69 2.29,0.99 2.81,0.88 0.33,-0.15 0.62,-0.48 0.89,-0.99 0.44,-0.85 0.51,-1.58 0.2,-2.2 -0.31,-0.61 -0.79,-1.07 -1.45,-1.42 -0.53,-0.27 -1.04,-0.38 -1.53,-0.35 -0.5,0.03 -0.92,0.18 -1.26,0.45 -0.33,0.3 -0.69,0.8 -1.06,1.52zm-3.52 -0.44l2.19 1.13 0.43 -0.84c0.36,-0.69 0.45,-1.33 0.27,-1.91 -0.18,-0.56 -0.62,-1.04 -1.33,-1.4 -0.74,-0.38 -1.4,-0.46 -2,-0.26 -0.58,0.22 -1.03,0.61 -1.31,1.17 -0.16,0.31 -0.22,0.6 -0.17,0.87 0.32,0.33 0.97,0.74 1.92,1.24zm8.03 5.28l-11.44 -5.92 0.82 -1.94c0.48,-0.91 1.14,-1.5 2,-1.75 0.86,-0.23 1.72,-0.12 2.62,0.34 1.11,0.58 1.67,1.47 1.66,2.7 1.15,-1.37 2.58,-1.63 4.26,-0.77 0.84,0.45 1.45,1.08 1.82,1.93 0.38,0.85 0.26,1.86 -0.34,3.03 -0.22,0.42 -0.48,0.87 -0.8,1.34 -0.26,0.44 -0.46,0.79 -0.6,1.04z"/>
   <path id="_8" class="fil4" d="M38.17 42.9l-3.53 4.42 -10.07 -8.02c0.33,-0.44 0.68,-0.95 1.06,-1.53 0.38,-0.52 0.55,-0.75 0.52,-0.71l0.18 0.14c-0.26,0.6 -0.29,1.15 -0.07,1.65 0.22,0.51 0.72,1.07 1.49,1.68l4.15 3.31c0.62,0.5 1.2,0.91 1.75,1.24 0.56,0.35 0.91,0.52 1.05,0.51 0.13,-0.01 0.32,-0.17 0.55,-0.47l1.6 -2.01c0.57,-0.7 0.92,-1.37 1.07,-2.02 0.15,-0.65 0.03,-1.4 -0.34,-2.27l0.15 -0.2c0.27,0.29 0.64,0.82 1.11,1.59 0.29,0.5 0.55,0.86 0.77,1.12 -0.49,0.45 -0.97,0.98 -1.44,1.57zm-15.88 -0.99l1.73 -1.92 10.07 8.03 -0.47 0.58c-0.29,0.37 -0.62,0.87 -1.02,1.52l-0.17 -0.14c0.19,-0.61 0.15,-1.17 -0.12,-1.67 -0.28,-0.5 -0.87,-1.11 -1.78,-1.84l-4.57 -3.64c-0.98,-0.78 -1.72,-1.16 -2.25,-1.16 -0.51,0.01 -0.94,0.13 -1.24,0.38l-0.18 -0.14z"/>
   <path id="_9" class="fil4" d="M34.62 28.21l0.32 -0.26 8.01 10.1 -0.63 0.5c-0.22,0.18 -0.66,0.59 -1.33,1.24l-0.14 -0.17c0.28,-0.36 0.42,-0.74 0.41,-1.11 -0.01,-0.39 -0.11,-0.77 -0.29,-1.13 -0.2,-0.4 -0.71,-1.12 -1.57,-2.19l-3.19 -4.01c-0.73,-0.93 -1.35,-1.46 -1.88,-1.61 -0.52,-0.15 -0.99,-0.13 -1.39,0.07l-0.14 -0.18c0.42,-0.27 1.02,-0.7 1.82,-1.25zm12.86 6.25l-3.83 3.05 -8.01 -10.1 2.79 -2.21c0.52,-0.43 1.47,-1.25 2.87,-2.48 0.14,0.21 0.25,0.36 0.33,0.45 0.1,0.13 0.35,0.41 0.75,0.86 0.28,0.3 0.42,0.46 0.43,0.48l0.2 0.25 -0.17 0.13c-0.66,-0.37 -1.21,-0.52 -1.62,-0.44 -0.42,0.08 -1.04,0.44 -1.84,1.08l-1.52 1.21c-0.25,0.19 -0.46,0.39 -0.64,0.58 0.06,0.31 0.4,0.88 1.03,1.71l0.5 0.66 1.23 1.55 2.07 -1.64c0.78,-0.61 1.24,-1.09 1.39,-1.43 0.15,-0.33 0.1,-0.82 -0.15,-1.44l0.22 -0.18c0.4,0.63 0.76,1.14 1.1,1.57 0.22,0.26 0.52,0.61 0.9,1.01 0.11,0.11 0.33,0.36 0.65,0.71l-0.21 0.17c-0.51,-0.51 -0.98,-0.76 -1.43,-0.75 -0.46,0.01 -0.99,0.27 -1.6,0.75l-2.41 1.91 1.66 2.08c0.63,0.8 1.23,1.47 1.8,2 0.3,-0.17 0.6,-0.38 0.91,-0.63l1.46 -1.15c0.79,-0.63 1.32,-1.19 1.58,-1.68 0.27,-0.53 0.36,-1.27 0.26,-2.24l0.19 -0.14c0.16,0.35 0.33,0.77 0.49,1.26 0.22,0.64 0.45,1.18 0.66,1.61 -0.79,0.49 -1.46,0.98 -2.04,1.43z"/>
   <path id="_10" class="fil4" d="M65.76 24.73c0.43,-1 0.42,-2.09 -0.02,-3.23 -0.48,-1.24 -1.23,-2.09 -2.25,-2.56 1.66,-0.04 2.75,0.65 3.29,2.05 0.27,0.69 0.3,1.39 0.1,2.09 -0.2,0.69 -0.57,1.24 -1.12,1.65zm-3.05 -6.22c0.24,-0.79 0.2,-1.61 -0.13,-2.44 -0.25,-0.67 -0.61,-1.21 -1.08,-1.63 -0.47,-0.44 -0.92,-0.68 -1.34,-0.74 0.82,-0.12 1.53,-0.02 2.12,0.31 0.6,0.35 1.01,0.81 1.24,1.42 0.2,0.52 0.22,1.09 0.07,1.69 -0.16,0.59 -0.45,1.05 -0.88,1.39zm-8.13 -2.9l4.62 12.02c-0.65,0.28 -1.43,0.62 -2.35,1.05l-0.08 -0.21c0.88,-0.64 0.97,-1.85 0.28,-3.66l-2.29 -5.93c-0.6,-1.59 -1.46,-2.35 -2.56,-2.29l-0.08 -0.21c0.83,-0.22 1.65,-0.47 2.46,-0.77zm5.32 5.08l-1.15 0.44 0.79 2.06c0.55,1.43 1.06,2.28 1.52,2.54 0.34,0.1 0.78,0.05 1.31,-0.15 0.9,-0.35 1.43,-0.85 1.61,-1.51 0.17,-0.66 0.12,-1.34 -0.14,-2.03 -0.22,-0.55 -0.52,-0.98 -0.91,-1.28 -0.4,-0.31 -0.81,-0.47 -1.24,-0.5 -0.44,0 -1.05,0.15 -1.79,0.43zm-2.34 -2.66l0.88 2.3 0.88 -0.33c0.74,-0.29 1.22,-0.7 1.47,-1.25 0.24,-0.55 0.22,-1.2 -0.07,-1.94 -0.29,-0.77 -0.73,-1.27 -1.31,-1.5 -0.58,-0.25 -1.17,-0.24 -1.76,-0.02 -0.33,0.13 -0.56,0.31 -0.7,0.55 0.02,0.46 0.23,1.2 0.61,2.19zm2.49 9.28l-4.62 -12.03 1.89 -0.89c0.97,-0.38 1.86,-0.37 2.66,0.02 0.8,0.4 1.38,1.05 1.74,1.99 0.45,1.17 0.26,2.21 -0.57,3.12 1.8,-0.26 3.04,0.49 3.72,2.24 0.33,0.9 0.36,1.78 0.08,2.66 -0.29,0.88 -1.05,1.55 -2.27,2.02 -0.45,0.17 -0.95,0.34 -1.5,0.49 -0.48,0.14 -0.86,0.27 -1.13,0.38z"/>
   <path id="_11" class="fil4" d="M81.86 22.01l-7.82 -11.95 1.19 -0.16c0.21,0.39 0.52,0.9 0.89,1.5 0.41,0.64 0.65,1.02 0.71,1.14 0.05,0.07 0.1,0.14 0.14,0.24l3.63 5.53c1.28,1.91 2.5,3.02 3.68,3.31l0.03 0.23c-1.11,0.04 -1.92,0.09 -2.45,0.16zm-9.46 -4.95l3.66 -0.5 -2.25 -3.43 -1.41 3.93zm5.6 2.48l-1.38 -2.1 -4.57 0.61 -0.85 2.4c0,0 -0.01,0.06 -0.04,0.17 -0.01,0.01 -0.05,0.14 -0.13,0.37 -0.13,0.37 -0.17,0.73 -0.12,1.08 0.08,0.61 0.47,1 1.19,1.17l0.03 0.23c-0.14,0.02 -0.38,0.03 -0.72,0.03 -0.48,0 -0.91,0.03 -1.3,0.09 -0.35,0.04 -0.77,0.13 -1.27,0.24 -0.34,0.1 -0.56,0.16 -0.68,0.17l-0.03 -0.23c0.82,-0.57 1.51,-1.61 2.05,-3.12l2.98 -8.37c-0.4,-0.57 -0.88,-1 -1.47,-1.26 -0.58,-0.27 -1.23,-0.37 -1.95,-0.31l-0.03 -0.23 0.43 -0.05c0.37,-0.05 0.89,-0.1 1.57,-0.14 0.69,-0.04 1.15,-0.08 1.36,-0.11l7.83 11.96c-0.78,0.12 -1.71,0.3 -2.8,0.53l-0.03 -0.22c0.6,-0.19 0.87,-0.56 0.78,-1.12 -0.05,-0.41 -0.34,-1.01 -0.85,-1.79z"/>
   <path id="_12" class="fil4" d="M96.27 17.55c1,-0.79 1.59,-1.81 1.76,-3.07 0.18,-1.33 -0.11,-2.54 -0.86,-3.63 1.55,0.87 2.21,2.1 1.99,3.67 -0.2,1.54 -1.17,2.55 -2.89,3.03zm-6.41 -8.13l-1.73 12.77 -0.4 -0.05c-0.52,-0.07 -1.29,-0.12 -2.33,-0.16l0.03 -0.23c0.43,0.01 0.85,-0.18 1.26,-0.55 0.42,-0.38 0.72,-1.25 0.9,-2.61l0.8 -5.9c0.14,-1.12 0.13,-1.94 -0.05,-2.44 -0.19,-0.5 -0.58,-0.88 -1.2,-1.13l0.03 -0.22c1.07,0.23 1.96,0.4 2.69,0.52zm1.36 4l-0.35 2.64c0.53,0.31 1.11,0.5 1.74,0.6 1.03,0.14 1.83,-0.05 2.42,-0.54 0.59,-0.51 0.94,-1.18 1.05,-2.03 0.12,-0.88 -0.04,-1.64 -0.47,-2.29 -0.43,-0.65 -1.18,-1.05 -2.26,-1.2 -0.6,-0.08 -1.06,-0.04 -1.35,0.1 -0.29,0.16 -0.56,1.07 -0.78,2.72zm-1.32 9.02l-0.88 -0.12 1.73 -12.78c0.2,0.03 0.36,0.04 0.47,0.03 0.47,0.05 0.92,0.09 1.35,0.11 0.29,0.01 0.6,0.03 0.93,0.08 1.44,0.2 2.45,0.72 3.03,1.57 0.57,0.85 0.77,1.83 0.63,2.97 -0.16,1.15 -0.66,2.03 -1.49,2.61 -0.82,0.61 -1.83,0.83 -3.01,0.67 -0.65,-0.09 -1.29,-0.3 -1.92,-0.61l-0.29 2.16c-0.15,1.05 -0.1,1.85 0.13,2.4 0.23,0.55 0.66,0.92 1.32,1.09l-0.02 0.23c-0.33,-0.1 -0.76,-0.19 -1.26,-0.29l-0.72 -0.12z"/>
   <path id="_13" class="fil4" d="M106.79 26.19l-0.3 -0.11 4.06 -12.23 4.19 1.38c0.77,0.26 1.54,0.47 2.31,0.63 -0.05,0.14 -0.15,0.4 -0.3,0.78 -0.13,0.35 -0.3,0.79 -0.47,1.32 -0.12,0.34 -0.25,0.68 -0.41,1.01l-0.27 -0.09c0.19,-0.64 0.21,-1.23 0.05,-1.74 -0.17,-0.53 -0.76,-0.96 -1.75,-1.29l-2.64 -0.87 -2.76 8.33c-0.32,0.95 -0.43,1.71 -0.31,2.28 0.1,0.57 0.42,1.01 0.95,1.31l-0.07 0.2c-1.33,-0.55 -2.09,-0.86 -2.28,-0.91zm-0.93 -13.91l3.84 1.28 -4.07 12.23 -0.35 -0.11c-0.51,-0.17 -1.27,-0.37 -2.3,-0.6l0.06 -0.21c0.7,0.06 1.24,-0.12 1.66,-0.54 0.39,-0.41 0.77,-1.19 1.15,-2.32l2.65 -7.96 -2.96 -0.98c-0.76,-0.25 -1.34,-0.27 -1.75,-0.06 -0.41,0.21 -0.87,0.71 -1.36,1.49l-0.27 -0.09c0.02,-0.09 0.06,-0.21 0.1,-0.32 0.04,-0.16 0.13,-0.35 0.24,-0.58 0.37,-0.79 0.66,-1.52 0.89,-2.2 0.39,0.2 0.89,0.4 1.49,0.61l0.98 0.36z"/>
   <path id="_14" class="fil4" d="M117.23 31.35l6.36 -11.2c0.89,0.5 1.68,0.91 2.41,1.21l-0.12 0.2c-0.46,-0.16 -0.93,-0.14 -1.42,0.08 -0.51,0.23 -1.11,0.96 -1.79,2.17l-2.87 5.06c-0.63,1.08 -0.9,1.9 -0.81,2.44 0.09,0.55 0.29,0.99 0.62,1.3l-0.11 0.2c-0.62,-0.47 -1.38,-0.95 -2.27,-1.46zm5.57 -11.65l-6.37 11.2c-0.5,-0.28 -1.31,-0.69 -2.39,-1.19l0.1 -0.21c0.63,0.17 1.19,0.08 1.67,-0.27 0.48,-0.35 1.06,-1.14 1.76,-2.35l2.69 -4.75c0.53,-0.91 0.8,-1.65 0.82,-2.22 0.03,-0.54 -0.2,-1.03 -0.66,-1.46l0.12 -0.21c0.83,0.57 1.58,1.06 2.26,1.46z"/>
   <path id="_15" class="fil4" d="M124.32 30.81l0.22 0.19c-0.64,0.83 -0.88,1.75 -0.73,2.78 0.14,1.01 0.59,1.83 1.34,2.48 0.58,0.5 1.19,0.73 1.83,0.72 0.65,-0.02 1.17,-0.26 1.57,-0.71 0.42,-0.48 0.55,-1.01 0.43,-1.58 -0.11,-0.55 -0.53,-1.42 -1.24,-2.59 -0.58,-0.96 -0.95,-1.67 -1.14,-2.14 -0.22,-0.54 -0.3,-1.09 -0.22,-1.63 0.06,-0.55 0.27,-1.05 0.65,-1.49 0.42,-0.48 0.99,-0.82 1.73,-1.01 -0.28,0.18 -0.51,0.36 -0.66,0.54 -0.41,0.48 -0.67,1 -0.74,1.56 -0.09,0.58 -0.04,1.12 0.14,1.6 0.18,0.5 0.56,1.22 1.14,2.16 0.78,1.23 1.23,2.24 1.37,3.03 0.12,0.77 -0.09,1.47 -0.63,2.1 -0.54,0.63 -1.26,1 -2.17,1.1 -0.91,0.1 -1.84,-0.25 -2.79,-1.06 -0.38,-0.33 -0.84,-0.86 -1.41,-1.59 -0.48,-0.63 -0.87,-1.08 -1.16,-1.34l0 -0.12c0.09,-0.11 0.22,-0.24 0.36,-0.41 0.17,-0.19 0.41,-0.51 0.73,-0.96 0.33,-0.45 0.58,-0.76 0.76,-0.97 0.23,-0.27 0.44,-0.48 0.62,-0.66zm9.88 1.76l-0.19 -0.17c0.61,-0.73 0.77,-1.5 0.51,-2.33 -0.25,-0.81 -0.77,-1.55 -1.56,-2.23 -0.62,-0.54 -1.24,-0.84 -1.87,-0.92 -0.64,-0.09 -1.11,0.06 -1.43,0.43 -0.34,0.39 -0.46,0.85 -0.33,1.35 0.12,0.53 0.52,1.39 1.21,2.57 0.64,1.1 1.06,1.9 1.25,2.42 0.2,0.55 0.27,1.15 0.18,1.77 -0.1,0.63 -0.36,1.21 -0.8,1.72 -0.66,0.77 -1.47,1.13 -2.42,1.08 0.47,-0.12 0.92,-0.43 1.38,-0.95 0.41,-0.5 0.68,-1.04 0.78,-1.62 0.1,-0.6 0.05,-1.16 -0.09,-1.7 -0.17,-0.54 -0.54,-1.29 -1.11,-2.25 -0.86,-1.45 -1.36,-2.47 -1.49,-3.07 -0.11,-0.61 0.08,-1.22 0.61,-1.83 0.61,-0.71 1.37,-1.02 2.28,-0.93 0.91,0.1 1.88,0.59 2.93,1.49 0.7,0.61 1.47,1.48 2.27,2.62l-0.05 0.06 -0.29 0.37c-0.16,0.18 -0.35,0.41 -0.55,0.67 -0.26,0.34 -0.48,0.63 -0.69,0.87 -0.14,0.16 -0.32,0.35 -0.53,0.58z"/>
   <path id="_16" class="fil4" d="M134.62 47.14l-0.2 -0.25 10.1 -8.01 2.73 3.45c0.5,0.64 1.04,1.22 1.6,1.77 -0.13,0.1 -0.35,0.27 -0.69,0.5 -0.3,0.22 -0.68,0.5 -1.12,0.85 -0.29,0.23 -0.58,0.43 -0.9,0.63l-0.18 -0.23c0.52,-0.43 0.84,-0.9 0.99,-1.43 0.16,-0.53 -0.1,-1.2 -0.75,-2.04l-1.73 -2.17 -6.86 5.45c-0.78,0.62 -1.29,1.21 -1.5,1.75 -0.23,0.53 -0.2,1.07 0.08,1.61l-0.17 0.14c-0.82,-1.2 -1.28,-1.87 -1.4,-2.02zm6.82 -12.13l2.51 3.16 -10.09 8.01 -0.23 -0.29c-0.33,-0.41 -0.86,-1 -1.6,-1.76l0.17 -0.14c0.56,0.43 1.11,0.58 1.68,0.46 0.56,-0.13 1.31,-0.57 2.24,-1.31l6.55 -5.2 -1.94 -2.44c-0.49,-0.62 -0.97,-0.96 -1.43,-1.01 -0.45,-0.05 -1.1,0.12 -1.95,0.51l-0.18 -0.22c0.08,-0.08 0.17,-0.15 0.27,-0.23 0.13,-0.1 0.3,-0.22 0.51,-0.35 0.75,-0.46 1.4,-0.92 1.96,-1.36 0.22,0.37 0.53,0.82 0.91,1.34l0.62 0.83z"/>
   <path id="_17" class="fil4" d="M153.26 57.83c-1.43,-0.51 -3.09,-0.45 -4.97,0.17 -2.21,0.73 -3.69,1.82 -4.45,3.28 0.08,-0.94 0.5,-1.81 1.24,-2.59 0.75,-0.79 1.68,-1.37 2.82,-1.75 0.78,-0.26 1.55,-0.37 2.29,-0.33 0.72,0.02 1.33,0.15 1.81,0.35 0.44,0.2 0.87,0.49 1.26,0.87zm-4.88 12.33l0.08 0.22 -2.08 0.28c-0.52,-0.62 -0.96,-1.24 -1.31,-1.87 -0.36,-0.62 -0.63,-1.25 -0.84,-1.86 -0.61,-1.88 -0.56,-3.52 0.19,-4.95 0.73,-1.41 2.14,-2.47 4.2,-3.15 2.06,-0.68 3.82,-0.63 5.28,0.15 1.46,0.77 2.49,2.09 3.11,3.95 0.44,1.34 0.65,2.78 0.62,4.33 -1,0.26 -1.58,0.42 -1.76,0.47 -0.16,0.06 -0.32,0.12 -0.47,0.17l-0.28 0.09c-0.4,0.14 -0.79,0.24 -1.17,0.32l-0.06 -0.19c2.17,-1.26 2.9,-2.98 2.18,-5.17 -0.5,-1.49 -1.37,-2.52 -2.63,-3.09 -1.25,-0.55 -2.78,-0.54 -4.59,0.06 -1.59,0.52 -2.74,1.36 -3.46,2.49 -0.72,1.13 -0.83,2.51 -0.29,4.14 0.31,0.9 0.75,1.66 1.35,2.28 0.59,0.63 1.23,1.07 1.93,1.33z"/>
   <path id="_18" class="fil4" d="M159.43 74.26l-12.85 1.04 -0.37 -2.6 0.23 -0.02c0.14,0.38 0.38,0.7 0.72,0.95 0.33,0.24 0.7,0.38 1.12,0.43 0.42,0.05 1.13,0.03 2.13,-0.05l5.63 -0.46c1.19,-0.1 1.99,-0.32 2.4,-0.66 0.41,-0.33 0.64,-0.75 0.7,-1.24l0.23 -0.01c-0.02,0.51 0,1.38 0.06,2.62zm-12.04 11.04l12.85 -1.04c0.07,0.87 0.2,1.76 0.36,2.64l-0.22 0.01c-0.37,-1 -1.4,-1.47 -3.08,-1.37l-1.16 0.06 -5.51 0.44c-1.82,0.15 -2.81,0.79 -2.95,1.9l-0.23 0.02c-0.02,-1.56 -0.05,-2.44 -0.06,-2.66zm12.78 -1.95l-12.85 1.04c-0.05,-0.36 -0.17,-1.25 -0.38,-2.68l0.23 -0.02c0.15,0.49 0.46,0.87 0.94,1.15 0.48,0.28 1.36,0.37 2.67,0.26l2.57 -0.2 -0.5 -6.19 -2.97 0.23c-1.13,0.1 -1.9,0.33 -2.26,0.69 -0.37,0.36 -0.6,0.78 -0.68,1.26l-0.22 0.02c0.01,-1.01 -0.02,-1.92 -0.07,-2.71l12.86 -1.03c0.05,0.71 0.18,1.61 0.36,2.68l-0.22 0.01c-0.23,-0.62 -0.6,-1.04 -1.12,-1.24 -0.51,-0.21 -1.38,-0.26 -2.6,-0.16l-2.03 0.16 0.5 6.19 2.32 -0.18c1.02,-0.08 1.78,-0.28 2.27,-0.6 0.49,-0.31 0.79,-0.78 0.88,-1.37l0.23 -0.01c-0.03,0.88 0,1.78 0.07,2.7z"/>
   <path id="_19" class="fil4" d="M157.27 104.91l-12.54 -2.93 0.26 -1.11c0.24,0.14 0.62,0.27 1.11,0.39 -0.55,-1.51 -0.66,-3 -0.32,-4.44 0.2,-0.85 0.56,-1.54 1.08,-2.09 0.52,-0.56 1.09,-0.86 1.74,-0.95 0.64,-0.09 1.51,-0.01 2.58,0.24l8.18 1.92c-0.19,0.82 -0.36,1.76 -0.49,2.79l-0.23 -0.06c0.04,-0.45 -0.06,-0.84 -0.26,-1.18 -0.22,-0.35 -0.49,-0.6 -0.83,-0.76 -0.33,-0.18 -0.9,-0.36 -1.67,-0.54l-0.24 -0.07 -4.55 -1.06c-1.01,-0.25 -1.76,-0.34 -2.24,-0.29 -0.5,0.03 -0.96,0.27 -1.39,0.7 -0.43,0.44 -0.74,1.05 -0.91,1.81 -0.29,1.22 -0.14,2.61 0.43,4.19l6.95 1.62c0.9,0.21 1.56,0.32 2,0.33 0.41,0.01 0.78,-0.08 1.1,-0.28 0.31,-0.19 0.57,-0.49 0.78,-0.89l0.23 0.05c-0.01,0.05 -0.05,0.16 -0.09,0.34 -0.05,0.17 -0.11,0.35 -0.18,0.54 -0.2,0.65 -0.36,1.22 -0.5,1.73zm3.06 -12.44l-0.78 2.63 -8.25 -1.94c-1.23,-0.28 -2.12,-0.39 -2.64,-0.34 -0.55,0.05 -1.12,0.29 -1.72,0.74 0.2,-0.49 0.49,-0.89 0.87,-1.21 0.38,-0.34 0.79,-0.52 1.22,-0.56 0.42,-0.04 1.08,0.05 1.98,0.26l5.7 1.33c0.96,0.22 1.7,0.26 2.23,0.11 0.52,-0.16 0.91,-0.51 1.16,-1.07l0.23 0.05zm-15.96 11.05l0.17 -0.67 12.53 2.92c-0.13,0.6 -0.2,1.05 -0.25,1.37l-0.24 1.36 -0.22 -0.05c0.02,-0.41 -0.08,-0.81 -0.32,-1.18 -0.22,-0.34 -0.54,-0.61 -0.96,-0.8 -0.39,-0.17 -1.15,-0.39 -2.29,-0.65l-5.24 -1.24c-1.97,-0.45 -3.16,-0.12 -3.59,0.98l-0.21 -0.05c0.34,-1.02 0.55,-1.69 0.62,-1.99z"/>
   <path id="_20" class="fil4" d="M144.84 119.22c0.49,0.85 1.2,1.52 2.1,1.98 0.82,0.42 1.78,0.58 2.89,0.47 -1.18,0.96 -2.33,1.16 -3.47,0.56 -1.16,-0.59 -1.66,-1.59 -1.52,-3.01zm8.72 -3.85l-11.44 -5.91 0.24 -0.48c0.09,-0.17 0.21,-0.47 0.36,-0.89 0.14,-0.35 0.33,-0.75 0.57,-1.2l0.19 0.11c-0.19,0.49 -0.16,0.98 0.09,1.5 0.24,0.51 0.95,1.07 2.11,1.67l5.58 2.89c1.58,0.82 2.76,0.75 3.54,-0.21l0.2 0.1c-0.3,0.43 -0.78,1.24 -1.44,2.42zm-3.84 0.16l-2.36 -1.23c-0.33,0.39 -0.63,0.82 -0.88,1.32 -0.84,1.62 -0.42,2.87 1.28,3.76 1.59,0.81 2.8,0.42 3.64,-1.19 0.27,-0.52 0.37,-0.98 0.31,-1.39 -0.22,-0.28 -0.88,-0.69 -1.99,-1.27zm-8.18 -4.98l0.17 -0.3 11.44 5.91c-0.23,0.43 -0.44,0.91 -0.64,1.43 -0.25,0.59 -0.46,1.06 -0.65,1.42 -0.51,0.98 -1.19,1.57 -2.03,1.74 -0.87,0.18 -1.73,0.02 -2.62,-0.43 -1.5,-0.78 -2.14,-1.91 -1.9,-3.39 -0.42,0.58 -0.88,1.01 -1.39,1.28 -0.55,0.3 -1.52,0.66 -2.94,1.1 -2.15,0.67 -3.47,1.46 -3.93,2.35 -0.09,0.17 -0.13,0.39 -0.1,0.65l-0.22 -0.05c-0.23,-0.49 -0.2,-0.99 0.06,-1.51 0.29,-0.55 0.78,-1.02 1.51,-1.41 0.68,-0.36 1.89,-0.8 3.6,-1.33 2.08,-0.63 3.45,-1.57 4.12,-2.84 -0.66,0.66 -2.04,1.3 -4.14,1.91 -1.47,0.43 -2.58,0.83 -3.33,1.16 -0.75,0.34 -1.25,0.78 -1.53,1.31l-0.1 -0.05c0.04,-0.29 0.12,-0.55 0.25,-0.79 0.36,-0.71 0.85,-1.22 1.48,-1.55 0.33,-0.17 0.81,-0.37 1.43,-0.58 0.62,-0.21 1.4,-0.45 2.34,-0.72 1.37,-0.39 2.33,-0.7 2.89,-0.95 0.58,-0.27 1.04,-0.59 1.39,-0.94l-2.56 -1.33c-1.74,-0.89 -2.95,-0.86 -3.63,0.1l-0.21 -0.1c0.53,-0.82 0.95,-1.52 1.24,-2.09z"/>
   <path id="_21" class="fil4" d="M142.55 130.26c-0.31,-1.48 -1.2,-2.88 -2.71,-4.17 -1.76,-1.52 -3.46,-2.22 -5.1,-2.12 0.84,-0.42 1.8,-0.52 2.86,-0.28 1.05,0.24 2.04,0.73 2.94,1.52 0.62,0.53 1.1,1.13 1.45,1.78 0.36,0.64 0.56,1.22 0.62,1.73 0.07,0.49 0.06,1 -0.06,1.54zm-13.08 2.17l-0.16 0.19 -1.31 -1.65c0.27,-0.77 0.58,-1.47 0.93,-2.09 0.34,-0.63 0.73,-1.18 1.15,-1.67 1.3,-1.5 2.74,-2.3 4.35,-2.39 1.59,-0.1 3.21,0.56 4.87,1.98 1.63,1.41 2.51,2.94 2.59,4.6 0.09,1.65 -0.5,3.22 -1.78,4.7 -0.92,1.08 -2.06,1.99 -3.41,2.75 -0.73,-0.72 -1.17,-1.14 -1.31,-1.26 -0.13,-0.11 -0.26,-0.22 -0.39,-0.32l-0.22 -0.2c-0.32,-0.27 -0.61,-0.55 -0.88,-0.82l0.14 -0.16c2.19,1.22 4.04,0.94 5.55,-0.81 1.02,-1.19 1.45,-2.46 1.28,-3.83 -0.15,-1.36 -0.96,-2.67 -2.4,-3.91 -1.26,-1.08 -2.57,-1.64 -3.9,-1.67 -1.35,-0.03 -2.58,0.59 -3.7,1.9 -0.61,0.71 -1.04,1.49 -1.26,2.33 -0.23,0.82 -0.28,1.59 -0.14,2.33z"/>
   <path id="_22" class="fil4" d="M131.48 143.84l-7.53 -10.47 2.04 -1.66 0.13 0.18c-0.26,0.31 -0.4,0.68 -0.45,1.1 -0.03,0.4 0.05,0.8 0.23,1.18 0.16,0.38 0.55,0.99 1.14,1.81l3.29 4.59c0.71,0.97 1.31,1.55 1.81,1.72 0.5,0.19 0.98,0.17 1.43,-0.03l0.13 0.18c-0.45,0.23 -1.19,0.71 -2.22,1.4zm-15.67 -4.63l7.53 10.48c-0.72,0.52 -1.41,1.07 -2.07,1.67l-0.12 -0.17c0.66,-0.84 0.52,-1.96 -0.43,-3.35l-0.65 -0.97 -3.23 -4.5c-1.07,-1.49 -2.12,-2.01 -3.15,-1.56l-0.13 -0.18c1.32,-0.81 2.07,-1.29 2.25,-1.42zm8.26 9.94l-7.52 -10.48c0.29,-0.21 0.99,-0.78 2.11,-1.69l0.12 0.17c-0.35,0.38 -0.5,0.85 -0.5,1.41 0.01,0.54 0.39,1.36 1.16,2.43l1.51 2.1 5.04 -3.63 -1.74 -2.42c-0.67,-0.93 -1.26,-1.47 -1.75,-1.6 -0.51,-0.13 -0.99,-0.11 -1.44,0.08l-0.13 -0.18c0.88,-0.52 1.64,-1 2.29,-1.45l7.52 10.48c-0.58,0.42 -1.27,0.99 -2.11,1.7l-0.12 -0.17c0.41,-0.53 0.58,-1.06 0.49,-1.61 -0.09,-0.55 -0.49,-1.32 -1.21,-2.31l-1.2 -1.67 -5.03 3.62 1.36 1.91c0.6,0.82 1.15,1.37 1.68,1.65 0.53,0.25 1.08,0.26 1.64,0.04l0.12 0.18c-0.77,0.43 -1.54,0.91 -2.29,1.44z"/>
   <g id="Globe">
    <circle class="fil5" cx="84.67" cy="84.67" r="56.44"/>
    <g>
     <path class="fil6" d="M91.83 31.68c0,0.01 -6.71,3.32 -7.06,4.13 -0.09,0.21 -0.8,0.53 -0.99,0.99 -0.01,0.02 -0.99,1.07 -1.1,1.62 -0.14,0.64 -0.66,1.61 -0.89,2.99 -0.48,2.87 0,14.78 1.74,18.16 1.17,2.28 0.47,1.42 3.18,2.06 0.8,0.19 -1.23,1.69 0.76,2.09 0.79,0.17 3,1.23 4.04,1.32 0.92,0.08 9.51,2.6 9.91,3.27 0,0.01 1.09,0.76 1.64,1.87 0.52,1.05 1.79,2.81 2.2,4.05 0.28,0.82 3.89,7.1 3.18,6.38 -1.16,-1.15 -6.11,-2.8 -7.72,-3.25 -2.19,-0.62 -3.63,-0.94 -5.9,-1.32 -1.56,-0.27 -5.21,-0.21 -6.71,0.69 -1.65,0.99 -2.75,1.19 -3.98,2.99 -0.44,0.64 -1.61,2.43 -2.3,2.73 -0.31,0.14 -4.11,2.88 -3.47,3.87 0.56,0.86 1.58,2.28 1.17,3.34 -0.86,2.15 -0.72,5.18 1.76,6.13 1.7,0.65 3.85,2.88 4.52,2.84 1.48,-0.1 1.18,-2.55 3.38,-0.37 1.25,1.25 3.07,-3.73 5.78,0.63 0.91,1.47 -1.58,1.45 1.03,4.54 4.01,4.74 -0.27,3.38 0.67,9.59 0.26,1.75 1.03,-0.34 1.23,4.65 0.07,1.65 0.73,3.99 1.98,5.19 0.84,0.82 1.39,1.95 2.53,0.82 1.59,-1.59 0.33,-1.17 3.21,-1.25 1.8,-0.06 3.8,-4.18 4.16,-5.79 0.39,-1.77 1.92,-4.82 3.36,-6 1.55,-1.26 1.64,-4.86 0.73,-6.3 -0.93,-1.47 0.07,-1.87 1.2,-3.03 1,-1.04 3.15,-2.39 4.51,-3.75 1.07,-1.08 1.83,-1.89 2.64,-3.18 2.3,-3.65 -4.34,0.32 -6.2,-1.56 -1.19,-1.19 -1.23,-1.59 -1.99,-3.06 -0.91,-1.78 -2.49,-7.14 -4.23,-8.18 -0.05,-0.03 3.74,0.2 6.2,-0.66 4,-1.41 4.66,-12.92 10.04,-13 3.61,-0.06 5.21,1.17 8.1,2.6 1.55,0.77 3.42,2.07 3.45,3.93 0.04,2.03 -0.74,4.92 0.22,6.61 0.15,0.27 1.8,2.55 1.77,1.82 -0.28,-6.29 -1.02,-11.71 -3.3,-17.55 -1.4,-3.57 -2.34,-5.44 -4.15,-8.71 -0.59,-1.07 -3.02,-4.9 -3.74,-5.59 -0.66,-0.63 -1.89,-2.45 -2.87,-3.42 -1.22,-1.22 -2.73,-2.7 -3.85,-3.85 -0.37,-0.37 -2.55,-2.38 -2.86,-2.42 -0.03,-0.07 -0.16,-0.2 -0.23,-0.22 -0.03,-0.14 -0.18,-0.21 -0.32,-0.22 -0.07,-0.15 -0.44,-0.41 -0.56,-0.44 -0.03,-0.14 -0.18,-0.21 -0.32,-0.22 -0.07,-0.15 -0.45,-0.42 -0.56,-0.44 -0.02,-0.07 -0.31,-0.22 -0.33,-0.22 -0.03,-0.14 -0.18,-0.21 -0.32,-0.23 -0.06,-0.13 -0.18,-0.2 -0.33,-0.22 -0.06,-0.13 -0.18,-0.2 -0.33,-0.22 -0.06,-0.13 -0.18,-0.2 -0.33,-0.22 -0.06,-0.13 -0.18,-0.2 -0.34,-0.22 -0.05,-0.13 -0.17,-0.2 -0.33,-0.22 -0.05,-0.13 -0.17,-0.2 -0.33,-0.22 -0.04,-0.13 -0.17,-0.2 -0.33,-0.22 -0.02,-0.06 -0.31,-0.21 -0.34,-0.22 -0.02,-0.1 -0.32,-0.21 -0.43,-0.22 -0.04,-0.13 -0.17,-0.2 -0.33,-0.22 -0.02,-0.07 -0.31,-0.21 -0.34,-0.22 -0.02,-0.1 -0.32,-0.21 -0.43,-0.22 -0.02,-0.07 -0.31,-0.21 -0.34,-0.22 -0.02,-0.1 -0.32,-0.21 -0.43,-0.22 -0.03,-0.1 -0.33,-0.21 -0.44,-0.22 -0.02,-0.07 -0.32,-0.21 -0.34,-0.22 -0.02,-0.1 -0.32,-0.21 -0.43,-0.22 -0.03,-0.1 -0.33,-0.21 -0.44,-0.22 -0.03,-0.1 -0.33,-0.21 -0.44,-0.22 -0.03,-0.1 -0.33,-0.21 -0.44,-0.22 -0.03,-0.11 -0.33,-0.21 -0.44,-0.22 -0.03,-0.09 -0.47,-0.21 -0.56,-0.22 -0.02,-0.11 -0.32,-0.21 -0.44,-0.22 -0.02,-0.09 -0.46,-0.21 -0.55,-0.22 -0.02,-0.11 -0.32,-0.21 -0.44,-0.22 -0.02,-0.1 -0.46,-0.22 -0.55,-0.22 -0.02,-0.1 -0.46,-0.22 -0.55,-0.22 -0.02,-0.1 -0.46,-0.22 -0.55,-0.22 -0.03,-0.12 -0.52,-0.22 -0.66,-0.22 -0.04,-0.14 -0.38,-0.22 -0.55,-0.22 -0.03,-0.12 -0.51,-0.22 -0.66,-0.22 -0.03,-0.12 -0.51,-0.22 -0.66,-0.22 -0.03,-0.12 -0.51,-0.22 -0.66,-0.22 -0.04,-0.15 -0.59,-0.22 -0.77,-0.22 -0.04,-0.12 -0.51,-0.22 -0.66,-0.22 -0.03,-0.11 -0.64,-0.22 -0.77,-0.22 -0.03,-0.13 -0.71,-0.22 -0.88,-0.22 -0.04,-0.13 -0.71,-0.22 -0.88,-0.22 -0.04,-0.12 -0.82,-0.22 -0.99,-0.22 -0.04,-0.14 -0.91,-0.22 -1.1,-0.22 -0.04,-0.11 -0.75,-0.22 -0.89,-0.22 -0.02,0.13 -2.63,1.33 -2.64,1.35z"/>
     <path class="fil6" d="M35.21 60.28c-0.38,0.27 -3.24,7.72 -3.27,8.39 -0.02,0.38 -1.07,3.38 -1.1,4.27 -0.04,1.04 -0.85,3.67 -0.88,5.34 -0.04,1.69 -1.08,8.13 0.16,8.36 0.01,0 1.06,1.02 1.43,1.11 0.44,0.1 2.07,1.76 4.12,1.33 2.74,-0.57 6.31,-3.74 8.52,-5.5 0.43,-0.34 4.75,-3.53 4.86,-3.57 0.33,-0.13 4.25,-3.75 4.37,-4.33 0.21,-1.08 1.35,-2.39 2.61,-2.5 1.56,-0.13 3.04,-0.77 2.34,-2.59 -0.53,-1.39 -1.54,-3.74 -0.91,-5.04 0.98,-2.06 0.68,-1.4 -0.62,-3.64 -1.11,-1.93 2.43,-3.6 3.52,-4.77 1.49,-1.61 2.37,-2.52 4.01,-4.01 3.23,-2.94 7.43,-1.54 7.83,-3.97 0.2,-1.16 -1.87,0.85 -2.98,-2.89 -0.5,-1.7 -0.83,-3.58 -2.62,-3.68 -2.51,-0.15 -3.01,-0.45 -3.68,-3.02 -0.07,-0.28 -0.4,-6.27 -1.25,-5.01 -0.01,0.02 -4.2,2.23 -4.67,2.47 -2.67,1.37 -5.44,3.59 -7.81,5.49 -2.22,1.8 -3.26,3.14 -5.16,4.98 -1.23,1.18 -4.13,4.77 -4.95,6.16 -0.53,0.89 -2.94,4.47 -3.08,5.14 0,0.03 -0.78,1.47 -0.79,1.48z"/>
     <path class="fil6" d="M68.81 127.34c0.22,-1.4 -1.85,-1.06 -2.67,-1.67 -0.51,-0.39 -4.78,-0.68 -2.92,-2.66 1.79,-1.9 -1.06,-6.47 -0.07,-10.42 0.61,-2.42 1.24,-2.37 1.18,-4.95 -0.09,-3.32 0.65,-3.5 2.48,-5.05 2.49,-2.11 1.41,-3.24 0.38,-5.76 -0.91,-2.22 3.03,-2.97 0.43,-6.16 -1.06,-1.3 -4.45,1.43 -8.19,-1.25 -0.88,-0.63 -7.51,-3.83 -8.11,-3.61 -1.97,0.72 -1.89,0.14 -3.53,1.56 -0.02,0.02 -3.09,0.45 -3.87,0.87 -3.53,1.88 -3.8,1.36 -4.01,6.17 -0.07,1.56 -0.16,7.27 2.1,8.51 1.3,0.71 2.24,1.43 3.82,2.12 1.07,0.47 3.93,1.67 4.26,2.75 1.23,4.06 1.41,8.22 2.29,12.43 0.33,1.58 1.21,6.72 1.9,7.75 0.04,0.07 0.67,1.58 0.68,1.62 0.07,0.02 0.71,1.28 0.97,1.35 0.01,0.15 0.09,0.31 0.22,0.32 0.01,0.03 0.74,0.98 1.1,0.99 0.08,0.51 4,1.06 4.09,0.55 1.08,-0.02 2.27,-2.97 4.26,-3.09 0.04,-0.12 2.14,-1.36 2.46,-1.63 0.1,-0.09 0.72,-0.64 0.75,-0.74z"/>
    </g>
    <path class="fil7" d="M129.34 110.05c0.9,-0.46 1.75,-0.93 2.56,-1.4l1.35 -0.79 -0.72 1.39c-1.27,2.48 -2.74,4.86 -4.38,7.11 -1.66,2.26 -3.47,4.39 -5.44,6.35 -2.38,2.38 -4.98,4.54 -7.77,6.44 -2.77,1.88 -5.71,3.52 -8.82,4.87l-3.32 1.44 2.86 -2.22c1.58,-1.22 3.09,-2.57 4.53,-4.04 1.44,-1.47 2.81,-3.06 4.1,-4.76 1.21,-1.59 2.35,-3.28 3.41,-5.06 1.05,-1.76 2.03,-3.62 2.92,-5.55l0.08 -0.18 0.19 -0.06c1.01,-0.35 1.98,-0.7 2.92,-1.07 0.96,-0.38 1.88,-0.76 2.76,-1.15 0.93,-0.42 1.85,-0.86 2.77,-1.32zm-20.62 6.78c2.62,-0.52 5.13,-1.12 7.52,-1.79l1.02 -0.29 -0.5 0.94c-0.68,1.28 -1.4,2.52 -2.16,3.71 -0.77,1.19 -1.57,2.35 -2.41,3.45 -2.68,3.53 -5.73,6.57 -9.07,9 -3.28,2.39 -6.83,4.2 -10.58,5.31l-1.46 0.44 0.98 -1.16c1.25,-1.47 2.42,-3.24 3.51,-5.3 1.1,-2.08 2.12,-4.45 3.04,-7.06 0.31,-0.88 0.61,-1.79 0.9,-2.73 0.28,-0.93 0.56,-1.9 0.83,-2.9l0.08 -0.3 0.31 -0.03c2.75,-0.35 5.42,-0.78 7.99,-1.29zm-17.87 2.13c2.07,-0.1 4.1,-0.24 6.09,-0.43l0.67 -0.06 -0.19 0.64c-0.19,0.68 -0.41,1.38 -0.63,2.1 -0.22,0.69 -0.45,1.36 -0.67,2 -1.64,4.67 -3.55,8.45 -5.62,11.07 -2.05,2.6 -4.27,4.07 -6.59,4.18l-0.38 -0.01 -0.39 0c-2.26,-0.2 -4.44,-1.72 -6.45,-4.31 -2.03,-2.61 -3.9,-6.34 -5.51,-10.93 -0.25,-0.7 -0.48,-1.41 -0.7,-2.1 -0.23,-0.71 -0.45,-1.45 -0.67,-2.22l-0.18 -0.65 0.67 0.08c2.33,0.26 4.7,0.45 7.12,0.58 2.36,0.13 4.78,0.2 7.25,0.2 2.11,0 4.17,-0.05 6.18,-0.14zm-32.53 -2.61c2.61,0.58 5.35,1.08 8.19,1.48l0.29 0.05 0.08 0.29c0.28,1.05 0.57,2.07 0.87,3.04 0.3,0.98 0.61,1.94 0.94,2.87 0.92,2.61 1.94,4.98 3.04,7.06 1.09,2.06 2.26,3.83 3.5,5.3l0.99 1.16 -1.46 -0.44c-3.75,-1.11 -7.3,-2.92 -10.58,-5.31 -3.34,-2.43 -6.39,-5.47 -9.07,-9 -0.92,-1.21 -1.8,-2.47 -2.62,-3.78 -0.82,-1.32 -1.6,-2.69 -2.33,-4.1l-0.5 -0.97 1.04 0.33c2.42,0.75 4.97,1.43 7.62,2.02zm-13.95 -4.3c0.52,0.22 1.07,0.43 1.65,0.66l0.18 0.07 0.08 0.17c0.93,2.1 1.96,4.12 3.08,6.03 1.13,1.92 2.35,3.75 3.65,5.46 0.88,1.17 1.81,2.28 2.77,3.34 0.95,1.06 1.95,2.07 2.97,3.02l2.87 2.65 -3.4 -1.92c-2.12,-1.2 -4.15,-2.55 -6.09,-4.02 -1.95,-1.48 -3.79,-3.08 -5.5,-4.8 -1.97,-1.96 -3.79,-4.09 -5.44,-6.35 -1.64,-2.25 -3.11,-4.63 -4.38,-7.11l-0.72 -1.39 1.35 0.79c0.81,0.47 1.66,0.94 2.56,1.4 0.92,0.46 1.84,0.9 2.77,1.32 0.51,0.22 1.04,0.45 1.6,0.68zm-5.66 -5.24c-1.53,-0.88 -2.92,-1.81 -4.17,-2.77l-0.11 -0.08 -0.04 -0.12c-1.15,-3.01 -2.04,-6.15 -2.63,-9.4 -0.58,-3.18 -0.89,-6.44 -0.89,-9.77l0.01 -1.19 0.65 0.31c1.11,0.54 2.3,1.06 3.54,1.56 1.25,0.5 2.56,0.98 3.92,1.43l0.61 0.2 0.92 0.29 0.01 0.33c0.15,3.74 0.58,7.4 1.26,10.93 0.69,3.61 1.66,7.08 2.86,10.38l0.36 1c-0.44,-0.2 -0.89,-0.39 -1.33,-0.59 -1.79,-0.79 -3.45,-1.63 -4.97,-2.51zm17.97 6.85c-2.86,-0.7 -5.58,-1.5 -8.11,-2.4l-0.18 -0.06 -0.08 -0.19c-1.44,-3.38 -2.61,-6.99 -3.47,-10.78 -0.84,-3.69 -1.38,-7.55 -1.61,-11.53l-0.03 -0.63 0.61 0.17c2.81,0.76 5.82,1.45 9.01,2.06 3.14,0.59 6.44,1.11 9.89,1.52l0.38 0.05 0.02 0.38c0.2,4.08 0.55,8.02 1.04,11.76 0.5,3.84 1.15,7.47 1.92,10.86l0.15 0.65 -0.66 -0.1c-3.09,-0.48 -6.06,-1.07 -8.88,-1.76zm20.24 2.96c-2.59,-0.15 -5.12,-0.38 -7.58,-0.68l-0.32 -0.04 -0.07 -0.3c-0.82,-3.39 -1.51,-7.06 -2.05,-10.94 -0.52,-3.8 -0.9,-7.8 -1.12,-11.97l-0.02 -0.53 0.52 0.06c2.95,0.29 5.98,0.51 9.08,0.66 3.02,0.15 6.13,0.23 9.31,0.23 2.82,0 5.57,-0.06 8.25,-0.18 2.74,-0.12 5.44,-0.29 8.09,-0.52l0.52 -0.05 -0.03 0.52c-0.22,4.18 -0.6,8.2 -1.14,12 -0.54,3.89 -1.24,7.56 -2.07,10.95l-0.08 0.32 -0.31 0.03c-2.14,0.22 -4.33,0.39 -6.56,0.5 -2.2,0.11 -4.43,0.17 -6.67,0.17 -2.62,0 -5.21,-0.08 -7.75,-0.23zm33.42 -2.42c-2.76,0.61 -5.67,1.12 -8.68,1.53l-0.65 0.09 0.15 -0.64c0.78,-3.4 1.44,-7.04 1.95,-10.89 0.5,-3.75 0.86,-7.71 1.06,-11.8l0.02 -0.39 0.39 -0.04c3.41,-0.37 6.69,-0.83 9.84,-1.38 3.18,-0.55 6.2,-1.19 9.05,-1.91l0.6 -0.15 -0.04 0.62c-0.26,4.05 -0.85,7.96 -1.74,11.69 -0.91,3.83 -2.14,7.48 -3.65,10.89l-0.08 0.19 -0.2 0.06c-2.52,0.8 -5.21,1.52 -8.02,2.13zm13.95 -4.29c-0.44,0.19 -0.92,0.38 -1.42,0.57l-0.96 0.37 0.37 -0.95c1.28,-3.34 2.31,-6.87 3.07,-10.54 0.73,-3.58 1.21,-7.31 1.39,-11.14l0.01 -0.33 0.32 -0.09c0.53,-0.15 1.08,-0.32 1.66,-0.5 0.59,-0.18 1.13,-0.35 1.62,-0.52 1.36,-0.45 2.67,-0.93 3.92,-1.43 1.24,-0.5 2.43,-1.02 3.54,-1.56l0.65 -0.31 0.01 1.19c0,3.33 -0.31,6.59 -0.89,9.77 -0.59,3.25 -1.48,6.39 -2.63,9.4l-0.05 0.12 -0.1 0.08c-1.25,0.96 -2.64,1.89 -4.17,2.77 -1.52,0.88 -3.18,1.72 -4.97,2.51 -0.48,0.22 -0.94,0.41 -1.37,0.59zm-89.03 -27.32c-1.43,-0.58 -2.75,-1.19 -3.97,-1.82l-0.27 -0.14 0.03 -0.3c0.34,-4.26 1.17,-8.38 2.45,-12.3 1.3,-4.02 3.07,-7.84 5.24,-11.39l0.24 -0.39 0.39 0.24c0.79,0.49 1.63,0.96 2.5,1.41 0.89,0.45 1.82,0.89 2.77,1.31l0.4 0.17 -0.15 0.41c-1.39,3.69 -2.48,7.61 -3.23,11.7 -0.73,3.99 -1.14,8.13 -1.18,12.39l-0.01 0.62c-0.06,-0.02 -0.64,-0.21 -0.65,-0.22 -1.62,-0.54 -3.14,-1.1 -4.56,-1.69zm17.22 4.96c-3.2,-0.63 -6.22,-1.35 -9.03,-2.15l-0.32 -0.09 -0.01 -0.64 0 0c0,-4.23 0.37,-8.34 1.06,-12.29 0.72,-4.06 1.78,-7.94 3.15,-11.6l0.16 -0.42 0.42 0.15c2.34,0.85 4.84,1.61 7.47,2.27 2.7,0.68 5.53,1.25 8.43,1.72l0.44 0.07 -0.06 0.44c-0.41,3.09 -0.73,6.31 -0.94,9.65 -0.21,3.24 -0.32,6.59 -0.32,10.01 0,0.76 0.01,1.43 0.01,2 0.01,0.66 0.02,1.33 0.04,2l0.01 0.53 -0.52 -0.07c-3.48,-0.43 -6.82,-0.96 -9.99,-1.58zm22.75 2.68c-3.14,-0.16 -6.21,-0.39 -9.18,-0.69l-0.4 -0.04 -0.01 -0.4c-0.02,-0.73 -0.03,-1.47 -0.04,-2.22 -0.02,-0.81 -0.02,-1.55 -0.02,-2.21 0,-3.34 0.1,-6.63 0.31,-9.82 0.2,-3.26 0.51,-6.42 0.92,-9.45l0.06 -0.45 0.44 0.06c2.79,0.36 5.66,0.63 8.55,0.82 2.91,0.18 5.86,0.27 8.81,0.27 2.61,0 5.21,-0.07 7.77,-0.21 2.55,-0.14 5.09,-0.36 7.58,-0.64l0.45 -0.05 0.05 0.44c0.4,3.01 0.7,6.13 0.9,9.34 0.2,3.15 0.3,6.39 0.3,9.69 0,0.69 -0.01,1.47 -0.02,2.31 -0.01,0.78 -0.03,1.55 -0.05,2.31l-0.01 0.41 -0.4 0.03c-2.67,0.24 -5.41,0.42 -8.19,0.55 -2.76,0.12 -5.56,0.18 -8.38,0.18 -3.19,0 -6.34,-0.08 -9.44,-0.23zm39.53 -2.29c-3.17,0.57 -6.5,1.05 -9.95,1.44l-0.51 0.05 0.01 -0.52c0.02,-0.71 0.03,-1.41 0.04,-2.12 0.01,-0.61 0.02,-1.32 0.02,-2.12 0,-3.37 -0.11,-6.66 -0.31,-9.85 -0.21,-3.28 -0.52,-6.46 -0.91,-9.51l-0.06 -0.45 0.44 -0.06c2.93,-0.42 5.77,-0.94 8.5,-1.56 2.66,-0.6 5.21,-1.3 7.6,-2.1l0.42 -0.14 0.15 0.41c1.3,3.58 2.3,7.36 2.97,11.32 0.66,3.84 1.01,7.84 1.01,11.94l-0.01 1.21 -0.34 0.08c-2.84,0.75 -5.87,1.41 -9.07,1.98zm13.72 -3.32c-0.36,0.12 -0.72,0.23 -1.07,0.33l-0.59 0.18 0 -0.61c0,-4.23 -0.37,-8.35 -1.06,-12.32 -0.7,-4.08 -1.74,-7.99 -3.08,-11.68l-0.15 -0.42 0.41 -0.16c1.32,-0.52 2.57,-1.07 3.74,-1.65 1.15,-0.56 2.25,-1.16 3.29,-1.8l0.39 -0.24 0.24 0.39c2.17,3.55 3.94,7.37 5.24,11.39 1.28,3.92 2.11,8.04 2.45,12.3l0.03 0.3 -0.27 0.14c-1.22,0.63 -2.54,1.24 -3.97,1.82 -1.42,0.59 -2.94,1.15 -4.56,1.69 -0.35,0.12 -0.69,0.23 -1.04,0.34zm-32.91 -46.42c-1.09,-2.06 -2.26,-3.83 -3.51,-5.3l-0.98 -1.16 1.46 0.44c3.75,1.11 7.3,2.92 10.58,5.31 3.34,2.43 6.39,5.47 9.07,9 1.31,1.72 2.53,3.56 3.65,5.51 1.12,1.94 2.14,3.98 3.05,6.1l0.2 0.45 -0.47 0.16c-2.29,0.76 -4.74,1.42 -7.31,2 -2.61,0.59 -5.35,1.08 -8.16,1.48l-0.44 0.07 -0.07 -0.44c-0.49,-3.09 -1.08,-6.03 -1.75,-8.79 -0.68,-2.78 -1.44,-5.38 -2.28,-7.77 -0.92,-2.61 -1.94,-4.98 -3.04,-7.06zm-29.13 14.69c-0.66,2.71 -1.24,5.6 -1.73,8.62l-0.08 0.45 -0.44 -0.07c-2.81,-0.45 -5.52,-0.99 -8.09,-1.64 -2.53,-0.62 -4.92,-1.35 -7.17,-2.16l-0.45 -0.17 0.19 -0.44c0.89,-2 1.87,-3.93 2.95,-5.77 1.07,-1.83 2.24,-3.58 3.49,-5.22 2.68,-3.53 5.73,-6.57 9.07,-9 3.28,-2.39 6.83,-4.2 10.58,-5.31l1.46 -0.44 -0.99 1.16c-1.24,1.47 -2.41,3.24 -3.5,5.3 -1.1,2.08 -2.12,4.45 -3.04,7.06 -0.83,2.35 -1.58,4.9 -2.25,7.63zm17.43 -24.66l-0.22 0c-0.58,0 -1.14,0.01 -1.68,0.04 -0.55,0.02 -1.11,0.07 -1.66,0.12l-0.01 0c-6.82,0.52 -13.29,2.26 -19.21,4.98 -6.11,2.82 -11.63,6.69 -16.33,11.39 -5.21,5.2 -9.4,11.42 -12.26,18.32 -2.75,6.65 -4.27,13.94 -4.27,21.59 0,7.65 1.52,14.94 4.27,21.59 2.86,6.9 7.05,13.12 12.26,18.32 4.7,4.7 10.22,8.57 16.33,11.39 5.92,2.72 12.39,4.46 19.21,4.98l0.01 0c0.55,0.05 1.11,0.1 1.67,0.12 0.53,0.03 1.09,0.04 1.67,0.04l0.22 0c0.17,0 0.34,0 0.52,0l0.28 0c7.65,0 14.94,-1.52 21.59,-4.27 6.9,-2.86 13.12,-7.05 18.32,-12.26 5.21,-5.2 9.4,-11.42 12.26,-18.32 2.75,-6.65 4.27,-13.94 4.27,-21.59 0,-7.65 -1.52,-14.94 -4.27,-21.59 -2.86,-6.9 -7.05,-13.12 -12.26,-18.32 -5.2,-5.21 -11.42,-9.4 -18.32,-12.26 -6.65,-2.75 -13.94,-4.27 -21.59,-4.27l-0.28 0c-0.18,0 -0.35,0 -0.52,0zm26.32 11.91c-1.44,-1.47 -2.95,-2.82 -4.53,-4.04l-2.86 -2.22 3.32 1.44c3.1,1.35 6.05,2.99 8.82,4.87 2.79,1.9 5.39,4.06 7.77,6.44 1.07,1.07 2.11,2.2 3.11,3.39 0.99,1.18 1.93,2.39 2.81,3.64l0.28 0.39 -0.42 0.25c-0.96,0.59 -1.98,1.14 -3.06,1.67 -1.09,0.54 -2.25,1.04 -3.45,1.52l-0.41 0.16 -0.17 -0.4c-0.97,-2.27 -2.05,-4.44 -3.23,-6.49 -1.19,-2.07 -2.49,-4.03 -3.88,-5.86 -1.29,-1.7 -2.66,-3.29 -4.1,-4.76zm-60.87 10.29c-1.13,1.94 -2.17,3.98 -3.11,6.1l-0.18 0.42 -0.41 -0.19c-0.87,-0.38 -1.7,-0.77 -2.5,-1.18 -0.79,-0.41 -1.54,-0.83 -2.27,-1.28l-0.42 -0.25 0.28 -0.39c0.88,-1.25 1.82,-2.46 2.81,-3.64 1,-1.19 2.04,-2.32 3.11,-3.39 1.71,-1.72 3.55,-3.32 5.5,-4.8 1.94,-1.47 3.97,-2.82 6.09,-4.02l3.4 -1.92 -2.87 2.65c-1.02,0.95 -2.02,1.96 -2.97,3.02 -0.96,1.06 -1.89,2.17 -2.77,3.34 -1.31,1.72 -2.54,3.57 -3.69,5.53zm34.21 -19.54l0.38 -0.01c2.32,0.11 4.54,1.58 6.59,4.18 2.07,2.62 3.98,6.4 5.62,11.07 0.81,2.3 1.55,4.81 2.2,7.5 0.65,2.67 1.22,5.51 1.69,8.49l0.08 0.47 -0.47 0.05c-2.42,0.27 -4.89,0.47 -7.38,0.61 -2.52,0.14 -5.05,0.21 -7.57,0.21 -2.87,0 -5.76,-0.09 -8.61,-0.27 -2.82,-0.18 -5.61,-0.44 -8.35,-0.79l-0.46 -0.06 0.07 -0.46c0.48,-2.94 1.04,-5.73 1.68,-8.36 0.65,-2.64 1.38,-5.12 2.18,-7.39 1.61,-4.59 3.48,-8.32 5.51,-10.93 2.01,-2.59 4.19,-4.11 6.45,-4.31l0.39 0z"/>
   </g>
   <g id="Globe_3">
    <circle class="fil5" cx="84.67" cy="84.67" r="56.44"/>
    <g>
     <path class="fil6" d="M91.83 31.68c0,0.01 -6.71,3.32 -7.06,4.13 -0.09,0.21 -0.8,0.53 -0.99,0.99 -0.01,0.02 -0.99,1.07 -1.1,1.62 -0.14,0.64 -0.66,1.61 -0.89,2.99 -0.48,2.87 0,14.78 1.74,18.16 1.17,2.28 0.47,1.42 3.18,2.06 0.8,0.19 -1.23,1.69 0.76,2.09 0.79,0.17 3,1.23 4.04,1.32 0.92,0.08 9.51,2.6 9.91,3.27 0,0.01 1.09,0.76 1.64,1.87 0.52,1.05 1.79,2.81 2.2,4.05 0.28,0.82 3.89,7.1 3.18,6.38 -1.16,-1.15 -6.11,-2.8 -7.72,-3.25 -2.19,-0.62 -3.63,-0.94 -5.9,-1.32 -1.56,-0.27 -5.21,-0.21 -6.71,0.69 -1.65,0.99 -2.75,1.19 -3.98,2.99 -0.44,0.64 -1.61,2.43 -2.3,2.73 -0.31,0.14 -4.11,2.88 -3.47,3.87 0.56,0.86 1.58,2.28 1.17,3.34 -0.86,2.15 -0.72,5.18 1.76,6.13 1.7,0.65 3.85,2.88 4.52,2.84 1.48,-0.1 1.18,-2.55 3.38,-0.37 1.25,1.25 3.07,-3.73 5.78,0.63 0.91,1.47 -1.58,1.45 1.03,4.54 4.01,4.74 -0.27,3.38 0.67,9.59 0.26,1.75 1.03,-0.34 1.23,4.65 0.07,1.65 0.73,3.99 1.98,5.19 0.84,0.82 1.39,1.95 2.53,0.82 1.59,-1.59 0.33,-1.17 3.21,-1.25 1.8,-0.06 3.8,-4.18 4.16,-5.79 0.39,-1.77 1.92,-4.82 3.36,-6 1.55,-1.26 1.64,-4.86 0.73,-6.3 -0.93,-1.47 0.07,-1.87 1.2,-3.03 1,-1.04 3.15,-2.39 4.51,-3.75 1.07,-1.08 1.83,-1.89 2.64,-3.18 2.3,-3.65 -4.34,0.32 -6.2,-1.56 -1.19,-1.19 -1.23,-1.59 -1.99,-3.06 -0.91,-1.78 -2.49,-7.14 -4.23,-8.18 -0.05,-0.03 3.74,0.2 6.2,-0.66 4,-1.41 4.66,-12.92 10.04,-13 3.61,-0.06 5.21,1.17 8.1,2.6 1.55,0.77 3.42,2.07 3.45,3.93 0.04,2.03 -0.74,4.92 0.22,6.61 0.15,0.27 1.8,2.55 1.77,1.82 -0.28,-6.29 -1.02,-11.71 -3.3,-17.55 -1.4,-3.57 -2.34,-5.44 -4.15,-8.71 -0.59,-1.07 -3.02,-4.9 -3.74,-5.59 -0.66,-0.63 -1.89,-2.45 -2.87,-3.42 -1.22,-1.22 -2.73,-2.7 -3.85,-3.85 -0.37,-0.37 -2.55,-2.38 -2.86,-2.42 -0.03,-0.07 -0.16,-0.2 -0.23,-0.22 -0.03,-0.14 -0.18,-0.21 -0.32,-0.22 -0.07,-0.15 -0.44,-0.41 -0.56,-0.44 -0.03,-0.14 -0.18,-0.21 -0.32,-0.22 -0.07,-0.15 -0.45,-0.42 -0.56,-0.44 -0.02,-0.07 -0.31,-0.22 -0.33,-0.22 -0.03,-0.14 -0.18,-0.21 -0.32,-0.23 -0.06,-0.13 -0.18,-0.2 -0.33,-0.22 -0.06,-0.13 -0.18,-0.2 -0.33,-0.22 -0.06,-0.13 -0.18,-0.2 -0.33,-0.22 -0.06,-0.13 -0.18,-0.2 -0.34,-0.22 -0.05,-0.13 -0.17,-0.2 -0.33,-0.22 -0.05,-0.13 -0.17,-0.2 -0.33,-0.22 -0.04,-0.13 -0.17,-0.2 -0.33,-0.22 -0.02,-0.06 -0.31,-0.21 -0.34,-0.22 -0.02,-0.1 -0.32,-0.21 -0.43,-0.22 -0.04,-0.13 -0.17,-0.2 -0.33,-0.22 -0.02,-0.07 -0.31,-0.21 -0.34,-0.22 -0.02,-0.1 -0.32,-0.21 -0.43,-0.22 -0.02,-0.07 -0.31,-0.21 -0.34,-0.22 -0.02,-0.1 -0.32,-0.21 -0.43,-0.22 -0.03,-0.1 -0.33,-0.21 -0.44,-0.22 -0.02,-0.07 -0.32,-0.21 -0.34,-0.22 -0.02,-0.1 -0.32,-0.21 -0.43,-0.22 -0.03,-0.1 -0.33,-0.21 -0.44,-0.22 -0.03,-0.1 -0.33,-0.21 -0.44,-0.22 -0.03,-0.1 -0.33,-0.21 -0.44,-0.22 -0.03,-0.11 -0.33,-0.21 -0.44,-0.22 -0.03,-0.09 -0.47,-0.21 -0.56,-0.22 -0.02,-0.11 -0.32,-0.21 -0.44,-0.22 -0.02,-0.09 -0.46,-0.21 -0.55,-0.22 -0.02,-0.11 -0.32,-0.21 -0.44,-0.22 -0.02,-0.1 -0.46,-0.22 -0.55,-0.22 -0.02,-0.1 -0.46,-0.22 -0.55,-0.22 -0.02,-0.1 -0.46,-0.22 -0.55,-0.22 -0.03,-0.12 -0.52,-0.22 -0.66,-0.22 -0.04,-0.14 -0.38,-0.22 -0.55,-0.22 -0.03,-0.12 -0.51,-0.22 -0.66,-0.22 -0.03,-0.12 -0.51,-0.22 -0.66,-0.22 -0.03,-0.12 -0.51,-0.22 -0.66,-0.22 -0.04,-0.15 -0.59,-0.22 -0.77,-0.22 -0.04,-0.12 -0.51,-0.22 -0.66,-0.22 -0.03,-0.11 -0.64,-0.22 -0.77,-0.22 -0.03,-0.13 -0.71,-0.22 -0.88,-0.22 -0.04,-0.13 -0.71,-0.22 -0.88,-0.22 -0.04,-0.12 -0.82,-0.22 -0.99,-0.22 -0.04,-0.14 -0.91,-0.22 -1.1,-0.22 -0.04,-0.11 -0.75,-0.22 -0.89,-0.22 -0.02,0.13 -2.63,1.33 -2.64,1.35z"/>
     <path class="fil6" d="M35.21 60.28c-0.38,0.27 -3.24,7.72 -3.27,8.39 -0.02,0.38 -1.07,3.38 -1.1,4.27 -0.04,1.04 -0.85,3.67 -0.88,5.34 -0.04,1.69 -1.08,8.13 0.16,8.36 0.01,0 1.06,1.02 1.43,1.11 0.44,0.1 2.07,1.76 4.12,1.33 2.74,-0.57 6.31,-3.74 8.52,-5.5 0.43,-0.34 4.75,-3.53 4.86,-3.57 0.33,-0.13 4.25,-3.75 4.37,-4.33 0.21,-1.08 1.35,-2.39 2.61,-2.5 1.56,-0.13 3.04,-0.77 2.34,-2.59 -0.53,-1.39 -1.54,-3.74 -0.91,-5.04 0.98,-2.06 0.68,-1.4 -0.62,-3.64 -1.11,-1.93 2.43,-3.6 3.52,-4.77 1.49,-1.61 2.37,-2.52 4.01,-4.01 3.23,-2.94 7.43,-1.54 7.83,-3.97 0.2,-1.16 -1.87,0.85 -2.98,-2.89 -0.5,-1.7 -0.83,-3.58 -2.62,-3.68 -2.51,-0.15 -3.01,-0.45 -3.68,-3.02 -0.07,-0.28 -0.4,-6.27 -1.25,-5.01 -0.01,0.02 -4.2,2.23 -4.67,2.47 -2.67,1.37 -5.44,3.59 -7.81,5.49 -2.22,1.8 -3.26,3.14 -5.16,4.98 -1.23,1.18 -4.13,4.77 -4.95,6.16 -0.53,0.89 -2.94,4.47 -3.08,5.14 0,0.03 -0.78,1.47 -0.79,1.48z"/>
     <path class="fil6" d="M68.81 127.34c0.22,-1.4 -1.85,-1.06 -2.67,-1.67 -0.51,-0.39 -4.78,-0.68 -2.92,-2.66 1.79,-1.9 -1.06,-6.47 -0.07,-10.42 0.61,-2.42 1.24,-2.37 1.18,-4.95 -0.09,-3.32 0.65,-3.5 2.48,-5.05 2.49,-2.11 1.41,-3.24 0.38,-5.76 -0.91,-2.22 3.03,-2.97 0.43,-6.16 -1.06,-1.3 -4.45,1.43 -8.19,-1.25 -0.88,-0.63 -7.51,-3.83 -8.11,-3.61 -1.97,0.72 -1.89,0.14 -3.53,1.56 -0.02,0.02 -3.09,0.45 -3.87,0.87 -3.53,1.88 -3.8,1.36 -4.01,6.17 -0.07,1.56 -0.16,7.27 2.1,8.51 1.3,0.71 2.24,1.43 3.82,2.12 1.07,0.47 3.93,1.67 4.26,2.75 1.23,4.06 1.41,8.22 2.29,12.43 0.33,1.58 1.21,6.72 1.9,7.75 0.04,0.07 0.67,1.58 0.68,1.62 0.07,0.02 0.71,1.28 0.97,1.35 0.01,0.15 0.09,0.31 0.22,0.32 0.01,0.03 0.74,0.98 1.1,0.99 0.08,0.51 4,1.06 4.09,0.55 1.08,-0.02 2.27,-2.97 4.26,-3.09 0.04,-0.12 2.14,-1.36 2.46,-1.63 0.1,-0.09 0.72,-0.64 0.75,-0.74z"/>
    </g>
    <path class="fil7" d="M129.34 110.05c0.9,-0.46 1.75,-0.93 2.56,-1.4l1.35 -0.79 -0.72 1.39c-1.27,2.48 -2.74,4.86 -4.38,7.11 -1.66,2.26 -3.47,4.39 -5.44,6.35 -2.38,2.38 -4.98,4.54 -7.77,6.44 -2.77,1.88 -5.71,3.52 -8.82,4.87l-3.32 1.44 2.86 -2.22c1.58,-1.22 3.09,-2.57 4.53,-4.04 1.44,-1.47 2.81,-3.06 4.1,-4.76 1.21,-1.59 2.35,-3.28 3.41,-5.06 1.05,-1.76 2.03,-3.62 2.92,-5.55l0.08 -0.18 0.19 -0.06c1.01,-0.35 1.98,-0.7 2.92,-1.07 0.96,-0.38 1.88,-0.76 2.76,-1.15 0.93,-0.42 1.85,-0.86 2.77,-1.32zm-20.62 6.78c2.62,-0.52 5.13,-1.12 7.52,-1.79l1.02 -0.29 -0.5 0.94c-0.68,1.28 -1.4,2.52 -2.16,3.71 -0.77,1.19 -1.57,2.35 -2.41,3.45 -2.68,3.53 -5.73,6.57 -9.07,9 -3.28,2.39 -6.83,4.2 -10.58,5.31l-1.46 0.44 0.98 -1.16c1.25,-1.47 2.42,-3.24 3.51,-5.3 1.1,-2.08 2.12,-4.45 3.04,-7.06 0.31,-0.88 0.61,-1.79 0.9,-2.73 0.28,-0.93 0.56,-1.9 0.83,-2.9l0.08 -0.3 0.31 -0.03c2.75,-0.35 5.42,-0.78 7.99,-1.29zm-17.87 2.13c2.07,-0.1 4.1,-0.24 6.09,-0.43l0.67 -0.06 -0.19 0.64c-0.19,0.68 -0.41,1.38 -0.63,2.1 -0.22,0.69 -0.45,1.36 -0.67,2 -1.64,4.67 -3.55,8.45 -5.62,11.07 -2.05,2.6 -4.27,4.07 -6.59,4.18l-0.38 -0.01 -0.39 0c-2.26,-0.2 -4.44,-1.72 -6.45,-4.31 -2.03,-2.61 -3.9,-6.34 -5.51,-10.93 -0.25,-0.7 -0.48,-1.41 -0.7,-2.1 -0.23,-0.71 -0.45,-1.45 -0.67,-2.22l-0.18 -0.65 0.67 0.08c2.33,0.26 4.7,0.45 7.12,0.58 2.36,0.13 4.78,0.2 7.25,0.2 2.11,0 4.17,-0.05 6.18,-0.14zm-32.53 -2.61c2.61,0.58 5.35,1.08 8.19,1.48l0.29 0.05 0.08 0.29c0.28,1.05 0.57,2.07 0.87,3.04 0.3,0.98 0.61,1.94 0.94,2.87 0.92,2.61 1.94,4.98 3.04,7.06 1.09,2.06 2.26,3.83 3.5,5.3l0.99 1.16 -1.46 -0.44c-3.75,-1.11 -7.3,-2.92 -10.58,-5.31 -3.34,-2.43 -6.39,-5.47 -9.07,-9 -0.92,-1.21 -1.8,-2.47 -2.62,-3.78 -0.82,-1.32 -1.6,-2.69 -2.33,-4.1l-0.5 -0.97 1.04 0.33c2.42,0.75 4.97,1.43 7.62,2.02zm-13.95 -4.3c0.52,0.22 1.07,0.43 1.65,0.66l0.18 0.07 0.08 0.17c0.93,2.1 1.96,4.12 3.08,6.03 1.13,1.92 2.35,3.75 3.65,5.46 0.88,1.17 1.81,2.28 2.77,3.34 0.95,1.06 1.95,2.07 2.97,3.02l2.87 2.65 -3.4 -1.92c-2.12,-1.2 -4.15,-2.55 -6.09,-4.02 -1.95,-1.48 -3.79,-3.08 -5.5,-4.8 -1.97,-1.96 -3.79,-4.09 -5.44,-6.35 -1.64,-2.25 -3.11,-4.63 -4.38,-7.11l-0.72 -1.39 1.35 0.79c0.81,0.47 1.66,0.94 2.56,1.4 0.92,0.46 1.84,0.9 2.77,1.32 0.51,0.22 1.04,0.45 1.6,0.68zm-5.66 -5.24c-1.53,-0.88 -2.92,-1.81 -4.17,-2.77l-0.11 -0.08 -0.04 -0.12c-1.15,-3.01 -2.04,-6.15 -2.63,-9.4 -0.58,-3.18 -0.89,-6.44 -0.89,-9.77l0.01 -1.19 0.65 0.31c1.11,0.54 2.3,1.06 3.54,1.56 1.25,0.5 2.56,0.98 3.92,1.43l0.61 0.2 0.92 0.29 0.01 0.33c0.15,3.74 0.58,7.4 1.26,10.93 0.69,3.61 1.66,7.08 2.86,10.38l0.36 1c-0.44,-0.2 -0.89,-0.39 -1.33,-0.59 -1.79,-0.79 -3.45,-1.63 -4.97,-2.51zm17.97 6.85c-2.86,-0.7 -5.58,-1.5 -8.11,-2.4l-0.18 -0.06 -0.08 -0.19c-1.44,-3.38 -2.61,-6.99 -3.47,-10.78 -0.84,-3.69 -1.38,-7.55 -1.61,-11.53l-0.03 -0.63 0.61 0.17c2.81,0.76 5.82,1.45 9.01,2.06 3.14,0.59 6.44,1.11 9.89,1.52l0.38 0.05 0.02 0.38c0.2,4.08 0.55,8.02 1.04,11.76 0.5,3.84 1.15,7.47 1.92,10.86l0.15 0.65 -0.66 -0.1c-3.09,-0.48 -6.06,-1.07 -8.88,-1.76zm20.24 2.96c-2.59,-0.15 -5.12,-0.38 -7.58,-0.68l-0.32 -0.04 -0.07 -0.3c-0.82,-3.39 -1.51,-7.06 -2.05,-10.94 -0.52,-3.8 -0.9,-7.8 -1.12,-11.97l-0.02 -0.53 0.52 0.06c2.95,0.29 5.98,0.51 9.08,0.66 3.02,0.15 6.13,0.23 9.31,0.23 2.82,0 5.57,-0.06 8.25,-0.18 2.74,-0.12 5.44,-0.29 8.09,-0.52l0.52 -0.05 -0.03 0.52c-0.22,4.18 -0.6,8.2 -1.14,12 -0.54,3.89 -1.24,7.56 -2.07,10.95l-0.08 0.32 -0.31 0.03c-2.14,0.22 -4.33,0.39 -6.56,0.5 -2.2,0.11 -4.43,0.17 -6.67,0.17 -2.62,0 -5.21,-0.08 -7.75,-0.23zm33.42 -2.42c-2.76,0.61 -5.67,1.12 -8.68,1.53l-0.65 0.09 0.15 -0.64c0.78,-3.4 1.44,-7.04 1.95,-10.89 0.5,-3.75 0.86,-7.71 1.06,-11.8l0.02 -0.39 0.39 -0.04c3.41,-0.37 6.69,-0.83 9.84,-1.38 3.18,-0.55 6.2,-1.19 9.05,-1.91l0.6 -0.15 -0.04 0.62c-0.26,4.05 -0.85,7.96 -1.74,11.69 -0.91,3.83 -2.14,7.48 -3.65,10.89l-0.08 0.19 -0.2 0.06c-2.52,0.8 -5.21,1.52 -8.02,2.13zm13.95 -4.29c-0.44,0.19 -0.92,0.38 -1.42,0.57l-0.96 0.37 0.37 -0.95c1.28,-3.34 2.31,-6.87 3.07,-10.54 0.73,-3.58 1.21,-7.31 1.39,-11.14l0.01 -0.33 0.32 -0.09c0.53,-0.15 1.08,-0.32 1.66,-0.5 0.59,-0.18 1.13,-0.35 1.62,-0.52 1.36,-0.45 2.67,-0.93 3.92,-1.43 1.24,-0.5 2.43,-1.02 3.54,-1.56l0.65 -0.31 0.01 1.19c0,3.33 -0.31,6.59 -0.89,9.77 -0.59,3.25 -1.48,6.39 -2.63,9.4l-0.05 0.12 -0.1 0.08c-1.25,0.96 -2.64,1.89 -4.17,2.77 -1.52,0.88 -3.18,1.72 -4.97,2.51 -0.48,0.22 -0.94,0.41 -1.37,0.59zm-89.03 -27.32c-1.43,-0.58 -2.75,-1.19 -3.97,-1.82l-0.27 -0.14 0.03 -0.3c0.34,-4.26 1.17,-8.38 2.45,-12.3 1.3,-4.02 3.07,-7.84 5.24,-11.39l0.24 -0.39 0.39 0.24c0.79,0.49 1.63,0.96 2.5,1.41 0.89,0.45 1.82,0.89 2.77,1.31l0.4 0.17 -0.15 0.41c-1.39,3.69 -2.48,7.61 -3.23,11.7 -0.73,3.99 -1.14,8.13 -1.18,12.39l-0.01 0.62c-0.06,-0.02 -0.64,-0.21 -0.65,-0.22 -1.62,-0.54 -3.14,-1.1 -4.56,-1.69zm17.22 4.96c-3.2,-0.63 -6.22,-1.35 -9.03,-2.15l-0.32 -0.09 -0.01 -0.64 0 0c0,-4.23 0.37,-8.34 1.06,-12.29 0.72,-4.06 1.78,-7.94 3.15,-11.6l0.16 -0.42 0.42 0.15c2.34,0.85 4.84,1.61 7.47,2.27 2.7,0.68 5.53,1.25 8.43,1.72l0.44 0.07 -0.06 0.44c-0.41,3.09 -0.73,6.31 -0.94,9.65 -0.21,3.24 -0.32,6.59 -0.32,10.01 0,0.76 0.01,1.43 0.01,2 0.01,0.66 0.02,1.33 0.04,2l0.01 0.53 -0.52 -0.07c-3.48,-0.43 -6.82,-0.96 -9.99,-1.58zm22.75 2.68c-3.14,-0.16 -6.21,-0.39 -9.18,-0.69l-0.4 -0.04 -0.01 -0.4c-0.02,-0.73 -0.03,-1.47 -0.04,-2.22 -0.02,-0.81 -0.02,-1.55 -0.02,-2.21 0,-3.34 0.1,-6.63 0.31,-9.82 0.2,-3.26 0.51,-6.42 0.92,-9.45l0.06 -0.45 0.44 0.06c2.79,0.36 5.66,0.63 8.55,0.82 2.91,0.18 5.86,0.27 8.81,0.27 2.61,0 5.21,-0.07 7.77,-0.21 2.55,-0.14 5.09,-0.36 7.58,-0.64l0.45 -0.05 0.05 0.44c0.4,3.01 0.7,6.13 0.9,9.34 0.2,3.15 0.3,6.39 0.3,9.69 0,0.69 -0.01,1.47 -0.02,2.31 -0.01,0.78 -0.03,1.55 -0.05,2.31l-0.01 0.41 -0.4 0.03c-2.67,0.24 -5.41,0.42 -8.19,0.55 -2.76,0.12 -5.56,0.18 -8.38,0.18 -3.19,0 -6.34,-0.08 -9.44,-0.23zm39.53 -2.29c-3.17,0.57 -6.5,1.05 -9.95,1.44l-0.51 0.05 0.01 -0.52c0.02,-0.71 0.03,-1.41 0.04,-2.12 0.01,-0.61 0.02,-1.32 0.02,-2.12 0,-3.37 -0.11,-6.66 -0.31,-9.85 -0.21,-3.28 -0.52,-6.46 -0.91,-9.51l-0.06 -0.45 0.44 -0.06c2.93,-0.42 5.77,-0.94 8.5,-1.56 2.66,-0.6 5.21,-1.3 7.6,-2.1l0.42 -0.14 0.15 0.41c1.3,3.58 2.3,7.36 2.97,11.32 0.66,3.84 1.01,7.84 1.01,11.94l-0.01 1.21 -0.34 0.08c-2.84,0.75 -5.87,1.41 -9.07,1.98zm13.72 -3.32c-0.36,0.12 -0.72,0.23 -1.07,0.33l-0.59 0.18 0 -0.61c0,-4.23 -0.37,-8.35 -1.06,-12.32 -0.7,-4.08 -1.74,-7.99 -3.08,-11.68l-0.15 -0.42 0.41 -0.16c1.32,-0.52 2.57,-1.07 3.74,-1.65 1.15,-0.56 2.25,-1.16 3.29,-1.8l0.39 -0.24 0.24 0.39c2.17,3.55 3.94,7.37 5.24,11.39 1.28,3.92 2.11,8.04 2.45,12.3l0.03 0.3 -0.27 0.14c-1.22,0.63 -2.54,1.24 -3.97,1.82 -1.42,0.59 -2.94,1.15 -4.56,1.69 -0.35,0.12 -0.69,0.23 -1.04,0.34zm-32.91 -46.42c-1.09,-2.06 -2.26,-3.83 -3.51,-5.3l-0.98 -1.16 1.46 0.44c3.75,1.11 7.3,2.92 10.58,5.31 3.34,2.43 6.39,5.47 9.07,9 1.31,1.72 2.53,3.56 3.65,5.51 1.12,1.94 2.14,3.98 3.05,6.1l0.2 0.45 -0.47 0.16c-2.29,0.76 -4.74,1.42 -7.31,2 -2.61,0.59 -5.35,1.08 -8.16,1.48l-0.44 0.07 -0.07 -0.44c-0.49,-3.09 -1.08,-6.03 -1.75,-8.79 -0.68,-2.78 -1.44,-5.38 -2.28,-7.77 -0.92,-2.61 -1.94,-4.98 -3.04,-7.06zm-29.13 14.69c-0.66,2.71 -1.24,5.6 -1.73,8.62l-0.08 0.45 -0.44 -0.07c-2.81,-0.45 -5.52,-0.99 -8.09,-1.64 -2.53,-0.62 -4.92,-1.35 -7.17,-2.16l-0.45 -0.17 0.19 -0.44c0.89,-2 1.87,-3.93 2.95,-5.77 1.07,-1.83 2.24,-3.58 3.49,-5.22 2.68,-3.53 5.73,-6.57 9.07,-9 3.28,-2.39 6.83,-4.2 10.58,-5.31l1.46 -0.44 -0.99 1.16c-1.24,1.47 -2.41,3.24 -3.5,5.3 -1.1,2.08 -2.12,4.45 -3.04,7.06 -0.83,2.35 -1.58,4.9 -2.25,7.63zm17.43 -24.66l-0.22 0c-0.58,0 -1.14,0.01 -1.68,0.04 -0.55,0.02 -1.11,0.07 -1.66,0.12l-0.01 0c-6.82,0.52 -13.29,2.26 -19.21,4.98 -6.11,2.82 -11.63,6.69 -16.33,11.39 -5.21,5.2 -9.4,11.42 -12.26,18.32 -2.75,6.65 -4.27,13.94 -4.27,21.59 0,7.65 1.52,14.94 4.27,21.59 2.86,6.9 7.05,13.12 12.26,18.32 4.7,4.7 10.22,8.57 16.33,11.39 5.92,2.72 12.39,4.46 19.21,4.98l0.01 0c0.55,0.05 1.11,0.1 1.67,0.12 0.53,0.03 1.09,0.04 1.67,0.04l0.22 0c0.17,0 0.34,0 0.52,0l0.28 0c7.65,0 14.94,-1.52 21.59,-4.27 6.9,-2.86 13.12,-7.05 18.32,-12.26 5.21,-5.2 9.4,-11.42 12.26,-18.32 2.75,-6.65 4.27,-13.94 4.27,-21.59 0,-7.65 -1.52,-14.94 -4.27,-21.59 -2.86,-6.9 -7.05,-13.12 -12.26,-18.32 -5.2,-5.21 -11.42,-9.4 -18.32,-12.26 -6.65,-2.75 -13.94,-4.27 -21.59,-4.27l-0.28 0c-0.18,0 -0.35,0 -0.52,0zm26.32 11.91c-1.44,-1.47 -2.95,-2.82 -4.53,-4.04l-2.86 -2.22 3.32 1.44c3.1,1.35 6.05,2.99 8.82,4.87 2.79,1.9 5.39,4.06 7.77,6.44 1.07,1.07 2.11,2.2 3.11,3.39 0.99,1.18 1.93,2.39 2.81,3.64l0.28 0.39 -0.42 0.25c-0.96,0.59 -1.98,1.14 -3.06,1.67 -1.09,0.54 -2.25,1.04 -3.45,1.52l-0.41 0.16 -0.17 -0.4c-0.97,-2.27 -2.05,-4.44 -3.23,-6.49 -1.19,-2.07 -2.49,-4.03 -3.88,-5.86 -1.29,-1.7 -2.66,-3.29 -4.1,-4.76zm-60.87 10.29c-1.13,1.94 -2.17,3.98 -3.11,6.1l-0.18 0.42 -0.41 -0.19c-0.87,-0.38 -1.7,-0.77 -2.5,-1.18 -0.79,-0.41 -1.54,-0.83 -2.27,-1.28l-0.42 -0.25 0.28 -0.39c0.88,-1.25 1.82,-2.46 2.81,-3.64 1,-1.19 2.04,-2.32 3.11,-3.39 1.71,-1.72 3.55,-3.32 5.5,-4.8 1.94,-1.47 3.97,-2.82 6.09,-4.02l3.4 -1.92 -2.87 2.65c-1.02,0.95 -2.02,1.96 -2.97,3.02 -0.96,1.06 -1.89,2.17 -2.77,3.34 -1.31,1.72 -2.54,3.57 -3.69,5.53zm34.21 -19.54l0.38 -0.01c2.32,0.11 4.54,1.58 6.59,4.18 2.07,2.62 3.98,6.4 5.62,11.07 0.81,2.3 1.55,4.81 2.2,7.5 0.65,2.67 1.22,5.51 1.69,8.49l0.08 0.47 -0.47 0.05c-2.42,0.27 -4.89,0.47 -7.38,0.61 -2.52,0.14 -5.05,0.21 -7.57,0.21 -2.87,0 -5.76,-0.09 -8.61,-0.27 -2.82,-0.18 -5.61,-0.44 -8.35,-0.79l-0.46 -0.06 0.07 -0.46c0.48,-2.94 1.04,-5.73 1.68,-8.36 0.65,-2.64 1.38,-5.12 2.18,-7.39 1.61,-4.59 3.48,-8.32 5.51,-10.93 2.01,-2.59 4.19,-4.11 6.45,-4.31l0.39 0z"/>
   </g>
   <g id="Book">
    <polygon class="fil8" points="111.72,49.39 44.1,69.81 77.26,118.77 113.28,102.86 116.72,101.72 145.89,89.92 "/>
    <path class="fil9 str0" d="M44.1 69.81l32.02 50.14 35.37 -15.63c1.67,-0.55 4.37,-0.84 6.2,-2.6l28.71 -11.6 -34.68 -40.73 33.32 40.19 -30.6 12.08 -2.38 0 -34.72 15.14 -32.09 -47.13 30.29 -9.35 -31.44 9.49z"/>
    <path class="fil9 str0" d="M84.54 65l27.26 32.99c-0.89,-0.59 -1.29,-0.59 -2.3,-0.33l-24.96 -32.66z"/>
    <path class="fil9 str0" d="M142.5 87.84c-17.14,5.29 -10.34,-2.49 -30.7,10.15 11.29,-11.66 11.98,-7.27 29.81,-9.88l-20.8 -24.8c-0.01,-0.01 21.67,24.53 21.69,24.53z"/>
    <path class="fil9 str0" d="M77.11 110.45c10.09,-5.02 23.03,-9.65 32.39,-12.79 -8.15,2.28 -22.06,7.21 -31.82,11.85l-26.96 -39.13c9.69,14.65 16.7,25.42 26.39,40.07z"/>
   </g>
   <g id="Torch">
    <path class="fil10" d="M63.68 86.76l-2.39 0c1.39,-2.03 1.81,-5.09 -1.13,-9.62 0,0 -0.68,0.9 -0.82,2.53 -2.31,-1.51 4.58,-9.46 -6.66,-13.64 3.87,5.75 -6.13,4.82 -5.8,13.96 -0.71,-0.5 -1,-1.59 -0.87,-3.73 -0.8,0.71 -4.4,5.81 -1.27,10.5l-2.51 0c-1.94,-1.35 -3.88,-3.26 -4.71,-5.91 -0.91,-2.94 -0.36,-6.42 1.64,-10.37 0.05,0.28 0.09,0.58 0.11,0.9l0.25 2.87 2.41 -1.58c2.3,-1.51 1.82,-4.38 1.3,-7.41 -0.86,-5.12 -1.92,-11.34 6.84,-16.05 -0.61,3.87 2.32,6.29 4.98,8.48 3.59,2.96 7.66,6.31 7.38,14.07l-0.12 3.14 2.71 -1.59c0.96,-0.57 1.67,-1.81 2.1,-3.29 0.96,2 1.77,4.6 1.61,7.43 -0.2,3.51 -1.9,6.63 -5.05,9.31z"/>
    <path class="fil11" d="M59.42 101.33l-5.35 34.58 -0.72 0 2.66 -33.29c1.21,-0.28 2.35,-0.72 3.41,-1.29zm-6.93 34.58l-0.72 0 -5.35 -34.58c1.06,0.57 2.2,1.01 3.41,1.29l2.66 33.29zm2.44 -37.98c-0.63,0.41 -1.29,0.74 -2,1.01 -0.57,0.21 -1.17,0.38 -1.79,0.49 0.58,0.11 1.19,0.16 1.8,0.16 1.18,0 2.31,-0.2 3.36,-0.56 0.09,-0.03 0.17,-0.06 0.26,-0.09 3.27,-1.23 5.74,-4.07 6.46,-7.55l1.7 0c-0.54,3.08 -2.26,5.76 -4.67,7.55 -0.42,0.31 -0.85,0.58 -1.3,0.84 -0.59,0.33 -1.21,0.61 -1.86,0.84 -0.24,0.08 -0.49,0.16 -0.74,0.23 -1.03,0.29 -2.11,0.44 -3.23,0.44 -1.12,0 -2.2,-0.15 -3.23,-0.44 -0.25,-0.07 -0.5,-0.15 -0.74,-0.23 -0.65,-0.23 -1.27,-0.51 -1.86,-0.84 -0.45,-0.26 -0.88,-0.53 -1.3,-0.84 -2.41,-1.79 -4.13,-4.47 -4.67,-7.55l18.28 0c-0.56,2.73 -2.21,5.07 -4.47,6.54zm-15.59 -9.5l27.16 0c0.36,0 0.64,0.29 0.64,0.64 0,0.33 -0.25,0.6 -0.57,0.63 -0.02,0.01 -0.04,0.01 -0.07,0.01l-27.16 0c-0.03,0 -0.05,0 -0.07,-0.01 -0.32,-0.03 -0.57,-0.3 -0.57,-0.63 0,-0.35 0.28,-0.64 0.64,-0.64z"/>
    <path class="fil12" d="M39.34 86.76l0.11 0c-3.95,-3.58 -6.76,-9.82 0.02,-20.24 0,0 1.26,1.68 1.52,4.71 4.3,-2.82 -8.51,-17.58 12.37,-25.36 -7.19,10.7 11.41,8.95 10.79,25.95 1.11,-0.65 2.16,-4.12 1.6,-6.93 1.64,1.42 9.47,12.59 0.45,21.87l0.3 0c1.28,0 2.32,1.03 2.32,2.31 0,1.28 -1.04,2.32 -2.32,2.32l-0.07 0c-0.54,3.52 -2.43,6.6 -5.12,8.7l-5.8 37.5 -5.18 0 -5.8 -37.5c-2.69,-2.1 -4.58,-5.18 -5.12,-8.7l-0.07 0c-1.28,0 -2.32,-1.04 -2.32,-2.32 0,-1.28 1.04,-2.31 2.32,-2.31zm29.39 -9.31c0.16,-2.83 -0.65,-5.43 -1.61,-7.43 -0.43,1.48 -1.14,2.72 -2.1,3.29l-2.71 1.59 0.12 -3.14c0.28,-7.76 -3.79,-11.11 -7.38,-14.07 -2.66,-2.19 -5.59,-4.61 -4.98,-8.48 -8.76,4.71 -7.7,10.93 -6.84,16.05 0.52,3.03 1,5.9 -1.3,7.41l-2.41 1.58 -0.25 -2.87c-0.02,-0.32 -0.06,-0.62 -0.11,-0.9 -2,3.95 -2.55,7.43 -1.64,10.37 0.83,2.65 2.77,4.56 4.71,5.91l2.51 0c-3.13,-4.69 0.47,-9.79 1.27,-10.5 -0.13,2.14 0.16,3.23 0.87,3.73 -0.33,-9.14 9.67,-8.21 5.8,-13.96 11.24,4.18 4.35,12.13 6.66,13.64 0.14,-1.63 0.82,-2.53 0.82,-2.53 2.94,4.53 2.52,7.59 1.13,9.62l2.39 0c3.15,-2.68 4.85,-5.8 5.05,-9.31zm-14.66 58.46l5.35 -34.58c-1.06,0.57 -2.2,1.01 -3.41,1.29l-2.66 33.29 0.72 0zm-2.3 0l0.72 0 -2.66 -33.29c-1.21,-0.28 -2.35,-0.72 -3.41,-1.29l5.35 34.58zm-5.98 -36.97c0.42,0.31 0.85,0.58 1.3,0.84 0.59,0.33 1.21,0.61 1.86,0.84 0.24,0.08 0.49,0.16 0.74,0.23 1.03,0.29 2.11,0.44 3.23,0.44 1.12,0 2.2,-0.15 3.23,-0.44 0.25,-0.07 0.5,-0.15 0.74,-0.23 0.65,-0.23 1.27,-0.51 1.86,-0.84 0.45,-0.26 0.88,-0.53 1.3,-0.84 2.41,-1.79 4.13,-4.47 4.67,-7.55l-1.7 0c-0.72,3.48 -3.19,6.32 -6.46,7.55 -0.09,0.03 -0.17,0.06 -0.26,0.09 -1.05,0.36 -2.18,0.56 -3.36,0.56 -0.61,0 -1.22,-0.05 -1.8,-0.16 0.62,-0.11 1.22,-0.28 1.79,-0.49 0.71,-0.27 1.37,-0.6 2,-1.01 2.26,-1.47 3.91,-3.81 4.47,-6.54l-18.28 0c0.54,3.08 2.26,5.76 4.67,7.55zm-6.52 -9.24c0.02,0.01 0.04,0.01 0.07,0.01l27.16 0c0.03,0 0.05,0 0.07,-0.01 0.32,-0.03 0.57,-0.3 0.57,-0.63 0,-0.35 -0.28,-0.64 -0.64,-0.64l-27.16 0c-0.36,0 -0.64,0.29 -0.64,0.64 0,0.33 0.25,0.6 0.57,0.63z"/>
   </g>
   <path class="fil13" d="M78.02 80.19l0.6 4.16c0.24,-0.07 0.43,-0.12 0.57,-0.18 0.2,-0.09 0.44,-0.23 0.71,-0.44l0.08 0.38c-0.3,0.2 -0.52,0.34 -0.7,0.41 -0.19,0.08 -0.46,0.17 -0.84,0.28 -0.32,0.1 -0.59,0.19 -0.8,0.28 -0.38,0.16 -0.79,0.39 -1.24,0.7l-0.06 -0.43c0.47,-0.35 0.75,-0.63 0.85,-0.81 0.15,-0.3 0.18,-0.73 0.1,-1.3l-0.65 -4.36c-0.09,-0.56 -0.15,-0.88 -0.19,-0.97 -0.03,-0.09 -0.08,-0.14 -0.16,-0.16 -0.08,-0.01 -0.2,0.02 -0.37,0.09l-0.05 -0.37c0.47,-0.2 1.01,-0.53 1.61,-0.97 0.02,0.19 0.06,0.49 0.11,0.88l0.34 2.32c0.24,-0.06 0.44,-0.12 0.6,-0.18 0.58,-0.24 1,-0.66 1.25,-1.24 0.24,-0.59 0.25,-1.16 0.02,-1.73 -0.18,-0.44 -0.51,-0.73 -0.95,-0.87 -0.46,-0.15 -0.98,-0.09 -1.56,0.15 -0.74,0.3 -1.38,0.78 -1.95,1.43 -0.55,0.65 -0.89,1.32 -1.03,1.99 -0.13,0.68 -0.08,1.31 0.16,1.89 0.18,0.44 0.52,0.74 1.01,0.9 0.24,0.09 0.41,0.15 0.48,0.21 0.07,0.05 0.12,0.12 0.16,0.2 0.04,0.09 0.03,0.19 -0.01,0.31 -0.04,0.09 -0.11,0.16 -0.21,0.21 -0.26,0.1 -0.54,0.05 -0.87,-0.16 -0.41,-0.29 -0.74,-0.72 -0.97,-1.28 -0.3,-0.72 -0.38,-1.49 -0.24,-2.28 0.14,-0.78 0.53,-1.56 1.17,-2.31 0.64,-0.75 1.42,-1.31 2.32,-1.68 0.84,-0.35 1.59,-0.48 2.26,-0.38 0.68,0.09 1.14,0.44 1.4,1.06 0.24,0.58 0.21,1.23 -0.07,1.93 -0.29,0.71 -0.85,1.31 -1.65,1.81 0.39,0.35 0.65,0.58 0.78,0.71 0.19,0.21 0.52,0.57 0.97,1.1 1.06,1.21 1.97,2 2.71,2.36 0.56,0.27 1.05,0.31 1.49,0.13 0.46,-0.19 0.66,-0.51 0.62,-0.97 -0.03,-0.29 -0.02,-0.48 0.01,-0.57 0.06,-0.12 0.14,-0.21 0.26,-0.25 0.11,-0.05 0.23,-0.04 0.33,0 0.11,0.05 0.2,0.13 0.24,0.24 0.12,0.29 0.07,0.64 -0.13,1.04 -0.22,0.39 -0.58,0.69 -1.08,0.9 -0.46,0.19 -0.94,0.26 -1.45,0.22 -0.51,-0.05 -1.07,-0.24 -1.67,-0.59 -0.6,-0.33 -1.19,-0.79 -1.77,-1.38 -0.29,-0.29 -0.78,-0.85 -1.45,-1.68 -0.41,-0.5 -0.66,-0.8 -0.74,-0.89l-0.18 0.05c-0.04,0.02 -0.1,0.05 -0.17,0.09z"/>
   <path id="_1_4" class="fil13" d="M85.42 74.89c0.46,-0.2 0.93,-0.17 1.39,0.07 0.45,0.24 0.82,0.69 1.09,1.34 0.43,1.05 0.46,2.14 0.06,3.28 -0.38,1.14 -0.99,1.87 -1.82,2.22 -0.5,0.2 -0.97,0.21 -1.43,0 -0.43,-0.19 -0.78,-0.58 -1.02,-1.15 -0.41,-0.99 -0.5,-2.03 -0.28,-3.1 0.28,-1.34 0.95,-2.22 2.01,-2.66zm-0.38 0.78c-0.4,0.17 -0.66,0.61 -0.81,1.34 -0.13,0.73 0.01,1.59 0.43,2.6 0.26,0.62 0.57,1.05 0.94,1.31 0.28,0.19 0.56,0.22 0.84,0.1 0.39,-0.16 0.66,-0.55 0.78,-1.17 0.15,-0.81 0.03,-1.68 -0.36,-2.62 -0.3,-0.72 -0.6,-1.19 -0.92,-1.4 -0.31,-0.23 -0.61,-0.28 -0.9,-0.16z"/>
   <path id="_2_5" class="fil13" d="M88.58 75.51l-0.33 -0.2c0.28,-0.66 0.58,-1.19 0.9,-1.58 0.33,-0.39 0.61,-0.64 0.86,-0.75 0.09,-0.03 0.18,-0.05 0.25,-0.02 0.07,0.02 0.12,0.07 0.15,0.15 0.04,0.08 0.07,0.28 0.1,0.56 0.06,0.45 0.11,0.79 0.16,1.04 0.67,-1.6 1.3,-2.54 1.89,-2.78 0.16,-0.07 0.3,-0.07 0.42,-0.02 0.11,0.06 0.21,0.18 0.29,0.37 0.08,0.2 0.15,0.56 0.2,1.09 0.31,-0.79 0.6,-1.38 0.9,-1.78 0.3,-0.4 0.56,-0.64 0.78,-0.73 0.19,-0.08 0.37,-0.09 0.53,-0.03 0.15,0.08 0.28,0.22 0.38,0.46 0.05,0.14 0.09,0.32 0.13,0.53 0.03,0.22 0.11,0.87 0.22,1.98 0.12,1.36 0.24,2.17 0.34,2.4 0.07,0.17 0.16,0.22 0.3,0.16 0.08,-0.04 0.16,-0.1 0.22,-0.19 0.2,-0.31 0.38,-0.68 0.56,-1.1l0.33 0.17c-0.06,0.12 -0.18,0.36 -0.35,0.73 -0.23,0.49 -0.4,0.81 -0.51,0.96 -0.21,0.27 -0.4,0.44 -0.59,0.52 -0.15,0.06 -0.3,0.04 -0.46,-0.05 -0.17,-0.09 -0.3,-0.26 -0.4,-0.5 -0.09,-0.23 -0.17,-0.5 -0.23,-0.84 -0.06,-0.33 -0.15,-1.08 -0.27,-2.27 -0.09,-0.89 -0.17,-1.42 -0.24,-1.59 -0.06,-0.15 -0.17,-0.21 -0.31,-0.15 -0.12,0.05 -0.25,0.17 -0.4,0.37 -0.3,0.42 -0.52,0.86 -0.64,1.32 -0.09,0.32 -0.09,0.77 -0.02,1.36 0.17,1.28 0.32,2.32 0.46,3.12l-1 0.42 -0.74 -4.76c-0.05,-0.34 -0.09,-0.54 -0.11,-0.59 -0.03,-0.06 -0.07,-0.1 -0.11,-0.11 -0.06,-0.02 -0.12,-0.02 -0.18,0.01 -0.13,0.05 -0.29,0.24 -0.48,0.54 -0.33,0.53 -0.53,0.99 -0.61,1.38 -0.07,0.4 -0.05,0.94 0.06,1.64l0.44 2.6 -1.01 0.42 -0.6 -3.7c-0.16,-1.08 -0.27,-1.65 -0.31,-1.74 -0.04,-0.1 -0.09,-0.13 -0.18,-0.1 -0.18,0.08 -0.45,0.51 -0.79,1.28z"/>
   <path id="_3_6" class="fil13" d="M101.46 68.1l0.43 -0.28 0.21 2c0.08,0.8 0.23,1.7 0.42,2.71 0.11,0.54 0.19,0.89 0.26,1.03 0.06,0.15 0.14,0.2 0.26,0.15 0.07,-0.02 0.16,-0.13 0.29,-0.29 0.22,-0.29 0.41,-0.62 0.57,-0.98l0.35 0.18c-0.34,0.7 -0.56,1.14 -0.67,1.31 -0.23,0.33 -0.44,0.6 -0.68,0.8 -0.15,0.14 -0.31,0.25 -0.48,0.32 -0.12,0.05 -0.23,0.06 -0.3,0.03 -0.09,-0.03 -0.15,-0.1 -0.2,-0.21 -0.03,-0.06 -0.05,-0.17 -0.06,-0.31l-0.11 -1.07c-0.21,0.65 -0.53,1.27 -0.93,1.85 -0.26,0.35 -0.54,0.6 -0.82,0.72 -0.28,0.11 -0.52,0.09 -0.75,-0.03 -0.3,-0.19 -0.54,-0.48 -0.72,-0.9 -0.21,-0.5 -0.31,-1.11 -0.29,-1.84 0.01,-0.72 0.13,-1.42 0.38,-2.11 0.24,-0.68 0.55,-1.24 0.95,-1.69 0.31,-0.33 0.76,-0.63 1.36,-0.88 0.15,-0.06 0.31,-0.11 0.46,-0.16l0.07 -0.35zm-0.43 1.46c-0.27,0.05 -0.49,0.11 -0.67,0.19 -0.42,0.17 -0.74,0.45 -0.96,0.81 -0.22,0.36 -0.34,0.91 -0.36,1.62 -0.01,0.72 0.1,1.38 0.35,1.99 0.13,0.31 0.28,0.52 0.44,0.62 0.17,0.1 0.35,0.11 0.52,0.04 0.32,-0.13 0.6,-0.45 0.82,-0.96 0.23,-0.5 0.29,-1.13 0.19,-1.86l-0.33 -2.45z"/>
   <path id="_4_7" class="fil13" d="M103.66 69.3l-0.35 -0.15c0.37,-0.82 0.7,-1.41 0.98,-1.75 0.28,-0.34 0.55,-0.56 0.81,-0.67 0.1,-0.04 0.18,-0.05 0.27,-0.03 0.07,0.01 0.11,0.05 0.14,0.11 0.02,0.04 0.03,0.12 0.06,0.24l0.26 1.56c0.26,-0.74 0.65,-1.49 1.18,-2.25 0.29,-0.4 0.56,-0.65 0.81,-0.75 0.18,-0.08 0.35,-0.08 0.5,0 0.15,0.06 0.28,0.22 0.37,0.43 0.06,0.15 0.1,0.32 0.13,0.53 0.05,0.33 0.13,1.08 0.24,2.24 0.1,1.08 0.22,1.79 0.35,2.1 0.03,0.1 0.09,0.17 0.13,0.21 0.05,0.03 0.1,0.04 0.16,0.02 0.13,-0.06 0.29,-0.27 0.47,-0.66 0.13,-0.28 0.26,-0.54 0.41,-0.79l0.26 0.2c-0.23,0.66 -0.52,1.22 -0.86,1.71 -0.22,0.3 -0.42,0.5 -0.61,0.58 -0.19,0.07 -0.35,0.07 -0.5,-0.03 -0.15,-0.08 -0.29,-0.28 -0.41,-0.57 -0.18,-0.43 -0.35,-1.57 -0.51,-3.46 -0.09,-0.66 -0.15,-1.04 -0.19,-1.13 -0.06,-0.15 -0.17,-0.18 -0.35,-0.11 -0.18,0.08 -0.39,0.28 -0.61,0.6 -0.32,0.48 -0.55,0.97 -0.68,1.48 -0.08,0.34 -0.08,0.81 0.03,1.42l0.45 2.7 -1.05 0.44c-0.1,-0.79 -0.2,-1.54 -0.32,-2.24l-0.5 -2.94c-0.01,-0.13 -0.04,-0.2 -0.05,-0.25 -0.05,-0.12 -0.13,-0.17 -0.22,-0.13 -0.07,0.03 -0.16,0.13 -0.27,0.29 -0.21,0.31 -0.38,0.67 -0.53,1.05z"/>
   <path id="_5_8" class="fil13" d="M112.53 63.66c0.41,-0.17 0.77,-0.22 1.07,-0.15 0.3,0.06 0.49,0.21 0.58,0.42 0.05,0.13 0.05,0.26 -0.01,0.39 -0.06,0.13 -0.16,0.23 -0.29,0.28 -0.09,0.04 -0.17,0.05 -0.26,0.05 -0.09,-0.02 -0.22,-0.09 -0.41,-0.19 -0.35,-0.21 -0.65,-0.27 -0.87,-0.18 -0.19,0.08 -0.34,0.22 -0.43,0.43 -0.08,0.21 -0.08,0.43 0.01,0.65 0.08,0.19 0.21,0.36 0.37,0.51 0.17,0.13 0.53,0.33 1.08,0.58 0.76,0.33 1.23,0.75 1.44,1.25 0.2,0.49 0.17,1.02 -0.1,1.57 -0.27,0.55 -0.74,0.97 -1.4,1.24 -0.56,0.23 -1.03,0.3 -1.4,0.18 -0.36,-0.12 -0.62,-0.34 -0.75,-0.67 -0.07,-0.17 -0.08,-0.33 -0.02,-0.47 0.06,-0.16 0.16,-0.26 0.31,-0.33 0.13,-0.05 0.26,-0.05 0.39,-0.01 0.13,0.06 0.22,0.14 0.27,0.25 0.02,0.06 0.04,0.11 0.06,0.19 0.03,0.06 0.05,0.12 0.07,0.16 0.06,0.15 0.18,0.26 0.36,0.31 0.17,0.06 0.37,0.03 0.59,-0.06 0.26,-0.1 0.46,-0.23 0.62,-0.41 0.16,-0.16 0.25,-0.36 0.29,-0.58 0.04,-0.22 0.02,-0.42 -0.05,-0.6 -0.07,-0.16 -0.2,-0.31 -0.37,-0.44 -0.17,-0.12 -0.52,-0.31 -1.03,-0.55 -0.73,-0.35 -1.18,-0.76 -1.39,-1.27 -0.19,-0.46 -0.18,-0.95 0.05,-1.44 0.24,-0.5 0.64,-0.87 1.22,-1.11z"/>
   <path id="_6_9" class="fil13" d="M95.7 86.12l0.24 -0.1 0.59 4.22 0.65 3.89c0.04,0.33 0.08,0.54 0.13,0.65 0.03,0.07 0.09,0.12 0.2,0.15 0.1,0.01 0.29,-0.03 0.59,-0.12 0.23,-0.06 0.44,-0.13 0.67,-0.17l0 0.4c-1.06,0.32 -1.79,0.56 -2.2,0.73 -0.58,0.24 -1.19,0.56 -1.84,0.94l-0.02 -0.39c0.22,-0.17 0.47,-0.35 0.77,-0.55 0.28,-0.19 0.45,-0.37 0.52,-0.55 0.09,-0.23 0.08,-0.69 -0.01,-1.38l-0.45 -3.24c-0.21,-1.22 -0.34,-1.9 -0.4,-2.05 -0.07,-0.17 -0.18,-0.22 -0.31,-0.17 -0.11,0.05 -0.5,0.44 -1.19,1.15l-0.29 -0.28c0.99,-1.09 1.58,-1.78 1.78,-2.09 0.19,-0.31 0.38,-0.65 0.57,-1.04z"/>
   <path id="_7_10" class="fil13" d="M99.95 87.49c0.18,-0.08 0.37,-0.08 0.54,0.01 0.19,0.08 0.33,0.23 0.41,0.43 0.13,0.32 0.16,0.59 0.08,0.83 -0.08,0.22 -0.22,0.39 -0.44,0.48 -0.19,0.08 -0.36,0.08 -0.55,0 -0.17,-0.08 -0.3,-0.22 -0.39,-0.42 -0.12,-0.3 -0.14,-0.59 -0.06,-0.88 0.06,-0.21 0.2,-0.37 0.41,-0.45zm0.79 4.76c0.18,-0.08 0.36,-0.08 0.55,0.01 0.17,0.09 0.31,0.23 0.4,0.45 0.13,0.3 0.15,0.57 0.08,0.81 -0.07,0.22 -0.22,0.39 -0.44,0.48 -0.19,0.08 -0.37,0.08 -0.54,0 -0.19,-0.07 -0.32,-0.21 -0.41,-0.42 -0.12,-0.29 -0.13,-0.59 -0.05,-0.87 0.06,-0.22 0.2,-0.38 0.41,-0.46z"/>
   <path id="_8_11" class="fil13" d="M106.92 81.34l0.39 -0.16 -0.07 1.25c-0.02,0.09 -0.07,0.18 -0.15,0.26 -0.09,0.09 -0.3,0.2 -0.64,0.34 -1,0.41 -1.68,0.71 -2.01,0.92 0,0.24 0.01,0.43 0.02,0.58 0.01,0.16 0.04,0.27 0.06,0.34 0.08,0.18 0.28,0.27 0.61,0.28 0.58,-0.01 1.02,0.05 1.31,0.16 0.29,0.1 0.55,0.28 0.8,0.52 0.25,0.25 0.45,0.57 0.61,0.96 0.42,1 0.39,2.07 -0.08,3.18 -0.46,1.11 -1.18,1.87 -2.15,2.27 -0.45,0.19 -0.84,0.26 -1.14,0.21 -0.21,-0.03 -0.35,-0.16 -0.43,-0.34 -0.05,-0.13 -0.06,-0.25 -0.02,-0.36 0.04,-0.11 0.12,-0.19 0.22,-0.23 0.06,-0.03 0.12,-0.04 0.17,-0.04 0.04,-0.01 0.15,0.01 0.35,0.05 0.25,0.06 0.44,0.07 0.58,0.06 0.14,-0.01 0.29,-0.05 0.46,-0.12 0.65,-0.28 1.12,-0.78 1.41,-1.55 0.29,-0.76 0.3,-1.48 0.02,-2.14 -0.18,-0.45 -0.48,-0.8 -0.88,-1.05 -0.4,-0.26 -0.88,-0.38 -1.44,-0.37 -0.22,-0.01 -0.4,-0.03 -0.5,-0.09 -0.1,-0.06 -0.17,-0.14 -0.22,-0.26 -0.06,-0.14 -0.1,-0.48 -0.15,-1.03l-0.15 -1.7c0.15,-0.17 0.36,-0.32 0.66,-0.47l1.49 -0.66c0.35,-0.15 0.56,-0.28 0.65,-0.38 0.1,-0.1 0.17,-0.25 0.22,-0.43z"/>
   <g id="Dove">
    <path class="fil8" d="M93.61 35.69c11.9,0.29 12.67,-0.01 16.98,-4.51 0.46,1.7 -0.44,1.57 -0.36,2.39 0.41,1.63 -3.32,6.35 -6.64,7.65 -0.15,0.43 -0.83,0.77 -1.67,0.69 -1.23,0.86 -2.26,0.55 -3.6,0.43 -0.45,1.27 -1.95,2.34 -2.8,2.47l-2.59 0c-1.28,1.65 -1.18,1.48 -3.23,1.42 -0.14,1.19 -1.94,0.79 -4.78,0.49 -0.07,0.14 -0.15,0.28 -0.22,0.42l-1.36 1.78 3.92 5.33c-4.89,5.48 -17.47,5.11 -20.55,-2.65 2.92,0.07 6.98,-1.77 8.51,-3.77 0.19,-0.31 0.39,-0.6 0.57,-0.89 -0.17,-0.11 -0.32,-0.25 -0.48,-0.44 -2.05,0.05 -2.31,-0.04 -3.6,-1.69l-1.95 0c-0.85,-0.13 -2.29,-1.15 -2.97,-2.24 -1.35,0.12 -1.59,0.21 -2.83,-0.65 -0.84,0.08 -2.01,-0.21 -2.33,-0.89 -3.32,-1.31 -7.28,-6.02 -6.87,-7.64 -0.03,-1.01 -0.8,-1.22 -0.34,-2.92 9.28,11.43 23.33,-0.62 25.14,9l0.73 0.44c0.76,-1.48 1.45,-3.15 2.06,-5.27 0.69,-2.07 2.39,-2.1 3.21,-0.24l1.08 1.26c0.13,0.11 -0.59,0.17 -1.36,0.18 -0.36,0 -0.13,0.49 -0.13,0.79 0.18,0.55 0.41,1.09 0.53,1.62 1.81,-3.43 6.93,-0.93 7.93,-2.56z"/>
    <polygon class="fil14" points="85.65,34.64 85.18,34.86 84.51,35.55 84.95,35.71 86.27,35.65 "/>
    <path class="fil9" d="M93.61 35.69c11.9,0.29 12.67,-0.01 16.98,-4.51 0.46,1.7 -0.44,1.57 -0.36,2.39 0.41,1.63 -3.32,6.35 -6.64,7.65 -0.15,0.43 -0.83,0.77 -1.67,0.69 -1.23,0.86 -2.26,0.55 -3.6,0.43 -0.45,1.27 -1.95,2.34 -2.8,2.47l-2.59 0c-1.28,1.65 -1.18,1.48 -3.23,1.42 -0.14,1.19 -1.94,0.79 -4.78,0.49 -0.07,0.14 -0.15,0.28 -0.22,0.42l-1.36 1.78 3.92 5.33c-4.89,5.48 -17.47,5.11 -20.55,-2.65 2.92,0.07 6.98,-1.77 8.51,-3.77 0.19,-0.31 0.39,-0.6 0.57,-0.89 -0.17,-0.11 -0.32,-0.25 -0.48,-0.44 -2.05,0.05 -2.31,-0.04 -3.6,-1.69l-1.95 0c-0.85,-0.13 -2.29,-1.15 -2.97,-2.24 -1.35,0.12 -1.59,0.21 -2.83,-0.65 -0.84,0.08 -2.01,-0.21 -2.33,-0.89 -3.32,-1.31 -7.28,-6.02 -6.87,-7.64 -0.03,-1.01 -0.8,-1.22 -0.34,-2.92 9.28,11.43 23.33,-0.62 25.14,9l0.73 0.44c0.76,-1.48 1.45,-3.15 2.06,-5.27 0.52,-2.37 2.21,-2.19 3.47,-0.32l1.03 1.54 -1.34 0.06c-0.36,0.01 -0.29,0.41 -0.29,0.71 0.18,0.55 0.34,1.09 0.46,1.62 1.81,-3.43 6.93,-0.93 7.93,-2.56zm-2.78 0.95c-1.76,-0.04 -3.88,-0.08 -4.85,1.77l-0.42 0.79 -0.21 -0.87c-0.06,-0.27 -0.13,-0.53 -0.2,-0.79 -0.07,-0.27 -0.16,-0.54 -0.24,-0.81l-0.02 -0.05 0 -0.06c0,-0.37 0.2,-0.72 -0.38,-1.07 0.76,0.11 0.9,-0.02 1.66,0.03l-0.54 -0.84 -0.35 0.21c0.68,-0.55 -1.76,-3.25 -2.61,-0.23 -0.16,0.81 -0.67,2.12 -0.98,2.92 -0.35,0.87 -0.72,1.67 -1.11,2.42l-0.16 0.32 -1.16 -0.7 -0.02 -0.15c-0.81,-4.25 -4.26,-3.97 -8.62,-3.61 -4.97,0.4 -11.07,0.9 -16,-4.69 -0.04,0.52 0.09,0.82 0.21,1.12 0.13,0.3 0.25,0.59 0.26,1.03l0 0.05 -0.01 0.04c-0.18,0.73 0.74,2.28 2.1,3.79 1.31,1.46 3.02,2.84 4.57,3.45l0.12 0.05 0.06 0.12c0.11,0.23 0.37,0.41 0.68,0.53 0.42,0.16 0.91,0.22 1.32,0.18l0.12 -0.01 0.1 0.07c1.06,0.73 1.33,0.71 2.36,0.61l0.45 -0.04 0.11 0.17c0.31,0.49 0.79,0.98 1.3,1.36 0.51,0.38 1.03,0.66 1.42,0.72l2.09 0 0.1 0.13c0.61,0.79 0.97,1.2 1.39,1.39 0.42,0.19 0.96,0.2 1.94,0.17l0.16 0 0.11 0.13c0.06,0.08 0.12,0.15 0.19,0.21 0.07,0.06 0.13,0.11 0.2,0.15 1.52,-2.01 2.77,-4.3 4.15,-6.45l0.3 0.18c-1.66,3.13 -3.72,6.11 -4.93,7.65 -0.81,1.06 -2.27,2.06 -3.91,2.78 -1.42,0.63 -2.98,1.05 -4.37,1.12 0.51,1.1 1.24,2.03 2.11,2.81 1.74,1.56 4.09,2.46 6.55,2.76 2.48,0.31 5.06,0 7.27,-0.88 1.43,-0.56 2.7,-1.37 3.68,-2.4l-3.9 -5.3 1.5 -1.96c0.56,-1.18 0.71,-4.33 1,-6.26 0.1,2.03 -0.06,4.25 -0.47,5.69 0.44,0.05 0.78,0.09 1.11,0.12 2,0.23 3.23,0.38 3.31,-0.32l0.03 -0.3 0.85 0.03c1.34,0.04 1.36,0.04 2.42,-1.32l0.1 -0.13 2.72 0c0.4,-0.07 0.98,-0.38 1.49,-0.83 0.45,-0.4 0.84,-0.89 1.02,-1.41l0.09 -0.25 0.26 0.03c0.25,0.02 0.44,0.04 0.62,0.06 0.99,0.12 1.82,0.22 2.76,-0.43l0.1 -0.07 0.12 0.01c0.35,0.03 0.66,-0.02 0.9,-0.12 0.22,-0.09 0.38,-0.22 0.42,-0.34l0.05 -0.15 0.14 -0.06c1.53,-0.6 3.17,-1.96 4.41,-3.4 1.34,-1.54 2.22,-3.11 2.04,-3.86l-0.01 -0.02 0 -0.03c-0.05,-0.43 0.1,-0.65 0.26,-0.9 0.12,-0.18 0.25,-0.38 0.22,-0.81 -1.93,1.99 -3.21,3.09 -5.35,3.67 -2.23,0.6 -5.38,0.61 -11.26,0.47 -0.56,0.66 -1.67,0.64 -2.94,0.61z"/>
    <circle class="fil9" cx="83.93" cy="34.37" r="0.34"/>
    <path class="fil15 str1" d="M91.92 34.31l0.63 0.09c0.26,0.35 0.61,0.48 1.36,0.36 0.36,-0.08 0.87,-0.26 1.29,-0.7 -0.97,0.23 -1.58,-0.4 -2.65,0.29l-0.62 -0.04c0.44,-0.37 0.88,-0.77 1.32,-1.18l0.52 0.12c0.54,0.75 2.69,-0.1 2.77,-0.41 -1.35,0.07 -1.99,-0.3 -2.73,0.37l-0.56 -0.08c0.42,-0.4 0.84,-0.81 1.25,-1.21l0.49 0.11c0.27,0.21 0.65,0.25 1.34,0.01 0.81,-0.38 1.11,-0.87 1.28,-1.55 -1.56,0.51 -1.83,0.82 -2.58,1.49l-0.52 -0.06c0.38,-0.38 0.76,-0.75 1.13,-1.1 -0.16,0.14 -0.41,0.33 -0.73,0.56l0.05 -0.59c0.22,-0.18 0.92,-0.32 1.13,-0.62 0.57,-1.15 0.17,-1.08 0.78,-2.03 -1.44,1.23 -1.84,1.24 -1.96,3.24 -0.51,0.39 -1.17,0.87 -1.85,1.36l0.02 -0.52c0.21,-0.18 0.45,-0.47 0.66,-0.77 0.35,-0.5 0.37,-1.46 0.42,-2.18 -0.74,1.2 -1.44,1.62 -1.11,2.95l0 0.52c-0.67,0.49 -1.35,0.98 -1.92,1.39l-0.09 -0.53c0.21,-0.27 0.27,-0.43 0.48,-0.73 0.35,-0.5 0.17,-1.4 0.22,-2.13 -0.75,1.22 -1.23,2.1 -0.87,2.7l0.24 0.7c-0.4,0.29 -0.74,0.54 -0.97,0.71 -0.38,0.24 -0.69,0.41 -1.2,0.57l-0.02 -0.34c0.21,-0.27 0.31,-0.37 0.48,-0.67 0.27,-0.55 0.3,-1.72 0.36,-2.44 -0.75,1.21 -1.36,2.57 -0.95,3.05l0.09 0.41c-3.02,0.95 -9.38,1.26 -12.03,4.55 -0.94,1.25 0.64,1.86 1.2,0.74 2.46,-3.18 6.75,-3.78 10.43,-4.83 1.06,-0.39 2.29,-0.76 3.42,-1.58z"/>
    <polygon class="fil9" points="85.2,34.83 84.56,35.5 84.06,35.47 "/>
   </g>
  </g>
 </g>
</svg>
