<?xml version="1.0" encoding="UTF-8"?>
<!DOCTYPE svg PUBLIC "-//W3C//DTD SVG 1.1//EN" "http://www.w3.org/Graphics/SVG/1.1/DTD/svg11.dtd">
<!-- Creator: CorelDRAW 2021 (64-Bit) -->
<svg xmlns="http://www.w3.org/2000/svg" xml:space="preserve" width="152.4mm" height="152.4mm" version="1.1" style="shape-rendering:geometricPrecision; text-rendering:geometricPrecision; image-rendering:optimizeQuality; fill-rule:evenodd; clip-rule:evenodd"
viewBox="0 0 15240.02 15240.01"
 xmlns:xlink="http://www.w3.org/1999/xlink"
 xmlns:xodm="http://www.corel.com/coreldraw/odm/2003">
 <defs>
  <style type="text/css">
   <![CDATA[
    .str1 {stroke:#0B6608;stroke-width:12.7;stroke-linecap:round;stroke-linejoin:round;stroke-miterlimit:22.9256}
    .str0 {stroke:black;stroke-width:7.62;stroke-linecap:round;stroke-linejoin:round;stroke-miterlimit:22.9256}
    .fil2 {fill:none}
    .fil9 {fill:black}
    .fil15 {fill:#0B6608}
    .fil0 {fill:#372B71}
    .fil5 {fill:#3FFFFF}
    .fil1 {fill:#E0FCFD}
    .fil14 {fill:#FFB347}
    .fil6 {fill:#FFFE32}
    .fil8 {fill:white}
    .fil11 {fill:#FBB135;fill-rule:nonzero}
    .fil10 {fill:#F16436;fill-rule:nonzero}
    .fil12 {fill:#282828;fill-rule:nonzero}
    .fil13 {fill:black;fill-rule:nonzero}
    .fil7 {fill:#BCC4C4;fill-rule:nonzero}
    .fil4 {fill:#E0FCFD;fill-rule:nonzero}
    .fil3 {fill:#E0FCFD;fill-rule:nonzero}
   ]]>
  </style>
 </defs>
 <g id="Layer_x0020_1">
  <metadata id="CorelCorpID_0Corel-Layer"/>
  <path class="fil0" d="M7620.01 254l-2630.25 0c-142.63,0 -273.21,24.55 -391.18,73.41 -117.14,48.52 -226.41,123.32 -327.25,224.16l-3719.75 3719.73c-100.84,100.84 -175.63,210.1 -224.16,327.26 -48.86,117.97 -73.41,248.56 -73.41,391.19l-0.99 0 0 5260.5 0.99 0c0,142.63 24.55,273.22 73.41,391.19 48.53,117.16 123.32,226.42 224.16,327.26l3719.75 3719.74c100.84,100.83 210.1,175.63 327.25,224.15 117.98,48.87 248.54,73.41 391.18,73.41l5260.52 0c142.63,0 273.21,-24.55 391.18,-73.41 117.14,-48.52 226.41,-123.32 327.25,-224.16l3719.74 -3719.73c100.84,-100.84 175.63,-210.1 224.16,-327.26 48.86,-117.97 73.41,-248.56 73.41,-391.19l0.99 0 0 -5260.5 -0.99 0c0,-142.63 -24.55,-273.22 -73.41,-391.19 -48.53,-117.16 -123.32,-226.42 -224.16,-327.26l-3719.74 -3719.73c-100.84,-100.84 -210.11,-175.64 -327.25,-224.16 -117.97,-48.86 -248.55,-73.41 -391.18,-73.41l-2630.27 0zm-72.17 2285.92l-19.71 0.06c-51.98,0 -102.22,1.22 -150.7,3.63 -50.31,2.49 -100.33,6.24 -149.96,11.19l-0.96 0.16c-613.2,46.96 -1195.93,202.78 -1728.82,448.16 -363.09,167.19 -703.13,376.02 -1014.01,620.37 -31.82,25.01 -63.35,50.4 -94.55,76.15l-0.88 0.73c-62.21,51.36 -123.18,104.16 -182.85,158.37l-2.31 2.11c-29.17,26.53 -58.02,53.38 -86.55,80.57l-2.63 2.5c-28.99,27.66 -57.67,55.65 -86,83.98 -28.39,28.39 -56.46,57.14 -84.18,86.2l-1.6 1.68c-27.53,28.89 -54.73,58.1 -81.58,87.62l-1.43 1.57c-26.91,29.62 -53.46,59.56 -79.68,89.81l-1.15 1.32c-26.36,30.43 -52.36,61.18 -77.99,92.23l-0.48 0.58c-25.74,31.2 -51.11,62.71 -76.12,94.52l-0.37 0.46c-284.16,361.57 -520.28,762.54 -698.71,1193.31 -168.89,407.72 -286.19,842.31 -343.78,1295.62l-0.04 0.32c-10.72,84.37 -19.36,169.37 -25.89,254.98l-0.14 1.84c-3.23,42.51 -5.94,85.16 -8.11,127.96l-0.06 1.13c-2.17,42.87 -3.8,85.87 -4.9,129.02l-0.04 1.36c-1.09,43.39 -1.65,86.92 -1.65,130.56l0 0.01 0 0.02c0,43.67 0.55,87.22 1.65,130.62l0.04 1.19c1.1,43.22 2.73,86.29 4.91,129.23l0.04 0.87c2.18,42.9 4.9,85.66 8.13,128.27l0.11 1.47c41.59,545.81 169.35,1067.4 369.73,1551.14 209.99,506.98 499.9,972.68 853.99,1381.46l0.41 0.48c26.47,30.55 53.28,60.78 80.46,90.69l0.53 0.57c54.57,60.03 110.55,118.75 167.9,176.11 28.59,28.59 57.54,56.85 86.81,84.75l0.86 0.81c29.18,27.8 58.67,55.29 88.5,82.4l0.47 0.42c382.46,347.6 818.07,637.64 1293.14,856.38 532.89,245.38 1115.63,401.2 1728.82,448.16l0.96 0.16c49.66,4.95 99.7,8.7 150.04,11.19 48.44,2.41 98.66,3.63 150.62,3.63l19.71 0.06c15.64,-0.18 30.9,-0.14 46.56,0l25.61 -0.06c688.33,0 1344.51,-136.78 1942.82,-384.61 621.36,-257.38 1180.76,-634.77 1649.29,-1103.29 114.92,-114.92 224.34,-235.33 327.86,-360.76l0.02 -0.02c318.54,-385.94 581.15,-819.59 775.4,-1288.54 200.38,-483.74 328.15,-1005.32 369.73,-1551.11l0.11 -1.5c3.23,-42.61 5.95,-85.36 8.13,-128.26l0.04 -0.87c2.17,-42.94 3.81,-86.02 4.91,-129.23l0.04 -1.19c1.1,-43.41 1.65,-86.95 1.65,-130.62l0 -0.02 0 -0.01c0,-43.65 -0.55,-87.18 -1.65,-130.56l-0.04 -1.36c-1.1,-43.14 -2.73,-86.15 -4.9,-129.02l-0.06 -1.13c-2.18,-42.79 -4.88,-85.45 -8.11,-127.96l-0.14 -1.84c-6.53,-85.61 -15.18,-170.61 -25.89,-254.98l-0.04 -0.32c-57.6,-453.32 -174.9,-887.9 -343.78,-1295.61 -178.46,-430.84 -414.6,-831.85 -698.83,-1193.48l-0.11 -0.13c-25.01,-31.83 -50.4,-63.35 -76.16,-94.56l-0.7 -0.85c-25.61,-31.02 -51.58,-61.75 -77.92,-92.15l-1.04 -1.19c-26.24,-30.28 -52.82,-60.26 -79.77,-89.91l-1.37 -1.5c-26.98,-29.66 -54.29,-59.01 -81.95,-88.03l-0.73 -0.76c-27.9,-29.25 -56.12,-58.17 -84.7,-86.75l-0.01 0c-28.57,-28.56 -57.48,-56.8 -86.72,-84.69l-0.8 -0.76c-29.17,-27.8 -58.67,-55.27 -88.49,-82.38l-0.7 -0.64c-29.9,-27.17 -60.11,-53.96 -90.64,-80.42l-0.48 -0.41c-30.58,-26.48 -61.46,-52.61 -92.67,-78.37l-0.45 -0.37c-385.88,-318.47 -819.46,-581.05 -1288.33,-775.26 -598.3,-247.84 -1254.49,-384.62 -1942.82,-384.62l-25.61 -0.06c-15.66,0.14 -30.92,0.18 -46.56,0z"/>
  <path class="fil1" d="M4989.75 0l5260.52 0c349.75,0 650.71,124.67 898.02,371.98l3719.74 3719.73c247.31,247.31 371.98,548.29 371.98,898.04l0 5260.5c0,349.75 -124.67,650.73 -371.98,898.04l-3719.74 3719.73c-247.31,247.31 -548.28,371.98 -898.02,371.98l-5260.52 0c-349.74,0 -650.71,-124.67 -898.02,-371.97l-3719.75 -3719.74c-247.31,-247.31 -371.98,-548.29 -371.98,-898.04l0 -5260.5c0,-349.75 124.67,-650.73 371.98,-898.04l3719.75 -3719.73c247.31,-247.31 548.28,-371.98 898.02,-371.98zm2630.25 254l-2630.25 0c-142.63,0 -273.21,24.55 -391.18,73.41 -117.14,48.52 -226.41,123.32 -327.25,224.16l-3719.75 3719.73c-100.84,100.84 -175.63,210.1 -224.16,327.26 -48.86,117.97 -73.41,248.56 -73.41,391.19l-0.99 0 0 5260.5 0.99 0c0,142.63 24.55,273.22 73.41,391.19 48.53,117.16 123.32,226.42 224.16,327.26l3719.75 3719.74c100.84,100.83 210.1,175.63 327.25,224.15 117.98,48.87 248.54,73.41 391.18,73.41l5260.52 0c142.63,0 273.21,-24.55 391.18,-73.41 117.14,-48.52 226.41,-123.32 327.25,-224.16l3719.74 -3719.73c100.84,-100.84 175.63,-210.1 224.16,-327.26 48.86,-117.97 73.41,-248.56 73.41,-391.19l0.99 0 0 -5260.5 -0.99 0c0,-142.63 -24.55,-273.22 -73.41,-391.19 -48.53,-117.16 -123.32,-226.42 -224.16,-327.26l-3719.74 -3719.73c-100.84,-100.84 -210.11,-175.64 -327.25,-224.16 -117.97,-48.86 -248.55,-73.41 -391.18,-73.41l-2630.27 0z"/>
  <circle class="fil2" cx="7620" cy="7620" r="5619.75"/>
  <path class="fil3" d="M5775.57 14252.16l0 -128.83 70.37 0c46.05,0 76.32,-4.92 90.81,-14.49 14.74,-9.57 21.99,-34.93 21.99,-75.8l0 -29.49 0 -437.47 -183.17 0 0.78 -127.28c70.11,-1.04 126.51,-12.42 168.67,-34.15 42.43,-21.73 71.66,-54.33 87.96,-97.79l198.95 0 0 706.52c0,49.93 5.95,80.97 18.1,92.61 12.16,11.64 43.98,17.34 94.95,17.34l62.35 0 0 128.83 -631.76 0z"/>
  <path id="_1" class="fil3" d="M7063.66 13404.65c-38.29,0 -68.82,15 -91.59,44.75 -22.76,29.75 -34.14,70.11 -34.14,121.34 0,60.01 11.12,106.58 33.63,139.7 22.5,33.11 54.33,49.67 95.2,49.67 39.06,0 70.89,-16.3 95.98,-49.16 25.09,-32.85 37.51,-75.02 37.51,-126.76 0,-56.92 -11.9,-101.15 -35.7,-132.46 -23.8,-31.3 -57.17,-47.08 -100.89,-47.08zm148.75 417.55c-34.41,23.8 -70.11,41.39 -106.84,52.77 -37,11.38 -76.84,17.07 -119.78,17.07 -100.9,0 -181.35,-26.9 -240.86,-80.45 -59.76,-53.55 -89.51,-125.99 -89.51,-217.31 0,-94.17 36.48,-170.23 109.43,-228.18 73.22,-58.21 168.42,-87.18 286.13,-87.18 138.41,0 247.32,42.43 326.74,127.02 79.42,84.6 119.01,200.76 119.01,348.22 0,163.24 -42.43,291.55 -127.29,385.46 -84.85,93.65 -201.27,140.48 -349.5,140.48 -99.35,0 -179.03,-19.14 -239.05,-57.17 -59.76,-38.03 -89.77,-87.96 -89.77,-149.53 0,-38.81 13.71,-70.89 40.88,-95.72 27.16,-25.1 62.86,-37.52 106.84,-37.52 40.88,0 73.47,10.87 98.05,32.6 24.32,21.73 36.74,50.19 36.74,85.63 0,19.66 -4.92,36.74 -14.75,51.22 -9.83,14.23 -25.09,26.39 -46.05,35.96 16.3,5.44 30.53,9.58 42.95,12.42 12.41,2.85 24.06,4.14 35.18,4.14 72.44,0 127.28,-27.42 165.05,-82.01 37.52,-54.58 56.4,-134.52 56.4,-239.56l0 -18.36z"/>
  <path id="_2" class="fil3" d="M7865.9 14252.16l0 -26.39c0,-84.59 10.61,-161.69 31.82,-231.54 21.22,-70.11 53.56,-134.01 97.02,-192.21 14.74,-19.67 53.81,-60.54 117.45,-122.37 63.64,-61.83 115.64,-117.71 156,-167.64 -20.7,11.38 -43.21,19.92 -67.27,25.61 -24.31,5.43 -51.22,8.28 -80.45,8.28 -26.39,0 -61.06,-4.4 -104.26,-13.19 -43.2,-8.8 -73.21,-13.2 -90.03,-13.2 -47.34,0 -82.78,13.97 -106.07,42.17 -23.28,27.94 -34.92,70.63 -34.92,127.54 0,4.14 0.52,14.49 1.55,31.05 0.52,10.6 1.04,19.4 1.55,25.87l-141.25 0 0 -439.28 141.25 0 0 114.6c31.82,-43.46 65.45,-75.02 100.9,-95.2 35.44,-20.18 75.8,-30.27 121.33,-30.27 46.05,0 99.6,12.16 161.17,36.48 61.31,24.32 100.64,36.48 117.71,36.48 20.96,0 37.25,-4.92 48.9,-14.49 11.9,-9.57 17.85,-22.25 17.85,-38.55l0 -9.05 121.33 0c0.52,3.1 1.03,6.72 1.29,11.12 0.26,4.14 0.26,10.35 0.26,18.37 0,61.83 -43.72,161.95 -131.16,300.61 -14.23,22.25 -24.84,39.07 -31.82,50.71 -63.64,104.52 -106.85,195.84 -129.35,273.45 -22.51,77.87 -33.64,162.98 -33.64,255.34l0 35.7 -287.16 0z"/>
  <path id="_3" class="fil3" d="M8851.3 14252.16l0 -26.39c0,-84.59 10.61,-161.69 31.82,-231.54 21.22,-70.11 53.56,-134.01 97.02,-192.21 14.74,-19.67 53.81,-60.54 117.45,-122.37 63.64,-61.83 115.64,-117.71 156,-167.64 -20.7,11.38 -43.21,19.92 -67.27,25.61 -24.31,5.43 -51.22,8.28 -80.45,8.28 -26.39,0 -61.06,-4.4 -104.26,-13.19 -43.2,-8.8 -73.21,-13.2 -90.03,-13.2 -47.34,0 -82.78,13.97 -106.07,42.17 -23.28,27.94 -34.92,70.63 -34.92,127.54 0,4.14 0.52,14.49 1.55,31.05 0.52,10.6 1.04,19.4 1.55,25.87l-141.25 0 0 -439.28 141.25 0 0 114.6c31.82,-43.46 65.45,-75.02 100.9,-95.2 35.44,-20.18 75.8,-30.27 121.33,-30.27 46.05,0 99.6,12.16 161.17,36.48 61.31,24.32 100.64,36.48 117.71,36.48 20.96,0 37.25,-4.92 48.9,-14.49 11.9,-9.57 17.85,-22.25 17.85,-38.55l0 -9.05 121.33 0c0.52,3.1 1.03,6.72 1.29,11.12 0.26,4.14 0.26,10.35 0.26,18.37 0,61.83 -43.72,161.95 -131.16,300.61 -14.23,22.25 -24.84,39.07 -31.82,50.71 -63.64,104.52 -106.85,195.84 -129.35,273.45 -22.51,77.87 -33.64,162.98 -33.64,255.34l0 35.7 -287.16 0z"/>
  <path class="fil4" d="M4000.36 12588.76c-112.35,26.62 -199.29,88.47 -260.81,185.54 -64.88,101.98 -86.82,212.36 -66.56,330.78 -93.7,-130.03 -101.97,-255.67 -25.15,-376.91 75.68,-118.98 192.82,-165.58 352.52,-139.41zm217.92 906.74l621.93 -981.28 30.98 19.38c39.65,25.36 101.19,58.87 184.22,101.28l-11.55 18.13c-34.35,-16.73 -75.75,-17.62 -123.82,-1.91 -48.46,15.72 -105.3,75.51 -171.3,179.75l-287.1 452.87c-54.81,86.12 -83.77,153.27 -87.25,201.46 -3.86,48.19 14.84,93.99 55.37,137.02l-10.44 16.62c-79,-59 -145.88,-106.77 -201.04,-143.32zm38.04 -379.54l129.39 -203.96c-31.12,-44.97 -71.23,-83.12 -119.96,-114.07 -78.56,-49.59 -150.9,-64.97 -217.77,-46.14 -66.86,19.96 -121.18,62.42 -162.57,127.77 -43.25,67.99 -59.4,136.95 -48.83,206.5 10.56,69.55 56.83,130.62 139.92,183.2 45.7,28.7 83.41,42.78 113.52,41.85 30.09,-2.06 85.4,-67.11 166.3,-195.15zm447.16 -688.61l68.37 43.62 -621.93 981.27c-15.49,-10.06 -27.95,-17.9 -36.64,-23.49 -36.24,-20.86 -71.73,-40.21 -106.46,-58.07 -23.77,-10.4 -48.3,-24.18 -74.37,-40.59 -109.91,-69.73 -172.84,-149.5 -188.42,-239.73 -14.83,-91.35 5.71,-181.04 60.9,-268.28 56.67,-89.14 130.11,-142.25 220.33,-159.33 90.21,-17.85 180.26,1.94 270.53,58.99 50.23,31.69 94.87,72.07 133.92,121.14l104.4 -165.05c51.45,-80.84 77.78,-147.6 78.97,-200.28 3.08,-53.84 -19.4,-100.37 -66.67,-139.97l11.56 -18.13c23.46,20.56 54.07,44.08 91.11,70.58l54.4 37.32z"/>
  <path id="_1_0" class="fil4" d="M3296.71 11269.99l-391.79 1227.38 -78.75 -74.39c15.94,-38.11 34.06,-87.9 55.5,-148.62 21.03,-65.24 34.34,-103.7 39.52,-114.65 1.84,-7.16 4.8,-15.08 8.51,-23.38l178.13 -566.72c61.97,-197.58 69.3,-345.52 22.01,-444.56l14.95 -15.9c67.08,74.83 117.85,128.32 151.92,160.84zm191.55 944.8l-242.29 -228.75 -112.15 351.82 354.44 -123.07zm-144.88 -532.67l-68.62 215.31 302.86 285.56 215.89 -76.26c0,0 4.5,-2.28 13.88,-6.49 1.13,0 12.4,-3.84 33.79,-11.87 32.29,-11.5 59.28,-28.99 81.32,-52.46 38.13,-40.51 42.7,-90.2 13.72,-149.86l15.33 -15.9c9.09,8.6 23.49,25.07 43.59,48.64 28.43,33.31 54.96,61.74 79.94,85.67 23.1,21.67 52.98,46.7 89.67,75.43 25.71,18.66 42.35,31.73 49.92,38.83l-14.95 15.9c-87.09,-25.79 -198.41,-14.92 -334.7,33l-752.81 264.07c-18.05,59.95 -19.94,117.91 -5.65,173.89 14.65,55.97 44.71,107.34 90.54,154.46l-15.33 15.91 -28.01 -26.55c-24.99,-23.92 -58.32,-57.95 -99.24,-102.09 -43.2,-46.77 -71.62,-76.31 -85.62,-89.4l392.17 -1227.36c52.61,47.82 118.07,103.47 195.62,167.33l-15.33 15.9c-46.86,-31.69 -87.86,-29.17 -122.63,7.56 -25.41,27.25 -50.66,80.47 -75.35,160.78z"/>
  <path id="_2_1" class="fil4" d="M2773.01 11177.16l-13.42 -21.53c76.71,-54.49 122.3,-127.98 136.01,-220.47 14.07,-90.61 -2.75,-173.87 -50.47,-249.4 -36.91,-58.55 -83.36,-95.32 -139.33,-111.45 -55.98,-15.76 -107.19,-8.92 -153.27,20.17 -48.35,30.57 -74.94,71.81 -79.38,124.09 -4.44,50.77 8.61,136.65 39.13,258 24.27,97.6 38.52,169.18 42.39,214.36 4.97,52.71 -3.22,101.21 -23.8,145.87 -19.84,46.54 -52.05,83.62 -96.23,111.58 -48.73,30.94 -107.52,44.89 -175.23,41.49 28.65,-7.73 52.4,-17.38 70.16,-28.56 48.34,-30.58 83.57,-69.13 105.66,-115.28 22.86,-47.67 32.93,-95.02 30.19,-142.07 -1.99,-47.05 -15.86,-119.38 -42,-217 -34.64,-126.64 -47.22,-225.68 -37.77,-297.5 9.05,-69.94 45.5,-124.66 109.34,-165.31 62.69,-39.53 134.26,-51.52 215.08,-36.37 81.95,15.16 152.74,70.51 212.77,165.69 24.23,38.52 50.99,96.63 79.88,173.94 25.57,67.51 47.49,116.19 65.76,146.4l-3.46 11.26c-10.94,5.96 -24.54,14.16 -41.54,24.97 -19.65,12.68 -49.5,33.96 -88.81,63.83 -39.67,29.5 -69.53,50.39 -90.3,63.44 -26.44,16.79 -50.23,30.19 -71.36,39.85zm-805.88 -413.01l12.68 20.02c-71.77,45.86 -107.14,108.5 -106.46,186.78 1.06,77.15 26.19,155.18 76.15,234.13 39.51,62.69 85.55,105.86 137.72,129.49 52.91,24.03 97.7,24.29 135.09,0.8 39.65,-24.98 60.94,-60.98 63.47,-108.01 3.68,-48.9 -8.25,-133.63 -36.51,-254.22 -26.45,-111.91 -41.4,-192.52 -44.5,-241.84 -3.07,-53.08 7.01,-105.7 31.03,-157.49 25.14,-52.53 63.02,-94.84 114.01,-127.28 77.8,-48.83 156.89,-58.53 237.24,-29.08 -42.5,-2.89 -90.39,12.63 -143.26,45.81 -49.48,31.71 -86.59,71 -110.57,118.65 -23.63,49.15 -35.58,98.76 -36.26,148.8 -0.67,50.79 10.94,125.37 35.57,223.73 36.77,147.73 52.73,249.42 47.52,304.71 -5.6,56.03 -38.99,103.26 -100.55,142.03 -70.64,44.74 -144.43,51.08 -221,19.4 -74.7,-33.17 -145.04,-102.07 -211.41,-207.07 -45.11,-71.77 -88.2,-166.85 -128.9,-285.62l6.42 -3.72 33.63 -23.9c18.88,-11.92 40.8,-26.85 66.11,-44.39 30.61,-22.02 57.82,-40.68 81.99,-55.96 16.24,-10.06 36.63,-21.98 60.79,-35.77z"/>
  <path id="_3_2" class="fil4" d="M2442.6 9814.02l-1056.14 484.32c-38.1,-82.94 -75.78,-154.98 -112.62,-215.72l18.01 -8.39c25.42,35.98 61.68,59.1 108.78,69 48.96,9.87 130.87,-11.66 245.73,-64.26l477.4 -218.72c102.46,-47.25 165.04,-92.76 187.75,-136.92 22.32,-44.52 29.98,-86.72 22.98,-126.94l18.01 -8.38c21.45,66.48 51.24,141.95 90.1,226.01zm-1021.85 559.77l1056.15 -483.94c22.1,48.04 59.77,119.69 112.24,214.59l-18.01 8.39c-36.77,-45.32 -82.43,-67.64 -136.24,-67.34 -53.06,-0.06 -137.57,26.76 -252.8,79.72l-447.38 205.01c-86.69,39.63 -145.54,79.11 -176.94,118.42 -30.25,39.3 -40.14,86.4 -29.28,142.04l-18.02 8.37c-31.34,-84.49 -61.12,-159.58 -89.72,-225.26z"/>
  <path id="_4" class="fil4" d="M1966.79 8435.81l-518.16 118.5c-9.41,-33.87 -18.81,-64.73 -28.21,-92.95 -15.06,-45.53 -24.09,-75.26 -27.47,-89.56l19.57 -4.51c41.38,59.08 118.9,75.64 232.92,49.68l273.19 -62.83c1.88,4.9 9.41,18.07 22.59,39.15 5.26,10.53 10.15,19.19 14.67,25.58 4.5,6.77 8.28,12.04 10.9,16.94zm-782 1002.78c144.11,59.46 311.19,67.38 501.22,24.11 44.41,-10.15 106.49,-29.72 186.65,-58.68 78.64,-28.6 155.79,-79.02 231.43,-150.88 -76.78,164.8 -209.23,268.65 -397.01,311.54 -115.53,26.33 -217.88,25.2 -307.44,-3.41 -88.05,-28.6 -159.54,-69.24 -214.85,-122.68zm281.9 -804.89l543.75 -124.51c72.62,103.11 118.14,196.05 136.95,278.09 31.98,139.23 12.03,261.53 -60.22,367.64 -36.89,53.06 -88.44,98.58 -154.3,135.83 -66.22,37.63 -146.38,66.97 -240.45,88.41 -410.17,94.05 -654.38,-30.52 -733,-373.71 -28.6,-126.05 -35.36,-252.87 -19.92,-380.81 66.6,-15.04 117.78,-28.21 153.15,-38.37 30.49,-9.4 67.73,-18.81 112.14,-28.97l4.89 21.45c-73.38,34.61 -124.94,89.17 -155.05,162.92 -29.35,75.26 -33.87,158.05 -13.18,248.36 63.95,278.46 263,379.33 597.53,302.58 339.8,-77.87 482.44,-235.15 428.26,-472.22 -21.82,-94.46 -59.44,-156.17 -113.62,-185.14 -26.72,-7.54 -71.87,-4.15 -135.86,10.52l-144.87 33.11c-103.86,24.07 -155.04,75.62 -153.53,155.02l-19.2 4.52c-4.89,-26.73 -10.91,-64.36 -19.18,-112.14 -5.27,-37.26 -10.15,-68.11 -14.29,-92.58z"/>
  <path id="_5" class="fil4" d="M2049.07 6681.6c-61.77,-76.28 -147.37,-121.79 -257.19,-136.57 -118.09,-15.55 -217.91,6.99 -299.81,67.22 68.66,-131.78 170.13,-188.93 304.39,-171.05 66.19,8.93 122.9,35.89 169.37,81.62 46.46,45.36 74.09,98.15 83.24,158.78zm-625.67 -27.49c-52.46,-52.15 -118.55,-83.29 -198.29,-93.78 -63.18,-8.55 -121.53,-3.52 -175.04,14.31 -55.02,18.96 -93.5,43.63 -115.46,74.77 25.13,-69.89 63.35,-121.28 115.04,-153.42 52.44,-32.52 107.44,-44.7 164.6,-37.31 50.77,6.61 96.59,29 137.45,67.19 39.35,37.79 63.24,80.41 71.7,128.24zm-579.06 518.35l1151.21 152.38c-6.29,63.57 -11.88,140.69 -17.15,230.98l-19.94 -2.72c-13.14,-96.39 -105.45,-155.86 -277.33,-178.79l-569.03 -75.41c-151.56,-19.83 -248.78,14.38 -291.68,103.76l-19.94 -2.72c17.63,-74.81 32.24,-150.38 43.86,-227.48zm633.04 -200.52l-14.77 109.43 195.94 26.05c136.9,17.88 225.72,14.5 266.09,-10.54 22.68,-22.86 37.51,-60.05 44.5,-111.19 11.27,-85 -5.39,-149.43 -49.99,-192.13 -44.61,-41.58 -99.82,-66.65 -166.01,-75.59 -52.65,-6.99 -99.71,-1.55 -140.42,15.96 -41.47,18.27 -72.06,43.73 -92.14,76.76 -19.34,35.28 -33.87,89.04 -43.2,161.25zm-312.63 69.8l218.88 29.14 11.27 -84.24c9.33,-69.95 -2.47,-126.45 -35.03,-169.49 -32.94,-43.03 -84.75,-69.21 -156.21,-78.55 -73.34,-9.72 -131.72,3.2 -175.9,39.15 -43.04,35.94 -68.46,82.12 -75.84,139.28 -4.27,31.22 0.13,57.2 12.83,78.32 37.56,18.23 104.1,33.94 200,46.39zm841.3 202.61l-1150.83 -152.37 11.33 -188.85c12.06,-92.52 50.74,-162.35 116.04,-209.11 65.29,-46.39 142.51,-63.74 232.01,-51.7 112.08,14.77 186.33,74.17 222.77,178.18 56.34,-152.54 168.75,-217.54 337.61,-195.38 85,11.27 155.97,46.94 213.3,107.4 58.06,61.2 79.51,150.1 63.97,266.68 -5.84,42.88 -14.69,89.12 -27.68,138.74 -8.85,44.74 -15.02,80.09 -18.52,106.41z"/>
  <path id="_6" class="fil4" d="M2236.41 6004.32l-1116.16 -315.12c24.61,-87.36 42.1,-166.43 52.08,-236.82l20.33 5.6c-4.02,44.03 8.88,85.01 38.7,122.94 30.58,39.44 106.69,76.11 227.94,110.42l504.99 142.46c108.45,30.58 185.6,36.4 231.46,17.09 45.86,-19.31 78.9,-46.49 99.51,-81.91l20.34 5.97c-27.69,63.67 -54.21,140.12 -79.19,229.37zm-1138.53 -235.66l1116.15 314.74c-14.17,51.21 -31.65,129.52 -52.08,236.07l-20.33 -5.6c1.36,-58.7 -18.71,-104.93 -59.81,-139.45 -40.73,-34.51 -122.1,-68.93 -244.11,-103.23l-472.97 -133.5c-91.51,-25.73 -162.27,-33.83 -211.17,-23.92 -48.51,9.91 -86.82,39.35 -114.53,89.1l-20.34 -5.97c32.14,-83.99 58.29,-160.07 79.19,-228.24z"/>
  <path id="_7" class="fil4" d="M2719.18 4798.78c-32.17,-92.25 -97.5,-164.26 -195.98,-214.88 -105.63,-54.42 -207.2,-67.41 -304.73,-38.65 108.97,-100.24 223.78,-119.57 344.44,-57.23 59.02,30.6 102.95,75.09 131.42,133.48 28.48,58.39 36.64,117.48 24.85,177.28zm-579.01 -237.13c-31.47,-66.67 -83.29,-118.33 -155.08,-155.36 -56.77,-29.46 -113.18,-44.63 -169.99,-45.88 -57.96,-0.87 -102.75,9.2 -133.66,31.33 46.78,-57.47 100.29,-92.73 160.15,-105.41 60.23,-12.66 115.91,-5.77 167.41,21.05 45.86,23.43 81.53,60 107.02,109.35 24.35,48.97 32.53,97.15 24.15,144.92zm-718.95 292.41l1030.7 532.33c-27.59,57.88 -59.34,128.19 -94.89,211.28l-18.04 -9.44c20.52,-95.17 -46.28,-182.6 -200.4,-262.32l-510.09 -263.33c-135.7,-70.28 -238.8,-70.49 -309.32,-1.02l-17.65 -9.07c42.27,-63.88 82.29,-130.03 119.69,-198.43zm661.48 24.7l-50.63 98.1 175.55 90.67c122.91,63.48 207.52,89.99 254.2,80.3 29.39,-13.85 55.79,-43.9 79.59,-89.39 39.29,-76.68 45.45,-142.52 18.1,-198.27 -28.11,-54.25 -71.67,-96.48 -131.07,-127.09 -47.37,-24.55 -93.25,-35.56 -137.66,-32.63 -45.16,2.91 -82.82,16.75 -112.6,41.15 -30.15,26.66 -62.23,72.12 -95.48,137.16zm-317.52 -39.8l196.98 101.63 38.91 -75.55c32.49,-62.78 40.51,-119.96 24.06,-171.54 -16.08,-51.59 -56.26,-93.82 -120.16,-126.69 -66.15,-34.38 -125.59,-41.65 -179.44,-22.95 -52.72,19.09 -92.3,54.37 -118.75,105.12 -14.36,28.19 -19.3,54.14 -14.46,78.24 29.28,30.16 86.78,67.16 172.86,111.74zm723.77 475.25l-1030.7 -532.33 72.98 -174.45c43.07,-83.07 103.01,-135.63 180.2,-158.05 77.19,-21.29 155.8,-11.34 235.87,30.22 100.74,51.76 150.62,132.76 149.64,243.4 104.49,-124.35 232.49,-147.79 383.59,-69.58 76.31,39.29 131.13,96.98 164.46,172.68 33.71,77.21 23.74,167.88 -30.29,272.76 -20.02,38.33 -43.81,79.3 -71.74,121.77 -23.79,39.08 -41.92,70.28 -54.01,93.58z"/>
  <path id="_8" class="fil4" d="M3431.62 3861.97l-316.47 399.49 -910.11 -720.19c29.85,-40.18 62.34,-85.61 97.09,-136.31 32.5,-47.33 47.62,-69.48 44.6,-65.73l15.77 12.46c-23.49,53.37 -25.5,102.66 -6.06,147.87 20.56,46.34 65.57,96.9 134.65,151.65l375.84 297.59c56.32,44.56 108.89,81.59 158.1,111.08 50.71,31.75 82.28,46.89 94.7,45.43 11.67,-1.1 28.65,-14.98 49.79,-42.01l143.51 -181.35c50.6,-63.82 82.39,-124.69 95.72,-182.6 12.96,-57.91 2.62,-126.44 -31.78,-204.8l13.59 -17.27c24.39,25.66 58.13,73.17 100.45,142.52 26.59,44.48 49.82,78.04 69.71,100.29 -43.77,40.9 -86.8,88.19 -129.1,141.88zm-1430.82 -85.71l155.15 -173.03 910.1 720.56 -42.29 53.3c-25.68,32.67 -56.29,78.49 -91.46,136.72l-15.38 -12.47c17.09,-55.64 13.09,-106.07 -11.25,-150.54 -25.08,-45.23 -79.11,-100.32 -161.33,-165.65l-413.01 -327.05c-88.23,-69.49 -155.49,-104.3 -201.78,-103.67 -47.79,0.99 -85.45,12.55 -112.98,34.3l-15.77 -12.47z"/>
  <path id="_9" class="fil4" d="M3119.48 2536.28l28.54 -22.65 717.92 910.1 -57.07 44.96c-20.27,16.23 -60.05,53.22 -119.72,111.34l-12.47 -15.39c24.75,-32.81 36.7,-65.96 36.22,-100.2 -0.48,-35 -9.22,-68.84 -25.5,-101.53 -17.41,-34.95 -63.88,-100.67 -140.16,-197.53l-285.51 -361.57c-65.71,-83.74 -122.3,-132.11 -169,-145.15 -47.07,-13.42 -88.83,-11.41 -125.66,6.37l-12.08 -15.77c36.8,-25.31 91.63,-63.1 164.49,-112.98zm1154.58 565.7l-345.79 272.66 -717.93 -910.11 251.56 -198.27c47.31,-37.38 134.02,-111.39 259.77,-222 12.85,18.41 22.29,31.92 29.47,40.56 9.06,11.64 31.71,37.54 67.95,77.7 24.15,27.03 37,41.67 38.88,43.92l17.38 21.77 -14.65 11.71c-59.92,-33.32 -108.88,-46.72 -146.86,-40.23 -37.24,6.88 -92.46,39.4 -165.68,97.18l-137.8 108.4c-21.77,17.36 -40.91,34.73 -57.04,52.09 4.97,27.83 35.59,78.92 91.87,153.64l44.58 60.08 110.27 140.04 186.98 -147.28c70.21,-55.52 112.24,-98.16 125.7,-128.67 13.46,-30.15 9.2,-73.41 -12.79,-130.17l18.77 -14.73c36.66,55.59 69.53,102.16 99.74,140.45 19.26,24.04 45.69,54.44 80.41,91.23 10.19,10.5 29.45,32.27 58.14,64.92l-19.15 14.73c-45.29,-46.53 -87.88,-69.36 -128.51,-68.49 -40.64,1.61 -88.74,23.95 -144.31,67.76l-216.64 171.09 147.66 187.72c57.03,72.09 111.02,132.52 162.32,180.54 26.68,-15.5 54.09,-34.39 81.87,-56.3l131.42 -103.48c71.33,-56.27 118.98,-106.83 142.57,-151.68 24.69,-46.72 32.78,-113.35 24.26,-200.25l17.27 -13.6c14.76,31.57 29.55,69.53 43.98,114.27 20.11,57.52 39.81,105.63 58.73,143.96 -70.99,44.98 -132.58,87.67 -184.4,128.84z"/>
  <path id="_10" class="fil4" d="M5917.59 2225.41c38.01,-90.74 37.32,-187.83 -2.44,-291.27 -42.73,-110.62 -110.2,-187.58 -202.41,-230.51 149.05,-3.26 247.88,58.54 296.48,185.01 23.94,62.29 26.8,124.78 8.97,187.48 -17.84,62.31 -51.37,112.08 -100.6,149.29zm-274.52 -560.74c20.93,-70.95 17.03,-144.37 -12.07,-219.87 -22.83,-59.65 -55.16,-108.47 -96.98,-146.83 -42.56,-39.49 -83.03,-61.28 -121,-65.74 73.86,-11.42 137.38,-2.23 190.93,27.95 53.56,30.55 90.84,72.64 111.45,127 18.41,47.57 20.63,98.77 6.62,152.84 -14.37,52.93 -40.69,94.48 -78.95,124.65zm-732.36 -260.92l416.13 1082.75c-58.91,24.72 -129.17,56.12 -211.53,94.19l-6.99 -18.51c78.38,-57.67 86.83,-167.47 24.59,-329.06l-205.48 -534.96c-54.87,-142.7 -131.81,-211.46 -230.44,-206.27l-7.37 -18.88c74.29,-19.7 147.87,-42.79 221.09,-69.26zm478.58 458.23l-103.07 39.4 71.08 184.98c49.71,129.12 94.98,205.52 136.18,228.82 31.15,9.29 70.71,4.73 118.65,-13.69 80.41,-30.93 128.97,-76.43 145.27,-135.75 15.18,-59.32 10.42,-119.95 -13.52,-182.25 -19.15,-49.82 -45.92,-88.44 -81.06,-115.82 -35.89,-28.15 -73.02,-42.77 -111.39,-44.59 -40.26,0.04 -94.56,12.75 -162.14,38.9zm-210.23 -239.6l79.18 206.51 79.28 -30.19c66.06,-25.41 110.03,-62.67 131.89,-112.16 21.87,-49.11 20.1,-107.46 -5.68,-174.66 -26.51,-69.09 -66.02,-114.2 -118.52,-135.71 -52.13,-21.13 -104.81,-21.21 -158.43,-0.58 -29.44,11.41 -50.27,27.42 -62.49,48.77 1.9,41.78 20.16,107.8 54.77,198.02zm224.05 834.66l-416.13 -1082.76 170.77 -80.97c86.83,-33.51 166.98,-32.47 239.31,2.77 71.95,35.22 124.14,94.74 156.55,178.93 40.5,105.71 23.53,199.26 -50.53,281.05 161.63,-23.47 272.45,44.07 333.58,202.62 30.57,80.04 33.28,159.46 7.4,238.28 -26.24,79.17 -94.49,139.94 -204.36,182.29 -40.39,15.46 -85.3,30.14 -134.33,43.65 -43.39,13.56 -77.73,24.94 -102.26,34.14z"/>
  <path id="_11" class="fil4" d="M7370.46 1983.25l-702.22 -1078.52 106.81 -14c19.72,36.04 46.26,80.72 79.97,134.76 37.5,58.16 58.72,92.69 63.65,103.59 4.55,6 8.72,13.51 12.89,21.77l326.48 498.35c113.63,172.99 223.93,272.62 330.53,298.88l2.72 20.31c-100.45,3.82 -173.81,9.01 -220.83,14.86zm-852.33 -448.33l330.21 -43.17 -201.88 -310.35 -128.33 353.52zm504.07 225.15l-123.86 -189.88 -412.19 53.67 -77.36 216.32c0,0 -1.11,5.27 -3.7,15.07 -0.75,0.76 -4.84,12.07 -12.28,33.93 -11.14,32.4 -14.77,64.78 -10.5,96.74 7.01,55.29 42.91,90.52 106.94,105.67l2.72 20.31c-12.41,1.56 -33.85,2.77 -65.08,2.91 -43.66,0.19 -82.78,2.61 -117,7.27 -31.22,3.89 -69.57,11.2 -115.06,21.93 -30.82,8.41 -51.12,13.39 -61.27,14.93l-2.72 -20.31c74.67,-51.48 136.73,-145.07 185.83,-281.13l270.76 -752.61c-34.84,-52.16 -78.65,-90.35 -131.06,-114.59 -52.79,-24.24 -111.52,-33.39 -176.6,-27.86l-2.72 -20.31 38.36 -5.05c34.22,-4.65 81.62,-8.25 141.82,-11.51 63.19,-4.03 104.58,-6.84 123.39,-9.55l702.6 1078.89c-70.7,10.83 -154.93,26.24 -253.06,46.6l-2.72 -20.3c54.12,-16.42 78.06,-50 71.45,-100.03 -4.67,-37.23 -30.49,-90.93 -76.69,-161.11z"/>
  <path id="_12" class="fil4" d="M8663.16 1576.68c90.22,-70.74 142.93,-163.1 158.08,-276.67 15.56,-119.22 -10.32,-228.08 -78.01,-326.58 138.51,78.1 198.64,188.23 179.59,330.02 -18.26,139.15 -104.83,230.22 -259.66,273.23zm-579.05 -729.85l-152.38 1150.84 -36.1 -5.05c-46.64,-6.21 -116.61,-10.65 -209.55,-13.68l2.72 -20.31c38.38,0.54 76.08,-16.23 113.49,-50.69 37.02,-34.47 63.68,-112.63 79.63,-234.85l70.73 -531.79c13.23,-101.17 11.28,-174.19 -5.46,-219.41 -17.12,-45.23 -53.1,-78.87 -107.95,-100.93l2.73 -20.31c95.86,20.36 176.7,35.75 242.14,46.18zm123.78 359.89l-31.48 237.7c47.29,27.66 99.9,45.19 157.44,52.97 92.51,12.05 164.84,-4.2 217.34,-48.76 52.87,-45.68 84.36,-106.51 94.46,-182.85 10.5,-78.99 -3.88,-147.91 -42.77,-206.4 -38.89,-58.12 -107.23,-93.78 -204.64,-106.98 -53.77,-7.01 -94.43,-3.79 -121.21,9.64 -26.4,14.19 -49.32,95.75 -69.14,244.68zm-116.32 811.94l-80.11 -10.5 152.38 -1150.83c18.42,2.34 32.72,3.52 43.26,3.2 41.37,4.31 82,7.5 120.75,9.16 25.96,0.49 54.18,2.48 85.02,6.76 129.37,17.1 220.24,64.14 272.21,140.76 51.61,76.23 70.43,165.11 56.83,267.03 -13.61,103.8 -57.6,182.26 -132.33,235.39 -74.36,54.62 -165.13,74.94 -271.19,60.93 -59.05,-7.77 -116.54,-25.7 -172.87,-54.16l-25.66 194.44c-12.82,95.15 -8.61,167.04 12.64,215.67 19.73,50.14 59.48,83.04 118.87,99.1l-2.73 20.3c-29.68,-9.15 -67.28,-17.97 -112.02,-26.44l-65.05 -10.81z"/>
  <path id="_13" class="fil4" d="M9612.66 2357.48l-27.15 -8.89 366.31 -1101.88 376.96 125.57c68.99,22.96 138.33,41.4 208.02,55.33 -4.44,13.19 -13.36,36.57 -27.09,70.89 -12.63,31.3 -27.09,70.89 -43.03,118.76 -10.37,30.54 -22.25,61.08 -36.01,91.26l-25.26 -8.52c17.76,-57.67 18.98,-109.98 4.44,-156.57 -14.93,-47.7 -67.82,-86.18 -157.54,-116.19l-237.49 -78.89 -249.26 750.17c-28.9,85.58 -37.93,154.49 -27.88,205.99 10.06,51.12 38.49,90.86 86.05,118.08l-5.93 18.08c-120.68,-50.15 -188.94,-78.01 -205.14,-83.19zm-83.81 -1251.14l345.31 114.82 -366.31 1101.51 -31.66 -10.38c-45.23,-15.18 -114.57,-33.25 -207.63,-54.2l5.92 -18.1c62.87,4.55 112.46,-11.89 149.13,-49.34 35.56,-37.06 70.18,-106.87 104.63,-209.4l237.78 -715.87 -266.52 -88.52c-67.85,-22.59 -120.17,-24.56 -157.32,-5.93 -37.16,18.63 -77.94,63.63 -122.71,134.61l-23.75 -7.77c2.2,-9.42 5.16,-19.22 8.5,-29.77 4.43,-13.95 11.87,-31.3 21.92,-51.68 33.11,-71.67 59.47,-137.66 79.85,-197.98 35.1,17.12 80.34,35.33 134.63,54.98l88.23 33.02z"/>
  <path id="_14" class="fil4" d="M10552.3 2823.48l575.85 -1005.72c79.11,45.4 151.8,81.01 218.07,106.87l-10.13 18.07c-41.79,-14.6 -84.69,-12.26 -128.68,7.38 -45.49,20.4 -99.57,85.22 -162.6,194.83l-260.35 455.02c-56.27,98.31 -80.61,171.73 -72.99,220.64 7.23,48.9 25.74,88.01 54.76,116.56l-10.13 18.08c-55.75,-42.06 -123.56,-85.96 -203.8,-131.73zm504.3 -1046.61l-575.87 1005.72c-45.95,-26.26 -117.89,-62.63 -215.81,-108.75l10.51 -18.08c56.09,15.33 106.13,7.34 149.72,-24.35 43.22,-30.93 96.16,-101.76 159.18,-211.75l244.6 -426.4c47.27,-82.86 71.99,-149.14 74.54,-199.57 2.17,-49.29 -17.48,-93.28 -58.56,-132.35l10.13 -18.08c73.47,52.18 140.9,96.46 201.56,133.61z"/>
  <path id="_15" class="fil4" d="M11192.28 2775.12l19.59 16.53c-57.81,74.61 -79.5,158.18 -65.78,250.73 12.58,90.29 52.59,164.73 120.04,222.93 52.02,45.07 106.99,66.8 165.32,65.57 57.95,-1.61 104.57,-22.76 140.25,-63.84 37.55,-43.34 50.63,-90.78 40.01,-141.56 -10.25,-49.66 -47.64,-127.86 -111.79,-234.62 -51.33,-86.08 -85.69,-150.36 -102.69,-192.11 -19.66,-49.25 -26.51,-98.16 -19.83,-146.72 5.56,-50.05 25.42,-94.87 59.22,-134.44 37.93,-43.71 89.43,-73.54 155.63,-90.21 -25.56,15.85 -45.1,31.69 -59,47.9 -37.18,42.96 -59.67,90.03 -67.11,140.47 -7.81,51.95 -3.59,100.11 12.67,144.11 15.88,44.75 49.86,109.78 102.7,195.11 69.8,110.51 110.23,201.5 122.02,272.61 11.78,69.21 -7.3,132.46 -56.49,189.75 -48.44,56.14 -113.49,89 -195.13,98.18 -82.39,9.17 -166.36,-23.04 -251.15,-96.27 -34.3,-29.67 -76.53,-77.38 -126.68,-142.77 -43.76,-57.13 -78.45,-97.33 -104.83,-120.99l-0.02 -11.66c8.64,-9.05 19.53,-20.73 32.67,-35.81 15.4,-17.71 37.18,-46.72 66.08,-87.03 29.28,-39.57 51.81,-68.59 67.95,-87.05 20.66,-23.75 39.44,-43.35 56.35,-58.81zm889.47 159.13l-17.72 -15.03c55.21,-65.19 70.89,-134.83 47.43,-209.68 -23.09,-73.33 -69.87,-140.23 -140.33,-201.07 -56.16,-48.44 -112.28,-76.19 -169.11,-83.24 -57.21,-7.8 -100.08,5.07 -129.01,38.61 -30.79,35.43 -40.5,76.09 -29.51,121.59 10.62,47.78 46.88,125.23 108.4,231.61 57.38,99.25 95.13,171.8 112.52,218.06 18.52,49.64 23.89,103.06 16.09,159.52 -8.56,57.22 -32.55,108.81 -71.98,154.41 -60.08,69.72 -132.66,101.83 -218.46,97.09 41.75,-9.86 82.71,-38.15 123.65,-85.64 38.31,-44.47 62.3,-93.05 71.24,-145.37 8.19,-53.83 5.47,-104.62 -8.54,-152.77 -14.01,-48.89 -46.87,-116.56 -98.57,-203.02 -78.12,-130.44 -122.31,-222.56 -133.7,-276.73 -10.63,-54.92 7.33,-110.26 55.03,-165.28 54.82,-63.32 123.27,-90.91 205.68,-82.77 81.3,8.89 169.06,53.89 262.53,135 64.06,54.84 132.31,133.36 205.11,235.21l-4.88 5.65 -25.9 33.16c-14.28,16.58 -31.17,37.31 -49.95,61.43 -22.89,29.76 -43.55,55.76 -62.33,77.24 -12.39,14.7 -28.54,32.04 -47.69,52.02z"/>
  <path id="_16" class="fil4" d="M12116.04 4246.16l-17.75 -22.53 910.11 -717.91 245.48 311.24c44.94,57.07 92.88,110.75 143.44,160.66 -11.25,8.31 -31.91,23.41 -61.96,44.2 -27.79,19.27 -61.58,44.58 -101.38,75.92 -25.53,20.02 -52.57,38.91 -80.74,56.68l-16.25 -21.03c46.18,-38.13 76.17,-81.12 89.58,-128.2 13.41,-47.83 -8.96,-109.1 -67.51,-183.44l-154.84 -196.36 -618.75 487.93c-70.58,55.88 -115.97,107.95 -135.77,156.17 -19.81,48.6 -17.42,97.13 7.18,145.99l-15.77 12.46c-72.93,-108.18 -114.87,-168.63 -125.07,-181.78zm616.68 -1089.62l225.08 285.34 -910.11 717.55 -20.4 -25.91c-29.45,-37.54 -77.39,-90.46 -143.44,-158.76l15.77 -12.47c49.78,38.25 99.87,52.02 151.01,40.59 50.02,-11.43 117.26,-50.37 201.75,-117.22l590.21 -465.28 -174.09 -220.39c-44.19,-55.94 -86.8,-86.3 -127.83,-91.08 -41.41,-4.77 -100.06,10.07 -176.36,44.91l-15.85 -19.91c7.12,-6.41 15.01,-13.21 23.65,-20.01 11.64,-9.05 27.41,-19.26 46.94,-31.36 67.24,-41.58 125.82,-82.39 176.14,-122.04 20.04,33.81 47.62,74 82.38,120.18l55.15 75.86z"/>
  <path id="_17" class="fil4" d="M13795.53 5208.31c-128.45,-45.83 -277.87,-40.61 -447.51,15.68 -199.03,65.56 -332.39,164.19 -400.08,295.92 6.48,-85.02 43.77,-163.09 111.51,-234.23 66.98,-71.14 151.55,-123.37 253.71,-157.07 70.49,-23.33 139.03,-33.13 206,-29.77 65.46,2.24 119.59,13.06 162.39,32.11 40.17,17.51 78.42,43.31 113.98,77.36zm-438.66 1110.4l7.05 20.73 -187.91 24.97c-46.74,-56.32 -85.95,-112.6 -118.01,-168.46 -31.69,-56.24 -56.98,-112.07 -75.12,-167.86 -55.93,-168.87 -50.25,-317.11 17.04,-445.44 65.78,-127.6 191.97,-222.51 377.81,-283.61 185.09,-61.48 343.49,-56.88 475.58,13.06 131.33,69.56 224.4,188.22 279.96,355.6 39.99,121 58.5,250.93 55.87,389.76 -89.31,23.23 -142.06,37.63 -158.27,42.81 -14.7,4.82 -28.65,10.01 -42.22,15.21l-25.27 8.52c-36.19,11.85 -71.23,21.44 -105.14,28.79l-5.93 -17.72c196.29,-112.97 261.45,-268.03 195.91,-466.33 -44.45,-133.81 -122.98,-226.06 -236.36,-276.7 -112.61,-51.02 -250.35,-49.5 -413.57,4.57 -142.5,47.04 -246.38,122.12 -311.28,224.51 -65.26,102 -73.83,226.52 -25.31,372.77 26.67,81.05 67.32,149.38 121.58,205.73 52.39,56.35 110.5,95.8 173.59,119.09z"/>
  <path id="_18" class="fil4" d="M14350.02 6688.65l-1157.69 94.33 -32.65 -234.23 20.31 -1.63c12.62,34.54 33.87,63.01 64.49,85.41 29.85,21.27 63.43,33.86 101.46,38.52 37.28,4.28 101.24,2.77 191.89,-4.55l506.25 -41.47c107.57,-8.56 179.7,-28.56 216.39,-59.64 36.7,-29.95 57.91,-67.34 63.67,-111.02l20.3 -2c-2.35,45.92 -0.37,124.93 5.58,236.28zm-1084.49 994.38l1157.7 -93.96c6.5,78.99 17.51,158.32 33.05,237.63l-20.32 1.63c-34.03,-90.86 -126.1,-132.07 -277.33,-123.25l-104.2 5.15 -496.85 40.27c-163.99,13.42 -252.45,70.4 -265.76,170.95l-20.31 1.63c-2.36,-140.34 -4.35,-220.11 -5.98,-240.05zm1151.17 -175.95l-1157.69 94.33c-3.58,-32.34 -14.6,-112.79 -33.44,-241l20.31 -1.63c13.43,43.95 41.49,78.4 84.92,103.72 43.05,24.95 123.25,33.12 240.22,23.38l231.32 -18.71 -45.16 -557.41 -266.66 21.56c-103.06,8.53 -171.43,28.88 -204.72,61.08 -33.29,32.94 -53.38,71.06 -60.26,114.38l-20.32 1.63c0.2,-91.44 -1.8,-172.71 -6,-244.18l1157.69 -93.96c4.91,64.32 16.31,145.16 33.09,241.76l-20.32 1.63c-20.66,-56.7 -54.38,-94.12 -100.77,-112.29 -46.4,-18.52 -124.33,-23.32 -234.16,-14.37l-182.78 15.03 45.15 557.41 209.5 -17.07c91.39,-7.33 159.39,-25.06 204.38,-53.18 43.85,-29.24 70.32,-70.42 79.02,-123.53l20.32 -1.63c-2.53,79.79 -0.53,161.06 6.36,243.05z"/>
  <path id="_19" class="fil4" d="M14156.57 9448.01l-1131.16 -261.08 23.33 -100.47c21.44,12.41 54.94,24.08 100.09,35.37 -50.43,-136.97 -60.22,-270.56 -30.13,-400.75 17.69,-76.77 50.04,-140 96.7,-189.67 46.66,-49.3 98.59,-78.27 156.16,-86.17 58.7,-8.3 136.59,-1.15 234.06,21.42l737.92 170.42c-17.3,74.88 -31.97,159.17 -43.63,252.12l-20.32 -4.89c2.63,-40.64 -5.65,-76.39 -24.09,-106.12 -19.95,-31.97 -44.79,-54.93 -74.52,-69.23 -31.23,-16.18 -81.27,-32.36 -150.89,-48.53l-22.2 -6.02 -410.17 -94.8c-91.07,-21.06 -158.43,-29.34 -202.45,-25.2 -45.16,3.01 -87.31,24.46 -125.69,63.98 -38.75,39.89 -65.84,94.46 -82.01,163.31 -25.21,110.26 -11.65,236.7 40.67,378.56l627.29 144.84c80.9,18.42 140.73,28.21 179.86,28.96 36.88,0.74 70,-7.53 100.1,-25.59 27.09,-17.32 50.42,-43.66 69.23,-80.16l20.33 4.89c-1.13,4.14 -3.76,13.92 -7.9,29.72 -4.15,15.43 -9.41,32 -15.06,49.68 -18.05,57.57 -33.1,109.5 -45.52,155.41zm273.12 -1122.13l-68.47 235.94 -745.83 -171.92c-111.01,-25.58 -190.41,-36.11 -238.57,-31.22 -48.92,4.15 -100.47,26.72 -154.28,66.99 17.69,-43.27 43.65,-79.78 78.26,-109.5 33.87,-29.74 70.74,-46.67 109.88,-50.44 38,-3.39 97.46,4.52 179.11,23.32l513.66 118.5c87.3,20.32 154.28,23.33 201.31,9.4 47.04,-14.3 82.04,-46.29 104.62,-95.96l20.31 4.89zm-1436.26 999.53l13.93 -60.95 1131.16 261.07c-10.53,53.81 -17.68,95.2 -21.44,123.8l-21.07 122.67 -20.32 -4.5c1.88,-38.01 -7.53,-73.39 -28.6,-106.12 -20.7,-31.23 -50.06,-55.32 -87.31,-72.25 -35,-15.79 -103.86,-35.36 -206.96,-59.06l-472.64 -109.1c-177.24,-41 -285.23,-11.64 -323.23,88.07l-19.2 -4.13c30.86,-92.57 49.28,-152.4 55.68,-179.5z"/>
  <path id="_20" class="fil4" d="M13031.88 10736.92c45.37,76.85 108.84,136.44 189.66,178.38 74.05,37.78 160.57,51.88 260.31,41.55 -105.54,87.08 -209.44,104.18 -312.06,50.91 -103.75,-53.65 -149.84,-143.68 -137.91,-270.84zm785.3 -347.59l-1030.72 -532.33 21.92 -42.1c8.31,-16.16 19.28,-43.24 32.91,-80.84 12.48,-31.58 29.11,-67.3 50.26,-107.89l18.04 9.45c-17.02,43.98 -14.48,89.15 8.01,135.48 22.11,46.33 85.59,96.51 190.1,150.16l502.56 259.93c142.47,73.3 248.6,67.12 318.77,-19.29l18.04 9.45c-26.8,39.08 -70.23,111.62 -129.89,217.98zm-345.1 14.72l-212.76 -109.95c-29.8,33.44 -56.22,72.52 -79.26,117.62 -75.94,146.6 -37.04,259.19 115.95,338.53 143.22,73.68 252.04,38.16 327.22,-107.32 24.18,-46.61 33.68,-88.36 28.11,-124.12 -19.9,-25.25 -79.65,-63.38 -179.26,-114.76zm-736.99 -447.44l14.73 -28.57 1030.7 532.71c-20.4,39.09 -39.67,81.58 -57.83,128.2 -21.94,53.39 -40.84,95.88 -57.46,127.82 -46.1,89.09 -107.17,141.64 -183.59,157.67 -77.17,15.26 -155.42,2.31 -235.47,-38.87 -135.71,-70.27 -193.07,-171.99 -172.1,-305.53 -37.36,52.6 -78.46,91.28 -124.42,116.02 -49.34,26.24 -137.47,59.54 -264.74,99.17 -194.29,60.56 -312.22,131.06 -353.78,211.5 -8.31,16.16 -11.36,35.73 -9.15,58.68l-19.93 -5.31c-20.23,-43.68 -18.26,-88.84 5.54,-135.08 25.69,-49.62 70.93,-91.67 136.11,-126.9 61.41,-32.62 169.48,-73.03 324.24,-120.5 187.51,-56.44 310.74,-141.6 370.05,-256.25 -58.82,59.71 -183.11,117.03 -372.51,172.7 -132.54,39.24 -232.33,74.41 -299,104.75 -67.42,31.09 -113.03,70.52 -137.59,118.25l-9.77 -5.29c3.81,-25.95 11.39,-49.64 22.34,-71.08 32.87,-63.15 77,-109.71 133.13,-139.32 30.51,-15.37 73.45,-32.96 129.17,-52.42 55.73,-19.07 126.14,-40.75 210.86,-64.28 123.5,-35.13 210.11,-63.92 259.83,-86.39 51.6,-24.36 93.43,-52.87 125.48,-84.78l-231.17 -119.77c-156,-80.1 -264.76,-76.94 -327.03,9.86l-18.04 -9.07c47.94,-74.41 84.95,-137.17 111.4,-187.92z"/>
  <path id="_21" class="fil4" d="M12824.46 11731.05c-26.95,-133.91 -108.07,-259.08 -243.74,-376.25 -158.66,-136.69 -311.93,-200.76 -459.42,-191.47 76.32,-37.77 162.1,-46.2 257.72,-24.55 94.86,20.91 183.37,66.29 264.77,136.89 55.78,48.07 99.53,101.81 130.87,160.83 31.7,57.51 50.23,109.41 55.58,155.69 6.1,44.02 4.3,90.3 -5.78,138.86zm-1178.23 193.23l-14.26 16.95 -118.04 -148.43c23.96,-69.27 52.08,-132.17 83.58,-188.29 31.51,-56.13 66.42,-106.23 104.72,-150.7 116.42,-134.55 246.87,-205.89 391.74,-213.68 143.35,-8.9 289.08,50.68 437.57,178.73 147.72,127.3 225.48,265.65 233.27,415.03 7.79,148.24 -46.15,289.08 -161.06,422.48 -83.37,96.86 -185.96,179.07 -307.38,247.01 -65.97,-64.98 -105.17,-102.92 -117.98,-113.81 -11.69,-10.13 -23.37,-19.52 -35.06,-28.53l-19.96 -17.27c-28.65,-25.17 -55.03,-49.96 -78.78,-75.12l12.39 -14.33c197,109.91 363.65,85.92 499.97,-71.62 92.01,-107.03 130.94,-221.87 116.42,-344.89 -14.13,-122.65 -86.2,-239.93 -215.85,-351.84 -113.43,-98.01 -230.93,-148.61 -352.1,-151.41 -120.8,-3.54 -231.71,53.09 -332.35,169.92 -55.58,64.44 -93.84,134.51 -114.4,209.79 -20.94,73.8 -25.34,143.8 -12.44,210.01z"/>
  <path id="_22" class="fil4" d="M11828.01 12948.78l-679.3 -941.1 183.3 -149.23 11.03 15.73c-22.75,28.38 -36.05,61.6 -39.54,99.63 -2.75,36.15 3.91,71.85 19.97,106.73 15.68,34.12 49.93,88.06 103.53,161.81l297.64 412.52c63.1,87.61 117.66,139.14 162.94,154.62 44.89,15.48 87.77,14.41 128.29,-3.19l11.4 15.72c-40.48,21.75 -107.15,63.99 -199.26,126.76zm-1412.27 -412.34l679.29 941.1c-64.39,46.75 -126.86,97.25 -186.3,151.87l-11.4 -15.72c60.03,-76.08 47.64,-176.46 -37.93,-301.15l-58.21 -86.49 -292.32 -405.05c-96.56,-133.64 -191.34,-180.37 -284.37,-139.42l-11.41 -15.73c119.12,-74.62 186.55,-117.63 202.65,-129.41zm745.93 893.2l-679.29 -941.1c25.82,-19.76 89.04,-70.64 189.29,-153.41l11.03 15.74c-30.62,33.71 -45.36,75.96 -44.62,126.38 1.12,50.04 35.89,123.17 105.07,218.62l136.47 189.42 453.7 -327.67 -157.37 -217.86c-60.81,-84.24 -113.47,-132.39 -158.72,-144.49 -45.61,-11.71 -88.5,-9.13 -129.02,7.34l-11.4 -15.72c78.31,-47.23 146.85,-91 205.64,-131.32l679.29 941.1c-52.41,38.01 -115.63,89.28 -189.67,153.78l-11.4 -15.72c37.66,-46.93 52.37,-95.21 44.11,-144.44 -8.26,-48.87 -44.52,-118.22 -108.76,-207.32l-107.57 -148.98 -453.71 327.67 122.78 170.33c53.61,74.12 104,123.05 151.22,147.17 47.95,22.22 96.89,23.38 146.79,3.82l11.4 15.72c-70.09,38.89 -138.25,82.66 -205.26,130.94z"/>
  <g id="Globe">
   <circle class="fil5" cx="7620.01" cy="7620.01" r="5080"/>
   <g>
    <path class="fil6" d="M8264.19 2850.52c-0.16,0.9 -603.69,298.91 -635.07,372.1 -8.22,19.2 -72.47,47.92 -89.25,89.14 -0.51,1.25 -88.79,95.91 -99.34,145.6 -12.31,58.03 -58.6,145.04 -79.45,269.17 -43.41,258.4 0.02,1330.05 156.45,1634.51 105.45,205.25 42.47,127.81 285.78,185.24 72.42,17.1 -110.7,152.22 68.32,188.61 71.73,14.59 270.09,110.52 364.29,118.77 82.65,7.24 855.46,233.8 891.21,294.16 0.51,0.87 98.11,68.5 147.87,168.49 46.67,93.81 161.53,252.53 198.38,363.63 24.74,74.61 349.71,639.2 285.56,575.09 -103.76,-103.71 -549.11,-252.16 -694.84,-293.3 -196.61,-55.52 -326.54,-84.6 -530.26,-118.77 -140.95,-23.62 -469.16,-18.25 -604.36,62.58 -148.34,88.67 -247.49,107.01 -358.1,268.76 -39.62,57.95 -145.18,219.33 -206.7,246.23 -27.91,12.21 -370.19,259.05 -312.78,347.97 50.21,77.8 142.79,205.57 105.24,300.34 -76.94,194.17 -64.97,466.33 159.01,552.18 153.11,58.68 346.15,259.12 406.06,255.07 133.54,-9.02 106.67,-229.06 304.18,-32.54 112.56,111.99 277.12,-336.5 520.24,56.26 82.15,132.7 -142.22,130.24 93.05,408.41 361.13,426.98 -23.9,304.84 60.37,862.88 23.83,157.86 92.44,-29.8 110.68,418.53 6.08,149.17 65.7,359.29 178.07,467.94 76.05,73.53 125.68,175.14 227.81,73.07 142.97,-142.89 30.12,-104.73 289.08,-112.42 161.65,-4.8 341.97,-375.68 374.12,-520.87 35.37,-159.74 173.33,-433.84 302.76,-539.88 139.08,-113.95 147.11,-437.38 65.69,-566.76 -83.66,-132.93 6.53,-168.26 107.54,-273.08 90.33,-93.73 284.16,-215.22 406.07,-337.48 96.7,-96.97 164.62,-170.4 237.55,-286.28 206.84,-328.67 -390.18,28.56 -558.11,-140.16 -106.48,-106.98 -110.34,-143.04 -178.39,-275.4 -82.37,-160.17 -224.3,-642.65 -381.41,-736.71 -4.34,-2.6 337.14,18.62 558.54,-59.33 359.55,-126.61 418.71,-1162.26 903.28,-1169.84 324.73,-5.08 469.22,105.73 728.94,234.21 139.9,69.19 308.18,185.83 311.06,353.83 3.12,182.24 -66.62,442.2 19.32,594.67 13.82,24.51 162.18,229.71 159.25,163.83 -25.24,-566.13 -91.27,-1054.38 -297.15,-1579.65 -126.05,-321.57 -210.01,-489.49 -373.13,-784.01 -53.29,-96.24 -271.62,-440.93 -337.1,-503.35 -59.29,-56.53 -170.17,-219.79 -257.77,-307.37 -110.06,-110.07 -245.89,-243.02 -347.05,-346.84 -32.57,-33.42 -229.42,-214.21 -256.85,-217.83 -3.09,-6.35 -14.24,-18.12 -20.8,-19.81 -3.12,-12.22 -16.43,-18.25 -28.8,-19.81 -6.2,-13.24 -39.66,-36.95 -50.58,-39.64 -2.8,-12.28 -16.41,-18.35 -28.77,-19.82 -5.87,-13.29 -40.19,-37.31 -50.44,-39.64 -1.57,-5.89 -27.62,-19.3 -29.83,-19.81 -2.5,-11.89 -15.98,-18.41 -28.82,-19.83 -4.95,-12.24 -16.01,-18.34 -29.74,-19.83 -4.86,-12.23 -16.03,-18.38 -29.77,-19.82 -4.77,-12.29 -15.98,-18.38 -29.74,-19.8 -4.68,-12.28 -15.98,-18.45 -29.74,-19.83 -4.59,-12.27 -16,-18.46 -29.75,-19.83 -4.49,-12.26 -15.99,-18.48 -29.75,-19.8 -4.39,-12.3 -15.9,-18.53 -29.69,-19.82 -2.35,-6.03 -28.37,-19.44 -30.52,-19.83 -1.94,-9.21 -29.24,-18.92 -39,-19.8 -4,-12.26 -15.86,-18.63 -29.62,-19.84 -2.29,-6.27 -28.41,-19.45 -30.49,-19.81 -1.82,-9.3 -29.2,-18.98 -38.98,-19.8 -2.19,-6.5 -28.34,-19.49 -30.41,-19.83 -1.76,-9.4 -29.17,-19.05 -38.98,-19.83 -2.98,-9.26 -29.44,-19 -39.67,-19.8 -2.11,-6.7 -28.35,-19.52 -30.36,-19.83 -1.65,-9.53 -29.18,-19.09 -39.04,-19.82 -2.79,-9.4 -29.39,-19.07 -39.65,-19.81 -2.75,-9.47 -29.38,-19.09 -39.66,-19.82 -2.68,-9.49 -29.38,-19.13 -39.65,-19.83 -2.63,-9.53 -29.34,-19.13 -39.6,-19.81 -2.45,-8.35 -41.88,-19.32 -49.65,-19.82 -2.46,-9.64 -29.3,-19.17 -39.57,-19.81 -2.35,-8.47 -41.9,-19.36 -49.64,-19.84 -2.35,-9.73 -29.29,-19.2 -39.58,-19.82 -2.26,-8.56 -41.89,-19.36 -49.57,-19.81 -2.17,-8.65 -41.89,-19.37 -49.58,-19.81 -2.11,-8.7 -41.9,-19.42 -49.57,-19.85 -2.55,-10.86 -46.48,-19.35 -59.05,-19.8 -3.85,-12.8 -34.76,-19.32 -49.51,-19.83 -3.42,-10.88 -46.54,-19.38 -59.51,-19.81 -3.26,-10.92 -46.54,-19.42 -59.48,-19.84 -3.17,-10.98 -46.52,-19.4 -59.48,-19.8 -3.65,-13.19 -53.62,-19.49 -69.03,-19.83 -3.79,-11 -46.54,-19.43 -59.81,-19.8 -2.69,-9.88 -57.39,-19.51 -69.42,-19.84 -3.01,-11.74 -64.13,-19.52 -78.95,-19.81 -3.7,-11.73 -64.12,-19.54 -79.27,-19.82 -3.36,-10.59 -74.02,-19.54 -89.23,-19.81 -3.62,-12.14 -81.52,-19.6 -98.85,-19.84 -3.29,-9.57 -68.07,-19.44 -79.99,-19.29 -1.99,11.51 -237.09,119.39 -238.07,121.03z"/>
    <path class="fil6" d="M3168.82 5425.07c-34.44,24.46 -291.86,694.79 -294.95,755.23 -1.74,33.84 -95.9,303.56 -99.05,384.29 -3.64,93.27 -75.83,330.19 -78.95,480.57 -3.16,152.22 -96.96,731.85 14.47,752.36 1.03,0.19 95.68,91.85 128.54,99.28 40,9.04 186.47,158.86 370.96,120.45 246.72,-51.37 567.97,-336.77 766.76,-495.06 38.58,-30.71 427.91,-318.33 437.33,-321.83 29.92,-11.1 382.66,-336.95 393.1,-389.67 19.18,-96.85 122.01,-214.62 235.67,-224.56 139.92,-12.25 273.2,-69.66 210.7,-233.09 -48.08,-125.7 -138.61,-337.21 -82.72,-454.01 88.6,-185.18 61.72,-126.14 -55.15,-327.82 -100.37,-173.2 218.66,-323.59 316.21,-428.77 134.83,-145.39 213.7,-227.36 360.86,-360.88 291.38,-264.4 668.77,-138.83 705.38,-357.47 17.44,-104.13 -168.83,76.77 -268.6,-260.4 -45.09,-152.39 -74.58,-321.81 -236.08,-331.32 -225.36,-13.29 -270.66,-40.41 -330.6,-271.33 -6.5,-25.03 -35.93,-564.86 -112.31,-451.03 -1.12,1.68 -378.45,200.61 -420.88,222.36 -240.01,122.99 -489.84,322.97 -702.4,494.5 -200.06,161.45 -293.94,282.3 -465.06,447.56 -110.07,106.29 -371.1,429.79 -444.81,554.2 -47.93,80.91 -264.82,402.72 -277.18,463.41 -0.39,1.92 -70.58,132.33 -71.24,133.03z"/>
    <path class="fil6" d="M6192.49 11460.83c19.92,-126.16 -166.46,-95.45 -240.02,-150.89 -46.02,-34.67 -430.24,-61.39 -262.97,-239.09 161.04,-171.12 -95,-582.49 -5.97,-937.59 54.72,-218.24 111.38,-214.12 105.47,-445.62 -7.63,-299 58.6,-315.3 223.87,-455.2 224.09,-189.68 126.52,-291.1 33.72,-518.26 -81.57,-199.69 272.91,-266.71 38.6,-553.8 -95.45,-116.95 -400.05,128.55 -736.5,-112.64 -79.28,-56.83 -676.46,-345.16 -730.45,-325.28 -177.07,65.22 -170.3,12.58 -317.4,140.47 -1.67,1.46 -277.89,40.36 -348.64,78.16 -317.07,169.41 -342.01,122.74 -360.69,555.2 -6.07,140.54 -14.05,655 189.06,765.87 117.35,64.07 201.31,129.28 343.36,191.12 96.78,42.13 354.25,150.17 383.62,247.33 110.67,366.02 126.8,740.02 206.53,1119.36 29.81,141.83 108.97,604.66 170.43,697.16 4.06,6.1 60.91,141.9 61.29,145.82 6.39,1.44 64.02,115.57 87.7,121.29 0.87,13.82 7.6,27.93 19.9,29.24 0.32,2.65 66.24,87.84 98.84,89.14 6.69,45.81 359.63,94.67 368.11,49.47 97.27,-1.96 204.27,-267.71 383.55,-278.83 3.06,-10.12 192.26,-121.54 221.05,-146.57 9.48,-8.25 65.3,-56.91 67.54,-65.86z"/>
   </g>
   <path class="fil7" d="M11640 9904.26c81.28,-41.4 158.32,-83.38 230.92,-125.84l121.21 -70.9 -64.24 124.83c-115.02,223.52 -247.18,437.26 -394.79,639.45 -148.77,203.81 -312.49,395.05 -489.38,571.95 -213.98,213.98 -448.17,408.17 -699.48,579.51 -248.73,169.56 -514.22,316.63 -793.45,438.17l-298.66 130 257.37 -199.78c141.65,-109.96 277.58,-231.47 406.98,-363.49 130.24,-132.86 253.66,-276.07 369.47,-428.61 108.73,-143.21 211.19,-295.27 306.71,-455.32 94.88,-158.96 182.83,-325.82 263.19,-499.71l7.36 -15.94 16.48 -5.67c90.76,-31.24 178.48,-63.43 262.91,-96.49 86.8,-33.97 169.65,-68.49 248.32,-103.46 83.88,-37.27 166.97,-76.87 249.08,-118.7zm-1855.08 610.12c235.07,-46.63 460.99,-100.52 676.21,-160.99l92.04 -25.87 -44.99 84.44c-61.27,114.96 -126.33,226.36 -194.85,333.81 -68.58,107.51 -140.73,211.14 -216.2,310.54 -241.32,317.83 -516.12,591.34 -816.62,810.31 -295.18,215.11 -614.98,377.62 -952.06,477.97l-131.9 39.25 89 -104.86c111.71,-131.61 217.14,-291.48 315.12,-476.32 99.43,-187.61 191.11,-400.64 273.82,-635.68 27.87,-79.24 54.88,-161.27 80.94,-245.91 25.7,-83.47 50.73,-170.46 75,-260.74l7.16 -26.65 27.41 -3.43c247.71,-31.06 488.17,-69.91 719.92,-115.87zm-1608.65 191.67c186.14,-8.63 369.11,-21.51 548.44,-38.38l59.51 -5.6 -16.47 57.45c-17.63,61.5 -36.72,124.55 -57.23,189.09 -19.87,62.6 -39.97,122.72 -60.2,180.24 -147.68,419.75 -319.09,760.11 -505.42,996.21 -184.34,233.56 -384.6,366.59 -592.9,376.12l-34.58 -0.56 -34.68 -0.76c-204.16,-17.69 -400.37,-154.03 -581.09,-387.12 -182.5,-235.38 -350.5,-571.23 -495.7,-983.87 -22.36,-63.57 -43.49,-126.79 -63.34,-189.59 -20.04,-63.41 -39.95,-129.91 -59.66,-199.35l-16.57 -58.41 60.42 6.73c209.4,23.29 423.21,41.06 640.5,52.92 212.71,11.61 430.52,17.6 652.71,17.6 189.54,0 375.11,-4.31 556.26,-12.72zm-2928.12 -235c235.66,52.26 481.9,97.08 737.07,133.73l26.81 3.84 6.95 26.24c25.21,95.03 51.3,186.51 78.15,274.24 26.95,88.1 55.21,174.15 84.67,257.9 82.7,235.04 174.37,448.05 273.81,635.66 97.98,184.84 203.42,344.72 315.12,476.32l89.01 104.86 -131.91 -39.25c-337.08,-100.35 -656.89,-262.87 -952.08,-477.97 -300.52,-218.99 -575.3,-492.47 -816.63,-810.31 -82.71,-108.93 -161.25,-222.64 -235.27,-340.65 -74.29,-118.43 -144.34,-241.47 -209.81,-368.63l-44.71 -86.87 93.21 29.09c218.04,68.05 447.16,128.91 685.61,181.8zm-1255.43 -386.67c46.72,19.28 96.39,39.01 148.91,59.12l15.95 6.1 6.94 15.66c83.95,189.35 176.7,370.51 277.43,542.43 101.52,173.29 211.26,337.59 328.37,491.86 79.61,104.84 162.75,205.23 249.13,300.76 86.33,95.5 175.79,186.07 268.09,271.38l257.96 238.42 -305.8 -172.96c-190.92,-107.99 -374.04,-228.77 -548.2,-361.21 -175.42,-133.41 -340.9,-277.87 -495.23,-432.19 -176.9,-176.9 -340.61,-368.16 -489.37,-571.96 -147.59,-202.19 -279.75,-415.92 -394.76,-639.43l-64.23 -124.82 121.2 70.89c72.61,42.46 149.68,84.45 230.95,125.85 82.11,41.82 165.18,81.42 249.04,118.68 45.47,20.2 93.36,40.69 143.62,61.42zm-509.51 -472.05c-137.15,-79.26 -262.66,-162.51 -375.28,-249.18l-9.19 -7.08 -4.08 -10.68c-103.37,-270.95 -183.16,-553.93 -236.79,-846.37 -52.37,-285.5 -79.74,-579.31 -79.74,-878.99l1.05 -106.8 57.95 27.95c100.45,48.46 206.81,95.15 318.69,139.93 112.95,45.21 230.85,88.31 353.27,129.11l54.5 17.86 82.72 26.27 1.13 28.97c13.17,337.29 51.67,666.4 112.99,983.99 62.8,325.13 149.51,637.76 257.51,934.34l32.63 89.59c-40.02,-17.5 -80.03,-34.97 -119.98,-52.63 -160.77,-71.45 -310.33,-147.08 -447.38,-226.28zm1617.69 617.24c-257.8,-63.11 -501.8,-135.49 -729.6,-216.03l-16.9 -5.99 -7.11 -16.73c-129.22,-304.63 -234.28,-629.64 -311.74,-970.46 -75.51,-332.26 -124.83,-679.63 -144.79,-1037.86l-3.15 -56.53 54.68 14.93c253,69.03 524.23,131.23 810.98,185.66 282.52,53.62 580.21,99.66 890.49,137.19l34.34 4.15 1.67 34.57c17.66,366.91 49.34,721.28 93.45,1058.54 45.11,344.94 103.27,672.37 172.77,977.41l13.32 58.46 -59.41 -9.17c-278.1,-42.95 -545.19,-96.01 -799,-158.14zm1821.28 266.09c-233.2,-13.78 -460.91,-34.28 -682.06,-61.03l-28.18 -3.42 -6.71 -27.62c-73.9,-304.96 -135.98,-634.95 -184.28,-984.53 -47.2,-341.61 -81.36,-702.34 -100.7,-1077.11l-2.44 -47.42 47.25 4.69c264.9,26.31 537.74,46.48 816.99,59.98 272.14,13.17 551.9,19.99 837.96,19.99 253.61,0 501.52,-5.33 742.89,-15.65 245.88,-10.53 488.9,-26.41 727.9,-47.28l46.8 -4.09 -2.48 46.97c-19.87,375.99 -54.67,737.69 -102.58,1079.97 -49.04,350.3 -111.9,680.68 -186.65,985.65l-6.89 28.07 -28.64 2.97c-192.54,19.87 -389.4,35.04 -589.88,45.19 -198.42,10.05 -398.83,15.22 -600.47,15.22 -235.67,0 -468.64,-7.01 -697.83,-20.55zm3008.23 -217.61c-248.9,54.54 -509.94,100.61 -781.15,137.34l-58.59 7.94 13.3 -57.54c70.63,-305.64 129.8,-633.79 175.77,-979.52 44.98,-338.37 77.44,-694.09 95.74,-1062.58l1.74 -34.96 34.75 -3.76c306.49,-33.22 602.45,-74.84 885.44,-124.02 286.11,-49.73 558.43,-107.18 814.44,-171.48l54.27 -13.64 -3.54 55.88c-23.06,363.98 -76.35,716.13 -156.52,1052.06 -82.29,344.81 -192.97,673 -328.39,979.73l-7.5 16.96 -17.63 5.61c-227.44,72.19 -468.85,136.48 -722.13,191.98zm1255.77 -386.33c-40.24,16.73 -82.97,33.9 -128.18,51.5l-85.92 33.43 32.95 -86.09c115.08,-300.75 207.99,-618.12 275.9,-948.35 66.37,-322.72 109.05,-658.21 125.42,-1002.92l1.38 -29.13 28.07 -8.14c47.82,-13.89 97.84,-28.97 149.96,-45.18 52.72,-16.39 101.1,-31.94 145.17,-46.62 122.41,-40.79 240.29,-83.88 353.22,-129.08 111.9,-44.79 218.28,-91.5 318.74,-139.96l57.95 -27.95 1.05 106.8c0,299.69 -27.38,593.51 -79.74,879.02 -53.64,292.44 -133.44,575.44 -236.82,846.4l-4.08 10.68 -9.19 7.09c-112.61,86.66 -238.09,169.87 -375.22,249.11 -137.07,79.19 -286.62,154.81 -447.41,226.28 -43.73,19.43 -84.8,37.13 -123.25,53.11zm-8013.58 -2458.6c-128.28,-52.8 -247.47,-107.57 -356.75,-164l-24.24 -12.51 2.15 -27.02c30.58,-383.24 105.85,-754.02 220.55,-1107.08 117.7,-362.26 277.01,-705.89 472.26,-1025.15l21.37 -34.93 34.8 21.32c71.61,43.86 146.9,86.09 225.53,126.62 79.87,41.18 163.05,80.58 249.24,118.16l35.59 15.52 -13.66 36.33c-125.08,332.5 -223.2,685.41 -290.6,1053.72 -65.59,358.46 -102.15,731.47 -106.18,1114.44l-0.58 55.94c-5.31,-1.75 -57.86,-18.63 -58.58,-19.36 -145.87,-48.62 -283.11,-99.37 -410.9,-152zm1550.35 446.1c-288.15,-56.52 -559.97,-121.26 -812.51,-193.21l-29.43 -8.4 -0.3 -57.42 -0.17 -0.16c0,-380.55 33.07,-750.81 95.6,-1106.01 64.3,-365.34 160,-715.12 283.11,-1044.12l14.24 -38 37.93 13.84c210.35,76.77 435.65,144.88 672.44,204.25 243.01,60.93 497.26,112.48 759.06,154.63l39.33 6.33 -5.24 39.28c-37.08,278.23 -65.71,568.7 -84.97,868.8 -18.71,291.61 -28.5,592.72 -28.5,901 0,68.61 0.33,128.53 0.98,179.91 0.75,59.89 1.9,120.02 3.41,180.31l1.2 47.42 -46.96 -5.82c-313.77,-38.91 -614.46,-86.77 -899.22,-142.63zm2047.78 240.93c-282.85,-13.99 -558.91,-34.87 -826.51,-62.1l-35.78 -3.64 -1.02 -35.88c-1.84,-65.44 -3.25,-131.91 -4.19,-199.34 -1.03,-73.45 -1.57,-139.98 -1.57,-199.16 0,-301 9.57,-596.38 27.86,-883.72 18.66,-293.1 46.53,-577.54 82.72,-850.76l5.36 -40.45 40.4 5.25c251.03,32.66 508.55,57.25 769.51,73.73 261.42,16.51 526.61,24.78 792.49,24.78 234.76,0 468.48,-6.39 698.99,-19.18 229.95,-12.75 458.31,-31.9 682.94,-57.41l39.75 -4.52 5.22 39.88c35.26,270.14 62.4,551.09 80.56,840.35 17.81,283.71 27.12,575.16 27.12,872.05 0,62.47 -0.58,131.94 -1.69,208.04 -1.04,70.39 -2.57,139.78 -4.57,208.1l-1.08 36.28 -36.21 3.25c-240.33,21.51 -486.4,37.94 -737.01,48.9 -248.48,10.85 -500.21,16.47 -754.02,16.47 -287.16,0 -570.79,-7.15 -849.27,-20.92zm3556.99 -205.49c-285.19,51.14 -584.3,94.38 -894.66,128.85l-46.54 5.16 1.25 -46.76c1.7,-63.75 2.98,-127.37 3.82,-190.79 0.74,-55.49 1.11,-119.2 1.11,-191.09 0,-303.26 -9.46,-599.52 -27.59,-886.58 -18.65,-295.48 -46.38,-581.61 -82.28,-855.91l-5.25 -40.04 39.97 -5.73c263.55,-37.7 519.61,-84.44 764.6,-140.17 239.83,-54.56 469.17,-117.71 684.69,-189.4l37.7 -12.53 13.51 37.34c116.34,321.45 206.69,662.36 267.4,1017.93 59.08,345.88 90.27,705.7 90.27,1075.09l-1.06 108.57 -30.17 7.89c-255.22,66.76 -528.39,126.45 -816.77,178.17zm1234.86 -298.95c-32.33,10.28 -64.34,20.24 -96.02,29.86l-52.55 15.98 -0.1 -55.03c-0.74,-380.38 -33.67,-751.57 -95.34,-1108.99 -63.38,-367.28 -157.11,-719.37 -277.5,-1051.44l-13.57 -37.39 36.94 -14.62c118.58,-46.91 230.95,-96.25 336.34,-147.95 104.06,-51.06 203.08,-105.19 296.47,-162.39l34.81 -21.31 21.36 34.92c195.25,319.27 354.56,662.89 472.27,1025.16 114.7,353.05 189.97,723.82 220.55,1107.06l2.15 27.02 -24.24 12.51c-109.31,56.45 -228.51,111.22 -356.83,164.06 -127.77,52.6 -264.98,103.35 -410.82,151.96 -31.11,10.36 -62.43,20.58 -93.92,30.59zm-2961.92 -4178.33c-97.98,-184.85 -203.42,-344.73 -315.13,-476.34l-89 -104.86 131.9 39.25c337.08,100.35 656.89,262.87 952.07,477.97 300.52,218.99 575.31,492.5 816.62,810.33 117.78,155.12 227.64,320.8 328.64,495.83 100.69,174.51 192.5,357.94 274.5,549.1l17.55 40.94 -42.36 13.96c-206.3,68.01 -426.55,128.05 -657.51,180.08 -235.58,53.06 -481.62,97.57 -734.68,133.5l-39.63 5.63 -6.31 -39.72c-44.16,-277.85 -97.01,-542.41 -157.51,-790.85 -60.95,-250.23 -129.73,-484.26 -205.33,-699.15 -82.7,-235.04 -174.39,-448.06 -273.82,-635.67zm-2621.18 1322.46c-59.8,243.99 -112.18,503.6 -156.19,776.12l-6.52 40.38 -40.22 -6.45c-252.38,-40.47 -496.3,-89.63 -728.23,-147.41 -226.94,-56.54 -442.89,-121.45 -644.55,-194.69l-41.19 -14.96 17.66 -39.93c79.76,-180.28 168.4,-353.65 265.14,-519.01 96.76,-165.39 201.6,-322.46 313.73,-470.16 241.32,-317.84 516.11,-591.34 816.63,-810.33 295.19,-215.11 615.01,-377.64 952.1,-477.99l131.91 -39.25 -89.01 104.86c-111.71,131.61 -217.15,291.48 -315.13,476.32 -99.44,187.62 -191.12,400.64 -273.82,635.68 -74.36,211.38 -142.13,441.23 -202.31,686.82zm1568.35 -2219.91l-19.71 0.06c-51.98,0 -102.22,1.22 -150.7,3.63 -50.31,2.49 -100.33,6.24 -149.96,11.19l-0.96 0.16c-613.2,46.96 -1195.93,202.78 -1728.82,448.16 -549.87,253.19 -1046.87,601.87 -1469.78,1024.78 -468.53,468.53 -845.91,1027.93 -1103.29,1649.3 -247.83,598.3 -384.61,1254.49 -384.61,1942.82 0,688.31 136.78,1344.49 384.61,1942.79 257.38,621.37 634.76,1180.77 1103.29,1649.31 422.91,422.9 919.92,771.58 1469.78,1024.76 532.89,245.38 1115.63,401.2 1728.82,448.16l0.96 0.16c49.66,4.95 99.7,8.7 150.04,11.19 48.44,2.41 98.66,3.63 150.62,3.63l19.71 0.06c15.64,-0.18 30.9,-0.14 46.56,0l25.61 -0.06c688.33,0 1344.51,-136.78 1942.82,-384.61 621.36,-257.38 1180.76,-634.77 1649.29,-1103.29 468.53,-468.56 845.9,-1027.95 1103.28,-1649.32 247.83,-598.3 384.61,-1254.47 384.61,-1942.78 0,-688.33 -136.78,-1344.51 -384.61,-1942.81 -257.38,-621.37 -634.76,-1180.77 -1103.28,-1649.31 -468.53,-468.52 -1027.92,-845.92 -1649.29,-1103.3 -598.3,-247.84 -1254.49,-384.62 -1942.82,-384.62l-25.61 -0.06c-15.66,0.14 -30.92,0.18 -46.56,0zm2368.63 1071.94c-129.42,-132.03 -265.36,-253.55 -407.03,-363.52l-257.42 -199.81 298.71 130.03c279.24,121.55 544.74,268.61 793.48,438.19 251.31,171.33 485.52,365.53 699.51,579.52 96.56,96.56 189.94,198.32 279.81,304.95 89.36,106.04 173.82,215.27 253.05,327.38l25.17 35.63 -37.49 22.79c-86.43,52.52 -178.44,102.54 -275.48,150.02 -98.59,48.22 -202.38,93.86 -310.78,136.85l-37.06 14.71 -15.59 -36.62c-86.93,-204.24 -184.07,-399.42 -290.42,-584.26 -107.12,-186.15 -223.77,-362.34 -348.98,-527.25 -115.81,-152.54 -239.23,-295.75 -369.48,-428.61zm-5477.75 926.28c-102.06,174.7 -195.6,358.21 -279.79,549.36l-16.45 37.37 -37.32 -16.4c-78.03,-34.29 -153.08,-69.96 -224.88,-106.97 -70.53,-36.36 -138.8,-74.53 -204.53,-114.48l-37.49 -22.79 25.17 -35.63c79.21,-112.11 163.69,-221.36 253.04,-327.39 89.87,-106.63 183.25,-208.39 279.8,-304.94 154.31,-154.31 319.79,-298.76 495.2,-432.17 174.18,-132.46 357.34,-253.25 548.26,-361.25l305.82 -172.98 -257.98 238.44c-92.31,85.32 -181.78,175.9 -268.12,271.4 -86.38,95.53 -169.52,195.92 -249.13,300.76 -117.98,155.41 -228.8,321.67 -331.6,497.67zm3078.67 -1758.76l34.61 -0.56c208.29,9.53 408.55,142.57 592.89,376.13 186.34,236.1 357.75,576.48 505.43,996.22 72.92,207.28 139.37,433.38 198.36,675.52 58.41,239.74 109.49,495.22 152.32,763.73l6.74 42.3 -42.59 4.75c-217.45,24.27 -439.55,42.54 -664.18,54.76 -226.79,12.33 -454.46,18.5 -680.96,18.5 -258.61,0 -518,-8.02 -775.11,-24.01 -253.79,-15.78 -505.1,-39.5 -750.93,-71.1l-41.91 -5.39 6.7 -41.5c42.7,-264.28 93.42,-515.79 151.24,-751.87 58.4,-238.45 124.02,-461.23 195.95,-665.69 145.18,-412.61 313.19,-748.46 495.68,-983.85 180.7,-233.09 376.9,-369.45 581.04,-387.17l34.72 -0.77z"/>
  </g>
  <g id="Globe_3">
   <circle class="fil5" cx="7620.01" cy="7620.01" r="5080"/>
   <g>
    <path class="fil6" d="M8264.19 2850.52c-0.16,0.9 -603.69,298.91 -635.07,372.1 -8.22,19.2 -72.47,47.92 -89.25,89.14 -0.51,1.25 -88.79,95.91 -99.34,145.6 -12.31,58.03 -58.6,145.04 -79.45,269.17 -43.41,258.4 0.02,1330.05 156.45,1634.51 105.45,205.25 42.47,127.81 285.78,185.24 72.42,17.1 -110.7,152.22 68.32,188.61 71.73,14.59 270.09,110.52 364.29,118.77 82.65,7.24 855.46,233.8 891.21,294.16 0.51,0.87 98.11,68.5 147.87,168.49 46.67,93.81 161.53,252.53 198.38,363.63 24.74,74.61 349.71,639.2 285.56,575.09 -103.76,-103.71 -549.11,-252.16 -694.84,-293.3 -196.61,-55.52 -326.54,-84.6 -530.26,-118.77 -140.95,-23.62 -469.16,-18.25 -604.36,62.58 -148.34,88.67 -247.49,107.01 -358.1,268.76 -39.62,57.95 -145.18,219.33 -206.7,246.23 -27.91,12.21 -370.19,259.05 -312.78,347.97 50.21,77.8 142.79,205.57 105.24,300.34 -76.94,194.17 -64.97,466.33 159.01,552.18 153.11,58.68 346.15,259.12 406.06,255.07 133.54,-9.02 106.67,-229.06 304.18,-32.54 112.56,111.99 277.12,-336.5 520.24,56.26 82.15,132.7 -142.22,130.24 93.05,408.41 361.13,426.98 -23.9,304.84 60.37,862.88 23.83,157.86 92.44,-29.8 110.68,418.53 6.08,149.17 65.7,359.29 178.07,467.94 76.05,73.53 125.68,175.14 227.81,73.07 142.97,-142.89 30.12,-104.73 289.08,-112.42 161.65,-4.8 341.97,-375.68 374.12,-520.87 35.37,-159.74 173.33,-433.84 302.76,-539.88 139.08,-113.95 147.11,-437.38 65.69,-566.76 -83.66,-132.93 6.53,-168.26 107.54,-273.08 90.33,-93.73 284.16,-215.22 406.07,-337.48 96.7,-96.97 164.62,-170.4 237.55,-286.28 206.84,-328.67 -390.18,28.56 -558.11,-140.16 -106.48,-106.98 -110.34,-143.04 -178.39,-275.4 -82.37,-160.17 -224.3,-642.65 -381.41,-736.71 -4.34,-2.6 337.14,18.62 558.54,-59.33 359.55,-126.61 418.71,-1162.26 903.28,-1169.84 324.73,-5.08 469.22,105.73 728.94,234.21 139.9,69.19 308.18,185.83 311.06,353.83 3.12,182.24 -66.62,442.2 19.32,594.67 13.82,24.51 162.18,229.71 159.25,163.83 -25.24,-566.13 -91.27,-1054.38 -297.15,-1579.65 -126.05,-321.57 -210.01,-489.49 -373.13,-784.01 -53.29,-96.24 -271.62,-440.93 -337.1,-503.35 -59.29,-56.53 -170.17,-219.79 -257.77,-307.37 -110.06,-110.07 -245.89,-243.02 -347.05,-346.84 -32.57,-33.42 -229.42,-214.21 -256.85,-217.83 -3.09,-6.35 -14.24,-18.12 -20.8,-19.81 -3.12,-12.22 -16.43,-18.25 -28.8,-19.81 -6.2,-13.24 -39.66,-36.95 -50.58,-39.64 -2.8,-12.28 -16.41,-18.35 -28.77,-19.82 -5.87,-13.29 -40.19,-37.31 -50.44,-39.64 -1.57,-5.89 -27.62,-19.3 -29.83,-19.81 -2.5,-11.89 -15.98,-18.41 -28.82,-19.83 -4.95,-12.24 -16.01,-18.34 -29.74,-19.83 -4.86,-12.23 -16.03,-18.38 -29.77,-19.82 -4.77,-12.29 -15.98,-18.38 -29.74,-19.8 -4.68,-12.28 -15.98,-18.45 -29.74,-19.83 -4.59,-12.27 -16,-18.46 -29.75,-19.83 -4.49,-12.26 -15.99,-18.48 -29.75,-19.8 -4.39,-12.3 -15.9,-18.53 -29.69,-19.82 -2.35,-6.03 -28.37,-19.44 -30.52,-19.83 -1.94,-9.21 -29.24,-18.92 -39,-19.8 -4,-12.26 -15.86,-18.63 -29.62,-19.84 -2.29,-6.27 -28.41,-19.45 -30.49,-19.81 -1.82,-9.3 -29.2,-18.98 -38.98,-19.8 -2.19,-6.5 -28.34,-19.49 -30.41,-19.83 -1.76,-9.4 -29.17,-19.05 -38.98,-19.83 -2.98,-9.26 -29.44,-19 -39.67,-19.8 -2.11,-6.7 -28.35,-19.52 -30.36,-19.83 -1.65,-9.53 -29.18,-19.09 -39.04,-19.82 -2.79,-9.4 -29.39,-19.07 -39.65,-19.81 -2.75,-9.47 -29.38,-19.09 -39.66,-19.82 -2.68,-9.49 -29.38,-19.13 -39.65,-19.83 -2.63,-9.53 -29.34,-19.13 -39.6,-19.81 -2.45,-8.35 -41.88,-19.32 -49.65,-19.82 -2.46,-9.64 -29.3,-19.17 -39.57,-19.81 -2.35,-8.47 -41.9,-19.36 -49.64,-19.84 -2.35,-9.73 -29.29,-19.2 -39.58,-19.82 -2.26,-8.56 -41.89,-19.36 -49.57,-19.81 -2.17,-8.65 -41.89,-19.37 -49.58,-19.81 -2.11,-8.7 -41.9,-19.42 -49.57,-19.85 -2.55,-10.86 -46.48,-19.35 -59.05,-19.8 -3.85,-12.8 -34.76,-19.32 -49.51,-19.83 -3.42,-10.88 -46.54,-19.38 -59.51,-19.81 -3.26,-10.92 -46.54,-19.42 -59.48,-19.84 -3.17,-10.98 -46.52,-19.4 -59.48,-19.8 -3.65,-13.19 -53.62,-19.49 -69.03,-19.83 -3.79,-11 -46.54,-19.43 -59.81,-19.8 -2.69,-9.88 -57.39,-19.51 -69.42,-19.84 -3.01,-11.74 -64.13,-19.52 -78.95,-19.81 -3.7,-11.73 -64.12,-19.54 -79.27,-19.82 -3.36,-10.59 -74.02,-19.54 -89.23,-19.81 -3.62,-12.14 -81.52,-19.6 -98.85,-19.84 -3.29,-9.57 -68.07,-19.44 -79.99,-19.29 -1.99,11.51 -237.09,119.39 -238.07,121.03z"/>
    <path class="fil6" d="M3168.82 5425.07c-34.44,24.46 -291.86,694.79 -294.95,755.23 -1.74,33.84 -95.9,303.56 -99.05,384.29 -3.64,93.27 -75.83,330.19 -78.95,480.57 -3.16,152.22 -96.96,731.85 14.47,752.36 1.03,0.19 95.68,91.85 128.54,99.28 40,9.04 186.47,158.86 370.96,120.45 246.72,-51.37 567.97,-336.77 766.76,-495.06 38.58,-30.71 427.91,-318.33 437.33,-321.83 29.92,-11.1 382.66,-336.95 393.1,-389.67 19.18,-96.85 122.01,-214.62 235.67,-224.56 139.92,-12.25 273.2,-69.66 210.7,-233.09 -48.08,-125.7 -138.61,-337.21 -82.72,-454.01 88.6,-185.18 61.72,-126.14 -55.15,-327.82 -100.37,-173.2 218.66,-323.59 316.21,-428.77 134.83,-145.39 213.7,-227.36 360.86,-360.88 291.38,-264.4 668.77,-138.83 705.38,-357.47 17.44,-104.13 -168.83,76.77 -268.6,-260.4 -45.09,-152.39 -74.58,-321.81 -236.08,-331.32 -225.36,-13.29 -270.66,-40.41 -330.6,-271.33 -6.5,-25.03 -35.93,-564.86 -112.31,-451.03 -1.12,1.68 -378.45,200.61 -420.88,222.36 -240.01,122.99 -489.84,322.97 -702.4,494.5 -200.06,161.45 -293.94,282.3 -465.06,447.56 -110.07,106.29 -371.1,429.79 -444.81,554.2 -47.93,80.91 -264.82,402.72 -277.18,463.41 -0.39,1.92 -70.58,132.33 -71.24,133.03z"/>
    <path class="fil6" d="M6192.49 11460.83c19.92,-126.16 -166.46,-95.45 -240.02,-150.89 -46.02,-34.67 -430.24,-61.39 -262.97,-239.09 161.04,-171.12 -95,-582.49 -5.97,-937.59 54.72,-218.24 111.38,-214.12 105.47,-445.62 -7.63,-299 58.6,-315.3 223.87,-455.2 224.09,-189.68 126.52,-291.1 33.72,-518.26 -81.57,-199.69 272.91,-266.71 38.6,-553.8 -95.45,-116.95 -400.05,128.55 -736.5,-112.64 -79.28,-56.83 -676.46,-345.16 -730.45,-325.28 -177.07,65.22 -170.3,12.58 -317.4,140.47 -1.67,1.46 -277.89,40.36 -348.64,78.16 -317.07,169.41 -342.01,122.74 -360.69,555.2 -6.07,140.54 -14.05,655 189.06,765.87 117.35,64.07 201.31,129.28 343.36,191.12 96.78,42.13 354.25,150.17 383.62,247.33 110.67,366.02 126.8,740.02 206.53,1119.36 29.81,141.83 108.97,604.66 170.43,697.16 4.06,6.1 60.91,141.9 61.29,145.82 6.39,1.44 64.02,115.57 87.7,121.29 0.87,13.82 7.6,27.93 19.9,29.24 0.32,2.65 66.24,87.84 98.84,89.14 6.69,45.81 359.63,94.67 368.11,49.47 97.27,-1.96 204.27,-267.71 383.55,-278.83 3.06,-10.12 192.26,-121.54 221.05,-146.57 9.48,-8.25 65.3,-56.91 67.54,-65.86z"/>
   </g>
   <path class="fil7" d="M11640 9904.26c81.28,-41.4 158.32,-83.38 230.92,-125.84l121.21 -70.9 -64.24 124.83c-115.02,223.52 -247.18,437.26 -394.79,639.45 -148.77,203.81 -312.49,395.05 -489.38,571.95 -213.98,213.98 -448.17,408.17 -699.48,579.51 -248.73,169.56 -514.22,316.63 -793.45,438.17l-298.66 130 257.37 -199.78c141.65,-109.96 277.58,-231.47 406.98,-363.49 130.24,-132.86 253.66,-276.07 369.47,-428.61 108.73,-143.21 211.19,-295.27 306.71,-455.32 94.88,-158.96 182.83,-325.82 263.19,-499.71l7.36 -15.94 16.48 -5.67c90.76,-31.24 178.48,-63.43 262.91,-96.49 86.8,-33.97 169.65,-68.49 248.32,-103.46 83.88,-37.27 166.97,-76.87 249.08,-118.7zm-1855.08 610.12c235.07,-46.63 460.99,-100.52 676.21,-160.99l92.04 -25.87 -44.99 84.44c-61.27,114.96 -126.33,226.36 -194.85,333.81 -68.58,107.51 -140.73,211.14 -216.2,310.54 -241.32,317.83 -516.12,591.34 -816.62,810.31 -295.18,215.11 -614.98,377.62 -952.06,477.97l-131.9 39.25 89 -104.86c111.71,-131.61 217.14,-291.48 315.12,-476.32 99.43,-187.61 191.11,-400.64 273.82,-635.68 27.87,-79.24 54.88,-161.27 80.94,-245.91 25.7,-83.47 50.73,-170.46 75,-260.74l7.16 -26.65 27.41 -3.43c247.71,-31.06 488.17,-69.91 719.92,-115.87zm-1608.65 191.67c186.14,-8.63 369.11,-21.51 548.44,-38.38l59.51 -5.6 -16.47 57.45c-17.63,61.5 -36.72,124.55 -57.23,189.09 -19.87,62.6 -39.97,122.72 -60.2,180.24 -147.68,419.75 -319.09,760.11 -505.42,996.21 -184.34,233.56 -384.6,366.59 -592.9,376.12l-34.58 -0.56 -34.68 -0.76c-204.16,-17.69 -400.37,-154.03 -581.09,-387.12 -182.5,-235.38 -350.5,-571.23 -495.7,-983.87 -22.36,-63.57 -43.49,-126.79 -63.34,-189.59 -20.04,-63.41 -39.95,-129.91 -59.66,-199.35l-16.57 -58.41 60.42 6.73c209.4,23.29 423.21,41.06 640.5,52.92 212.71,11.61 430.52,17.6 652.71,17.6 189.54,0 375.11,-4.31 556.26,-12.72zm-2928.12 -235c235.66,52.26 481.9,97.08 737.07,133.73l26.81 3.84 6.95 26.24c25.21,95.03 51.3,186.51 78.15,274.24 26.95,88.1 55.21,174.15 84.67,257.9 82.7,235.04 174.37,448.05 273.81,635.66 97.98,184.84 203.42,344.72 315.12,476.32l89.01 104.86 -131.91 -39.25c-337.08,-100.35 -656.89,-262.87 -952.08,-477.97 -300.52,-218.99 -575.3,-492.47 -816.63,-810.31 -82.71,-108.93 -161.25,-222.64 -235.27,-340.65 -74.29,-118.43 -144.34,-241.47 -209.81,-368.63l-44.71 -86.87 93.21 29.09c218.04,68.05 447.16,128.91 685.61,181.8zm-1255.43 -386.67c46.72,19.28 96.39,39.01 148.91,59.12l15.95 6.1 6.94 15.66c83.95,189.35 176.7,370.51 277.43,542.43 101.52,173.29 211.26,337.59 328.37,491.86 79.61,104.84 162.75,205.23 249.13,300.76 86.33,95.5 175.79,186.07 268.09,271.38l257.96 238.42 -305.8 -172.96c-190.92,-107.99 -374.04,-228.77 -548.2,-361.21 -175.42,-133.41 -340.9,-277.87 -495.23,-432.19 -176.9,-176.9 -340.61,-368.16 -489.37,-571.96 -147.59,-202.19 -279.75,-415.92 -394.76,-639.43l-64.23 -124.82 121.2 70.89c72.61,42.46 149.68,84.45 230.95,125.85 82.11,41.82 165.18,81.42 249.04,118.68 45.47,20.2 93.36,40.69 143.62,61.42zm-509.51 -472.05c-137.15,-79.26 -262.66,-162.51 -375.28,-249.18l-9.19 -7.08 -4.08 -10.68c-103.37,-270.95 -183.16,-553.93 -236.79,-846.37 -52.37,-285.5 -79.74,-579.31 -79.74,-878.99l1.05 -106.8 57.95 27.95c100.45,48.46 206.81,95.15 318.69,139.93 112.95,45.21 230.85,88.31 353.27,129.11l54.5 17.86 82.72 26.27 1.13 28.97c13.17,337.29 51.67,666.4 112.99,983.99 62.8,325.13 149.51,637.76 257.51,934.34l32.63 89.59c-40.02,-17.5 -80.03,-34.97 -119.98,-52.63 -160.77,-71.45 -310.33,-147.08 -447.38,-226.28zm1617.69 617.24c-257.8,-63.11 -501.8,-135.49 -729.6,-216.03l-16.9 -5.99 -7.11 -16.73c-129.22,-304.63 -234.28,-629.64 -311.74,-970.46 -75.51,-332.26 -124.83,-679.63 -144.79,-1037.86l-3.15 -56.53 54.68 14.93c253,69.03 524.23,131.23 810.98,185.66 282.52,53.62 580.21,99.66 890.49,137.19l34.34 4.15 1.67 34.57c17.66,366.91 49.34,721.28 93.45,1058.54 45.11,344.94 103.27,672.37 172.77,977.41l13.32 58.46 -59.41 -9.17c-278.1,-42.95 -545.19,-96.01 -799,-158.14zm1821.28 266.09c-233.2,-13.78 -460.91,-34.28 -682.06,-61.03l-28.18 -3.42 -6.71 -27.62c-73.9,-304.96 -135.98,-634.95 -184.28,-984.53 -47.2,-341.61 -81.36,-702.34 -100.7,-1077.11l-2.44 -47.42 47.25 4.69c264.9,26.31 537.74,46.48 816.99,59.98 272.14,13.17 551.9,19.99 837.96,19.99 253.61,0 501.52,-5.33 742.89,-15.65 245.88,-10.53 488.9,-26.41 727.9,-47.28l46.8 -4.09 -2.48 46.97c-19.87,375.99 -54.67,737.69 -102.58,1079.97 -49.04,350.3 -111.9,680.68 -186.65,985.65l-6.89 28.07 -28.64 2.97c-192.54,19.87 -389.4,35.04 -589.88,45.19 -198.42,10.05 -398.83,15.22 -600.47,15.22 -235.67,0 -468.64,-7.01 -697.83,-20.55zm3008.23 -217.61c-248.9,54.54 -509.94,100.61 -781.15,137.34l-58.59 7.94 13.3 -57.54c70.63,-305.64 129.8,-633.79 175.77,-979.52 44.98,-338.37 77.44,-694.09 95.74,-1062.58l1.74 -34.96 34.75 -3.76c306.49,-33.22 602.45,-74.84 885.44,-124.02 286.11,-49.73 558.43,-107.18 814.44,-171.48l54.27 -13.64 -3.54 55.88c-23.06,363.98 -76.35,716.13 -156.52,1052.06 -82.29,344.81 -192.97,673 -328.39,979.73l-7.5 16.96 -17.63 5.61c-227.44,72.19 -468.85,136.48 -722.13,191.98zm1255.77 -386.33c-40.24,16.73 -82.97,33.9 -128.18,51.5l-85.92 33.43 32.95 -86.09c115.08,-300.75 207.99,-618.12 275.9,-948.35 66.37,-322.72 109.05,-658.21 125.42,-1002.92l1.38 -29.13 28.07 -8.14c47.82,-13.89 97.84,-28.97 149.96,-45.18 52.72,-16.39 101.1,-31.94 145.17,-46.62 122.41,-40.79 240.29,-83.88 353.22,-129.08 111.9,-44.79 218.28,-91.5 318.74,-139.96l57.95 -27.95 1.05 106.8c0,299.69 -27.38,593.51 -79.74,879.02 -53.64,292.44 -133.44,575.44 -236.82,846.4l-4.08 10.68 -9.19 7.09c-112.61,86.66 -238.09,169.87 -375.22,249.11 -137.07,79.19 -286.62,154.81 -447.41,226.28 -43.73,19.43 -84.8,37.13 -123.25,53.11zm-8013.58 -2458.6c-128.28,-52.8 -247.47,-107.57 -356.75,-164l-24.24 -12.51 2.15 -27.02c30.58,-383.24 105.85,-754.02 220.55,-1107.08 117.7,-362.26 277.01,-705.89 472.26,-1025.15l21.37 -34.93 34.8 21.32c71.61,43.86 146.9,86.09 225.53,126.62 79.87,41.18 163.05,80.58 249.24,118.16l35.59 15.52 -13.66 36.33c-125.08,332.5 -223.2,685.41 -290.6,1053.72 -65.59,358.46 -102.15,731.47 -106.18,1114.44l-0.58 55.94c-5.31,-1.75 -57.86,-18.63 -58.58,-19.36 -145.87,-48.62 -283.11,-99.37 -410.9,-152zm1550.35 446.1c-288.15,-56.52 -559.97,-121.26 -812.51,-193.21l-29.43 -8.4 -0.3 -57.42 -0.17 -0.16c0,-380.55 33.07,-750.81 95.6,-1106.01 64.3,-365.34 160,-715.12 283.11,-1044.12l14.24 -38 37.93 13.84c210.35,76.77 435.65,144.88 672.44,204.25 243.01,60.93 497.26,112.48 759.06,154.63l39.33 6.33 -5.24 39.28c-37.08,278.23 -65.71,568.7 -84.97,868.8 -18.71,291.61 -28.5,592.72 -28.5,901 0,68.61 0.33,128.53 0.98,179.91 0.75,59.89 1.9,120.02 3.41,180.31l1.2 47.42 -46.96 -5.82c-313.77,-38.91 -614.46,-86.77 -899.22,-142.63zm2047.78 240.93c-282.85,-13.99 -558.91,-34.87 -826.51,-62.1l-35.78 -3.64 -1.02 -35.88c-1.84,-65.44 -3.25,-131.91 -4.19,-199.34 -1.03,-73.45 -1.57,-139.98 -1.57,-199.16 0,-301 9.57,-596.38 27.86,-883.72 18.66,-293.1 46.53,-577.54 82.72,-850.76l5.36 -40.45 40.4 5.25c251.03,32.66 508.55,57.25 769.51,73.73 261.42,16.51 526.61,24.78 792.49,24.78 234.76,0 468.48,-6.39 698.99,-19.18 229.95,-12.75 458.31,-31.9 682.94,-57.41l39.75 -4.52 5.22 39.88c35.26,270.14 62.4,551.09 80.56,840.35 17.81,283.71 27.12,575.16 27.12,872.05 0,62.47 -0.58,131.94 -1.69,208.04 -1.04,70.39 -2.57,139.78 -4.57,208.1l-1.08 36.28 -36.21 3.25c-240.33,21.51 -486.4,37.94 -737.01,48.9 -248.48,10.85 -500.21,16.47 -754.02,16.47 -287.16,0 -570.79,-7.15 -849.27,-20.92zm3556.99 -205.49c-285.19,51.14 -584.3,94.38 -894.66,128.85l-46.54 5.16 1.25 -46.76c1.7,-63.75 2.98,-127.37 3.82,-190.79 0.74,-55.49 1.11,-119.2 1.11,-191.09 0,-303.26 -9.46,-599.52 -27.59,-886.58 -18.65,-295.48 -46.38,-581.61 -82.28,-855.91l-5.25 -40.04 39.97 -5.73c263.55,-37.7 519.61,-84.44 764.6,-140.17 239.83,-54.56 469.17,-117.71 684.69,-189.4l37.7 -12.53 13.51 37.34c116.34,321.45 206.69,662.36 267.4,1017.93 59.08,345.88 90.27,705.7 90.27,1075.09l-1.06 108.57 -30.17 7.89c-255.22,66.76 -528.39,126.45 -816.77,178.17zm1234.86 -298.95c-32.33,10.28 -64.34,20.24 -96.02,29.86l-52.55 15.98 -0.1 -55.03c-0.74,-380.38 -33.67,-751.57 -95.34,-1108.99 -63.38,-367.28 -157.11,-719.37 -277.5,-1051.44l-13.57 -37.39 36.94 -14.62c118.58,-46.91 230.95,-96.25 336.34,-147.95 104.06,-51.06 203.08,-105.19 296.47,-162.39l34.81 -21.31 21.36 34.92c195.25,319.27 354.56,662.89 472.27,1025.16 114.7,353.05 189.97,723.82 220.55,1107.06l2.15 27.02 -24.24 12.51c-109.31,56.45 -228.51,111.22 -356.83,164.06 -127.77,52.6 -264.98,103.35 -410.82,151.96 -31.11,10.36 -62.43,20.58 -93.92,30.59zm-2961.92 -4178.33c-97.98,-184.85 -203.42,-344.73 -315.13,-476.34l-89 -104.86 131.9 39.25c337.08,100.35 656.89,262.87 952.07,477.97 300.52,218.99 575.31,492.5 816.62,810.33 117.78,155.12 227.64,320.8 328.64,495.83 100.69,174.51 192.5,357.94 274.5,549.1l17.55 40.94 -42.36 13.96c-206.3,68.01 -426.55,128.05 -657.51,180.08 -235.58,53.06 -481.62,97.57 -734.68,133.5l-39.63 5.63 -6.31 -39.72c-44.16,-277.85 -97.01,-542.41 -157.51,-790.85 -60.95,-250.23 -129.73,-484.26 -205.33,-699.15 -82.7,-235.04 -174.39,-448.06 -273.82,-635.67zm-2621.18 1322.46c-59.8,243.99 -112.18,503.6 -156.19,776.12l-6.52 40.38 -40.22 -6.45c-252.38,-40.47 -496.3,-89.63 -728.23,-147.41 -226.94,-56.54 -442.89,-121.45 -644.55,-194.69l-41.19 -14.96 17.66 -39.93c79.76,-180.28 168.4,-353.65 265.14,-519.01 96.76,-165.39 201.6,-322.46 313.73,-470.16 241.32,-317.84 516.11,-591.34 816.63,-810.33 295.19,-215.11 615.01,-377.64 952.1,-477.99l131.91 -39.25 -89.01 104.86c-111.71,131.61 -217.15,291.48 -315.13,476.32 -99.44,187.62 -191.12,400.64 -273.82,635.68 -74.36,211.38 -142.13,441.23 -202.31,686.82zm1568.35 -2219.91l-19.71 0.06c-51.98,0 -102.22,1.22 -150.7,3.63 -50.31,2.49 -100.33,6.24 -149.96,11.19l-0.96 0.16c-613.2,46.96 -1195.93,202.78 -1728.82,448.16 -549.87,253.19 -1046.87,601.87 -1469.78,1024.78 -468.53,468.53 -845.91,1027.93 -1103.29,1649.3 -247.83,598.3 -384.61,1254.49 -384.61,1942.82 0,688.31 136.78,1344.49 384.61,1942.79 257.38,621.37 634.76,1180.77 1103.29,1649.31 422.91,422.9 919.92,771.58 1469.78,1024.76 532.89,245.38 1115.63,401.2 1728.82,448.16l0.96 0.16c49.66,4.95 99.7,8.7 150.04,11.19 48.44,2.41 98.66,3.63 150.62,3.63l19.71 0.06c15.64,-0.18 30.9,-0.14 46.56,0l25.61 -0.06c688.33,0 1344.51,-136.78 1942.82,-384.61 621.36,-257.38 1180.76,-634.77 1649.29,-1103.29 468.53,-468.56 845.9,-1027.95 1103.28,-1649.32 247.83,-598.3 384.61,-1254.47 384.61,-1942.78 0,-688.33 -136.78,-1344.51 -384.61,-1942.81 -257.38,-621.37 -634.76,-1180.77 -1103.28,-1649.31 -468.53,-468.52 -1027.92,-845.92 -1649.29,-1103.3 -598.3,-247.84 -1254.49,-384.62 -1942.82,-384.62l-25.61 -0.06c-15.66,0.14 -30.92,0.18 -46.56,0zm2368.63 1071.94c-129.42,-132.03 -265.36,-253.55 -407.03,-363.52l-257.42 -199.81 298.71 130.03c279.24,121.55 544.74,268.61 793.48,438.19 251.31,171.33 485.52,365.53 699.51,579.52 96.56,96.56 189.94,198.32 279.81,304.95 89.36,106.04 173.82,215.27 253.05,327.38l25.17 35.63 -37.49 22.79c-86.43,52.52 -178.44,102.54 -275.48,150.02 -98.59,48.22 -202.38,93.86 -310.78,136.85l-37.06 14.71 -15.59 -36.62c-86.93,-204.24 -184.07,-399.42 -290.42,-584.26 -107.12,-186.15 -223.77,-362.34 -348.98,-527.25 -115.81,-152.54 -239.23,-295.75 -369.48,-428.61zm-5477.75 926.28c-102.06,174.7 -195.6,358.21 -279.79,549.36l-16.45 37.37 -37.32 -16.4c-78.03,-34.29 -153.08,-69.96 -224.88,-106.97 -70.53,-36.36 -138.8,-74.53 -204.53,-114.48l-37.49 -22.79 25.17 -35.63c79.21,-112.11 163.69,-221.36 253.04,-327.39 89.87,-106.63 183.25,-208.39 279.8,-304.94 154.31,-154.31 319.79,-298.76 495.2,-432.17 174.18,-132.46 357.34,-253.25 548.26,-361.25l305.82 -172.98 -257.98 238.44c-92.31,85.32 -181.78,175.9 -268.12,271.4 -86.38,95.53 -169.52,195.92 -249.13,300.76 -117.98,155.41 -228.8,321.67 -331.6,497.67zm3078.67 -1758.76l34.61 -0.56c208.29,9.53 408.55,142.57 592.89,376.13 186.34,236.1 357.75,576.48 505.43,996.22 72.92,207.28 139.37,433.38 198.36,675.52 58.41,239.74 109.49,495.22 152.32,763.73l6.74 42.3 -42.59 4.75c-217.45,24.27 -439.55,42.54 -664.18,54.76 -226.79,12.33 -454.46,18.5 -680.96,18.5 -258.61,0 -518,-8.02 -775.11,-24.01 -253.79,-15.78 -505.1,-39.5 -750.93,-71.1l-41.91 -5.39 6.7 -41.5c42.7,-264.28 93.42,-515.79 151.24,-751.87 58.4,-238.45 124.02,-461.23 195.95,-665.69 145.18,-412.61 313.19,-748.46 495.68,-983.85 180.7,-233.09 376.9,-369.45 581.04,-387.17l34.72 -0.77z"/>
  </g>
  <g id="Book">
   <polygon class="fil8" points="10054.75,4445 3968.75,6282.3 6953.25,10689.14 10195.23,9256.93 10504.78,9154.23 13129.52,8092.12 "/>
   <path class="fil9 str0" d="M3968.75 6282.3l2881.79 4512.7 3183.53 -1406.38c150.17,-49.34 392.97,-75.51 558.16,-234.4l2584.02 -1044.12 -3121.51 -3665.1 2998.27 3616.92 -2753.63 1087.63 -214.37 -0.16 -3124.38 1361.94 -2888.28 -4240.92 2725.96 -842.32 -2829.56 854.21z"/>
   <path class="fil9 str0" d="M7608.29 5849.27l2453.86 2969.12c-80.67,-53.05 -116.7,-52.91 -207.07,-29.68l-2246.79 -2939.44z"/>
   <path class="fil9 str0" d="M12825.21 7904.89c-1542.68,476.51 -931.32,-223.33 -2763.05,913.51 1015.55,-1049.38 1078.21,-653.56 2682.26,-888.98l-1871.43 -2231.52c-1.16,-1.4 1950.4,2207.32 1952.22,2206.99z"/>
   <path class="fil9 str0" d="M6939.59 9940.13c908.09,-451.69 2072.56,-868.46 2915.49,-1151.41 -734.03,205.41 -1985.76,649.19 -2864.6,1067.25l-2426.23 -3521.95c871.96,1318.22 1503.4,2287.88 2375.34,3606.11z"/>
  </g>
  <g id="Torch">
   <path class="fil10" d="M5730.68 7807.84l-214.84 0c125.33,-182.26 163.21,-457.63 -101.87,-865.3 0,0 -60.91,81.17 -73.54,227.83 -208.46,-136.47 411.79,-851.49 -599.33,-1228.29 348.12,518.22 -552.32,433.72 -522.24,1257.11 -63.54,-45.27 -89.65,-143.38 -77.9,-335.85 -72.7,63.21 -396.37,522.49 -114.35,944.5l-225.86 0c-175.21,-120.88 -349.96,-293.33 -424.23,-531.95 -82.38,-264.59 -32.8,-577.5 147.21,-932.99 4.46,25.29 8.06,52.18 10.5,80.72l22.22 258.13 216.73 -141.98c207.45,-135.88 163.78,-393.61 117.51,-666.41 -78.16,-460.75 -173.22,-1021.32 615.36,-1444.72 -54.87,348.41 208.87,565.72 448.47,763.14 323.05,266.11 689.14,567.74 663.64,1266.41l-10.3 282.43 243.44 -143.44c86.2,-50.81 150.43,-162.7 189.62,-295.31 85.58,179.42 158.93,413.78 144.44,668.76 -17.9,315.21 -170.99,596.03 -454.68,837.21z"/>
   <path class="fil11" d="M5347.62 9119.25l-481.5 3112.34 -64.8 0 239.39 -2996.39c108.47,-25.14 211.55,-64.26 306.91,-115.95zm-623.95 3112.34l-64.82 0 -481.5 -3112.31c95.38,51.66 198.44,90.78 306.91,115.92l239.41 2996.39zm219.33 -3417.97c-55.92,36.32 -115.96,66.84 -179.33,90.56 -51.91,19.46 -105.99,34.44 -161.85,44.37 52.91,9.43 107.25,14.56 162.83,14.56 105.73,0 207.2,-17.93 301.84,-50.56 7.87,-2.7 15.76,-5.45 23.55,-8.37 294.03,-110.45 517.06,-366.05 581.46,-679.61l153.38 0c-48.7,277.19 -203.48,518.28 -420.93,679.61 -37.18,27.61 -76.19,52.78 -116.8,75.47 -53.14,29.69 -109.08,54.95 -167.24,75.44 -21.89,7.71 -44.01,14.91 -66.5,21.24 -92.59,25.94 -190.16,39.9 -290.94,39.9 -100.74,0 -198.31,-13.96 -290.91,-39.9 -22.5,-6.33 -44.64,-13.51 -66.5,-21.24 -58.17,-20.49 -114.11,-45.75 -167.24,-75.44 -40.6,-22.69 -79.62,-47.86 -116.8,-75.47 -217.43,-161.33 -372.23,-402.42 -420.94,-679.61l1645.49 0c-50.6,246.14 -198.82,456.57 -402.57,589.05zm-1403.16 -854.84l2445.28 0c31.68,0 57.43,25.74 57.43,57.43 0,29.52 -22.47,53.61 -51.13,56.79 -2.1,0.22 -4.13,0.62 -6.3,0.62l-2445.28 0c-2.15,0 -4.2,-0.4 -6.23,-0.62 -28.74,-3.18 -51.2,-27.27 -51.2,-56.79 0,-31.69 25.76,-57.43 57.43,-57.43z"/>
   <path class="fil12" d="M3539.84 7807.84l10.56 0c-355.79,-322.37 -608.25,-883.41 1.32,-1821.01 0,0 113.19,150.95 136.66,423.53 387.35,-253.72 -765.31,-1582.5 1113.8,-2282.85 -646.98,963.08 1026.47,806.06 970.59,2336.31 100.62,-59.24 194.78,-371.12 144.81,-624.15 147.52,128.18 851.95,1133.41 40.44,1968.17l27.1 0c115.08,0 208.37,93.25 208.37,208.37 0,115.07 -93.29,208.36 -208.37,208.36l-6.99 0c-48.45,317.26 -218.36,594.36 -460.52,783.09l-522.11 3374.85 -466.03 0 -522.11 -3374.85c-242.13,-188.73 -412.06,-465.83 -460.54,-783.09l-6.98 0c-115.07,0 -208.35,-93.29 -208.35,-208.36 0,-115.12 93.28,-208.37 208.35,-208.37zm2645.52 -837.21c14.49,-254.98 -58.86,-489.34 -144.44,-668.76 -39.19,132.61 -103.42,244.5 -189.62,295.31l-243.44 143.44 10.3 -282.43c25.5,-698.67 -340.59,-1000.3 -663.64,-1266.41 -239.6,-197.42 -503.34,-414.73 -448.47,-763.14 -788.58,423.4 -693.52,983.97 -615.36,1444.72 46.27,272.8 89.94,530.53 -117.51,666.41l-216.73 141.98 -22.22 -258.13c-2.44,-28.54 -6.04,-55.43 -10.5,-80.72 -180.01,355.49 -229.59,668.4 -147.21,932.99 74.27,238.62 249.02,411.07 424.23,531.95l225.86 0c-282.02,-422.01 41.65,-881.29 114.35,-944.5 -11.75,192.47 14.36,290.58 77.9,335.85 -30.08,-823.39 870.36,-738.89 522.24,-1257.11 1011.12,376.8 390.87,1091.82 599.33,1228.29 12.63,-146.66 73.54,-227.83 73.54,-227.83 265.08,407.67 227.2,683.04 101.87,865.3l214.84 0c283.69,-241.18 436.78,-522 454.68,-837.21zm-1319.24 5260.96l481.5 -3112.34c-95.36,51.69 -198.44,90.81 -306.91,115.95l-239.39 2996.39 64.8 0zm-207.27 0l64.82 0 -239.41 -2996.39c-108.47,-25.14 -211.53,-64.26 -306.91,-115.92l481.5 3112.31zm-537.83 -3327.41c37.18,27.61 76.2,52.78 116.8,75.47 53.13,29.69 109.07,54.95 167.24,75.44 21.86,7.73 44,14.91 66.5,21.24 92.6,25.94 190.17,39.9 290.91,39.9 100.78,0 198.35,-13.96 290.94,-39.9 22.49,-6.33 44.61,-13.53 66.5,-21.24 58.16,-20.49 114.1,-45.75 167.24,-75.44 40.61,-22.69 79.62,-47.86 116.8,-75.47 217.45,-161.33 372.23,-402.42 420.93,-679.61l-153.38 0c-64.4,313.56 -287.43,569.16 -581.46,679.61 -7.79,2.92 -15.68,5.67 -23.55,8.37 -94.64,32.63 -196.11,50.56 -301.84,50.56 -55.58,0 -109.92,-5.13 -162.83,-14.56 55.86,-9.93 109.94,-24.91 161.85,-44.37 63.37,-23.72 123.41,-54.24 179.33,-90.56 203.75,-132.48 351.97,-342.91 402.57,-589.05l-1645.49 0c48.71,277.19 203.51,518.28 420.94,679.61zm-587.41 -831.18c2.03,0.22 4.08,0.62 6.23,0.62l2445.28 0c2.17,0 4.2,-0.4 6.3,-0.62 28.66,-3.18 51.13,-27.27 51.13,-56.79 0,-31.69 -25.75,-57.43 -57.43,-57.43l-2445.28 0c-31.67,0 -57.43,25.74 -57.43,57.43 0,29.52 22.46,53.61 51.2,56.79z"/>
  </g>
  <path class="fil13" d="M7023.91 7219.84l51.3 373.94c21.69,-5.22 38.67,-10.48 51.18,-15.54 18.64,-7.37 40.63,-20.11 65.71,-37.54l6.29 33.69c-26.25,17.65 -47.06,29.46 -62.87,35.92 -16.53,6.67 -41.76,15.15 -75.25,25.2 -29.71,8.45 -54.01,16.7 -72.88,24.3 -33.99,13.58 -71.34,34.42 -112.26,62.28l-4.84 -39.55c42.14,-30.91 67.74,-54.91 77.3,-72 13.89,-26.92 17.27,-65.94 10.19,-116.56l-54.89 -393.26c-7.32,-49.93 -12.72,-79.14 -15.94,-87.16 -2.99,-7.55 -8.13,-12.3 -14.94,-14.01 -6.8,-1.7 -18.11,0.78 -33.69,7.7l-4.17 -34.13c42.96,-17.74 91.19,-46.48 145.16,-85.99 1.49,18.12 4.55,44.72 9.18,79.57l28.06 207.69c22.14,-4.04 40.3,-8.82 54.45,-14.34 53.11,-21.65 91.3,-58.71 114.1,-111.2 22.8,-52.72 23.97,-104.45 3.24,-155.67 -15.88,-39.65 -44.35,-66 -85.15,-79.3 -40.81,-13.28 -87.41,-9.22 -139.81,11.96 -66.79,26.94 -125.73,69.69 -176.34,127.82 -50.84,58.12 -82.63,117.58 -95.16,178.62 -12.53,60.8 -8.31,117.29 12.86,169.69 15.88,39.65 46.22,67.19 90.55,82.4 22.27,7.25 36.56,13.49 43.11,18.25 6.3,4.76 10.95,10.92 13.95,18.23 3.45,8.73 3.37,17.9 -0.48,27.28 -4.07,9.13 -10.72,15.66 -19.92,19.58 -23.13,9.2 -48.96,4.04 -77.72,-15.5 -37.17,-25.72 -66,-64.07 -86.72,-115.06 -26.47,-65.61 -32.93,-134.11 -19.61,-205.49 13.33,-71.15 49.21,-140.22 107.65,-206.98 58.44,-66.75 128.48,-116.47 209.92,-149.39 75.77,-30.62 143.82,-41.55 204.43,-32.79 60.37,8.76 101.95,40.88 124.52,96.81 21.18,52.4 18.55,110.24 -8.34,173.51 -26.66,63.26 -76.75,117.16 -150.52,161.9 35.47,31.36 58.8,52.49 69.76,63.88 18.18,19.44 47.52,52.63 88.03,99.79 94.76,110.88 175.74,183.09 242.94,217.08 49.42,24.42 94.06,28.81 133.72,12.7 40.83,-16.35 59.67,-45.59 56.04,-87.25 -2.6,-26.12 -1.98,-43.29 1.62,-51.25 5.03,-10.77 12.62,-18.48 23,-22.62 10.16,-4.15 20.26,-3.82 30.1,0.5 10.09,4.32 17.07,11.67 21.22,21.82 10.59,26.43 6.32,57.45 -13.04,93.03 -19.36,35.57 -51.82,62.57 -97.37,80.99 -41.31,16.57 -84.87,22.55 -130.7,17.91 -45.58,-4.87 -95.52,-22.94 -149.57,-53.99 -54.07,-31.28 -107.08,-73.6 -159.3,-126.74 -26.12,-26.57 -69.18,-77.28 -129.21,-152.13 -36.29,-45.94 -58.39,-73.18 -66.31,-81.72l-16.51 5.27c-3.78,1.38 -9.22,4.15 -16.07,7.85z"/>
  <path id="_1_4" class="fil13" d="M7694.11 6741.19c41.77,-16.81 83.15,-14.33 124.11,7.67 41.21,22.23 73.77,62.73 97.72,121.98 38.22,94.64 39.24,192.73 3.07,294.95 -35.93,102 -91.07,167.84 -165.18,197.77 -45.56,18.43 -88.36,18.51 -128.42,-0.18 -39.82,-18.46 -70.33,-53.53 -91.04,-104.98 -36.15,-89.46 -44.03,-182.43 -23.44,-278.91 26.21,-120.19 87.35,-199.62 183.18,-238.3zm-34.94 69.78c-36.36,14.74 -60.93,54.75 -73.73,120.25 -13.04,65.27 -1.02,143.7 35.81,234.8 22.33,55.46 50.45,94.75 84.11,118.33 24.78,17.15 49.91,20.66 75.65,10.3 35.63,-14.27 59.22,-49.57 70.77,-105.92 14.27,-72.55 4.15,-151.43 -30.15,-236.64 -25.79,-63.96 -52.94,-106.06 -81.22,-126.3 -28.29,-20.24 -55.29,-25.18 -81.24,-14.82z"/>
  <path id="_2_5" class="fil13" d="M7975.01 6793.42l-29.48 -17.91c25.22,-59.28 52.68,-106.54 82.39,-141.8 29.94,-35.26 55.53,-57.38 77.25,-66.12 8.97,-3.69 16.5,-4.56 22.59,-2.39 5.87,1.93 10.3,6.44 13.06,13.28 3.45,8.5 6.82,26.17 9.65,53.24 4.82,39.8 9.25,70.88 14,93.26 60.07,-145.29 117.25,-228.76 171.53,-250.62 13.92,-5.77 26.16,-6.13 36.46,-1.34 10.31,4.56 18.93,15.22 25.6,31.98 7.14,17.93 13.2,50.91 17.71,99.17 28.13,-70.32 55.88,-123.46 83,-158.97 27.36,-35.52 51.07,-57.18 70.89,-65.48 17.95,-7.13 33.94,-7.69 47.77,-1.46 14.04,6.47 25.22,20.21 33.97,41.46 5.06,12.74 8.92,28.77 11.82,47.84 2.88,19.32 8.71,78.87 17.96,178.67 10.91,124.04 20.62,196.57 29.14,217.81 5.98,14.64 14.88,19.42 26.69,14.58 8.26,-3.22 15.12,-9.04 20.6,-17.23 17.89,-28.06 34.64,-60.6 50.49,-97.63l30.44 14.37c-5.97,10.78 -16.98,32.55 -32.55,65.11 -21.55,44.49 -37.32,73.05 -47.08,85.9 -18.8,24.54 -36.58,40.14 -53.8,47.04 -12.75,5.07 -26.61,3.53 -41.35,-5.06 -14.98,-8.6 -26.84,-23.99 -35.82,-46.18 -8.28,-20.53 -14.89,-45.75 -20.04,-75.43 -5.15,-29.92 -12.54,-98.66 -22.42,-206.23 -7.3,-80.73 -14.17,-128.78 -20.39,-144.12 -5.75,-14.63 -15.11,-19.18 -27.86,-14.12 -10.62,4.38 -22.72,15.57 -36.28,33.32 -27.84,36.91 -47.46,76.5 -59.36,118.49 -8.01,28.86 -8.6,70.01 -2.02,123.46 14.04,116.55 27.33,210.97 40.1,283.28l-90.63 36.61 -62.59 -428.83c-4.66,-30.85 -7.8,-48.52 -9.41,-52.77 -2.77,-6.84 -6.48,-11.34 -11.4,-13.5 -4.92,-2.39 -10.57,-2.21 -16.95,0.55 -11.56,4.61 -25.81,20.72 -42.75,48.32 -30.05,47.48 -48.52,88.95 -55.65,124.87 -7.14,35.69 -5.46,85.33 4.81,148.45l37.93 235.99 -91.35 36.84 -50.95 -333.95c-14.19,-96.79 -22.92,-149.08 -26.14,-156.63 -3.92,-9.92 -9.76,-13.26 -17.32,-10.04 -16.75,6.68 -40.84,44.58 -72.26,113.92z"/>
  <path id="_3_6" class="fil13" d="M9138.22 6131.4l38.57 -25.77 17.47 181.03c6.66,72.02 18.65,153.26 35.5,244.2 8.98,49.23 16.22,80.57 21.52,93.79 5.3,13.22 13.25,17.76 23.88,13.39 6.84,-2.77 16.09,-11.63 27.27,-26.58 19.99,-26.4 37.42,-56.36 52.29,-89.39l30.43 16.49c-30.66,63.94 -50.76,103.28 -60.76,118.24 -19.56,29.71 -39.99,54.22 -61.1,73.09 -13.74,12.35 -28.4,21.86 -43.74,28.08 -10.86,4.37 -20.28,5.23 -28.02,2.34 -7.49,-2.89 -13.32,-9.3 -17.24,-18.96 -2.53,-6.38 -4.32,-15.8 -5.4,-28.28l-9.72 -97.22c-18.86,58.63 -47.33,113.9 -85.19,166.01 -23.09,32.02 -47.74,53.45 -73.7,64.04 -24.78,9.9 -47.12,8.76 -67.47,-3.41 -27.38,-16.24 -48.78,-43.23 -63.97,-81 -18.42,-45.32 -26.65,-100.42 -24.9,-165.56 1.75,-64.9 13.59,-128.3 35.75,-189.73 22.41,-61.65 51.55,-111.96 87.65,-151.4 28.01,-30.09 68.92,-56.08 122.98,-77.95 13.69,-5.52 27.84,-10.34 42.69,-14.21l5.21 -31.24zm-39.7 129.96c-24.97,4.49 -45.24,9.95 -61.06,16.39 -38.24,15.43 -67.38,39.63 -87.41,72.16 -20.05,32.51 -31.29,81.33 -33.73,145.76 -2.22,64.66 7.61,124.24 29.48,178.76 11.74,29.03 25.22,47.97 40.19,56.81 14.74,8.82 30.26,9.91 46.07,3.69 29.26,-11.98 54.44,-40.45 75.3,-85.9 20.86,-45.21 26.99,-100.9 18.63,-167.06l-27.47 -220.61z"/>
  <path id="_4_7" class="fil13" d="M9334.12 6233.39l-30.93 -13.68c33.57,-73.79 63.19,-125.98 88.62,-156.1 25.43,-30.12 49.83,-49.9 72.72,-59.1 8.97,-3.68 16.74,-4.56 23.31,-2.86 6.8,1.95 11.01,5.27 13.08,10.46 1.61,3.79 3.44,11.09 5.22,21.69l23 140.14c24.1,-65.88 60.43,-132.82 109.24,-201.08 26.18,-35.75 50.37,-58.12 73.03,-67.33 16.52,-6.68 31.8,-6.54 45.39,0.16 13.81,6.95 24.52,20.44 32.57,40.27 5.53,13.22 9.63,29.01 12.53,47.15 4.2,30.37 10.67,97.93 19.17,202.43 8.08,97.91 17.64,161.26 29.15,189.83 3.45,8.49 7.4,14.4 11.61,17.49 4.2,3.34 8.66,3.84 13.38,2.01 12.51,-4.84 27.03,-24.7 43.8,-59.13 11.73,-24.83 24.17,-48 37.06,-70l25.26 16.45c-21.69,59.31 -48.24,110.6 -79.67,154.06 -19.99,27.82 -38.72,45.29 -56.19,52.43 -16.05,6.45 -31.1,5.84 -44.67,-2.27 -13.81,-8.11 -25.89,-25.39 -36.48,-51.83 -15.43,-37.99 -29.8,-141.84 -43.61,-311.77 -7.24,-59.57 -12.58,-93.72 -16.27,-102.69 -5.3,-13.22 -15.85,-16.6 -31.43,-10.16 -17.22,6.91 -35.49,24.63 -55.03,53.39 -29.3,42.55 -50.39,87.28 -62.55,133.75 -7.79,30.03 -7.21,72.38 1.48,127.25l38.32 244 -95.12 38.44c-8.08,-71.1 -17.14,-138.68 -27.4,-202.27l-41.42 -265.9c-1.79,-10.59 -3.61,-17.9 -5.22,-22.15 -4.6,-11.56 -11.15,-15.62 -19.88,-12.16 -6.62,2.76 -14.68,11.15 -23.98,25.19 -19.3,28.29 -35.32,59.43 -48.09,93.89z"/>
  <path id="_5_8" class="fil13" d="M10134.32 5729.2c38,-15.19 70.26,-19.61 96.78,-13.27 26.51,6.35 43.81,18.97 51.64,38.09 4.61,11.55 4.27,23.32 -1.01,35.5 -5.28,11.95 -14.05,20.57 -26.57,25.41 -8.02,3.21 -15.79,4.32 -23.31,3.08 -7.28,-1.24 -19.46,-6.75 -36.54,-16.78 -32.05,-19.33 -58.11,-24.73 -78.64,-16.45 -17.47,6.91 -30.29,19.97 -38.21,38.71 -7.93,18.99 -7.86,38.27 0.2,58.34 6.9,17.46 18.05,32.61 33.23,45.68 15.18,13.06 47.47,30.75 96.67,53.52 67.69,31.17 110.41,69.17 128.82,114.49 18.2,45.08 14.96,92.33 -9.69,141.74 -24.66,49.41 -67.08,86.2 -127.74,110.61 -50.74,20.48 -92.42,25.29 -125.49,14.65 -33.07,-10.63 -55.7,-31.06 -67.9,-61.27 -5.99,-14.87 -6.34,-29.22 -1.05,-42.82 5.53,-13.59 15.03,-23.15 28.72,-28.67 11.79,-4.84 23.56,-4.97 35.28,-0.4 11.72,4.34 19.89,11.94 24.03,22.55 1.84,4.25 3.67,9.91 5.5,17.22 1.82,5.66 3.43,10.38 5.04,14.16 5.76,14.16 16.5,23.65 32.44,28.5 15.25,5.31 33.14,3.82 53.19,-4.24 22.9,-9.44 41.59,-21.51 55.83,-36.43 14.24,-14.93 23.09,-32.26 26.56,-52.22 3.23,-19.96 1.74,-37.85 -4.71,-53.67 -6.21,-15.34 -16.91,-28.84 -32.33,-40.5 -15.2,-11.42 -46.09,-28.62 -92.23,-50.9 -64.4,-31.61 -105.69,-70.07 -124.11,-115.62 -16.81,-41.77 -14.78,-85.27 6.31,-130 20.85,-44.98 57.36,-78.06 109.29,-99.01z"/>
  <path id="_6_9" class="fil13" d="M8620.81 7752.95l20.3 -8.29 51.25 380.76 55.97 349.76c3.51,29.89 7.1,49.44 11.02,58.65 2.99,7.31 8.84,11.6 17.99,13.33 8.93,1.49 26.83,-1.65 53.47,-9.42 19.81,-5.94 39.61,-10.94 59.17,-15l0.14 37.17c-95.49,27.14 -161.28,47.98 -197.63,62.71 -52.64,21.17 -107.92,49.39 -165.85,84.16l-2.03 -36.47c19.65,-14.88 42.6,-31.14 68.87,-48.56 25.78,-16.94 41.44,-33.26 46.99,-48.74 8.17,-20.63 8.3,-62.26 0.86,-125.11l-37.67 -291.97c-18.1,-109.52 -29.79,-171.02 -35.08,-184.23 -5.99,-14.87 -15.12,-19.89 -27.63,-14.83 -9.21,3.93 -45.26,38.18 -107.68,103.02l-25.64 -26.8c89.29,-97.53 142.99,-159.86 160.63,-187.23 17.88,-27.12 35.32,-58.25 52.55,-92.91z"/>
  <path id="_7_10" class="fil13" d="M9001.04 7873.75c16.52,-6.68 32.98,-6.07 49.15,1.6 16.39,7.9 28.26,21.41 36.1,40.53 11.27,28.09 13.65,52.57 6.64,73.44 -7,20.87 -20.3,35.34 -40.36,43.4 -16.52,6.67 -32.98,6.53 -48.91,-0.67 -16.16,-7.2 -27.82,-19.76 -35.18,-38.17 -10.59,-26.44 -12.24,-52.79 -4.48,-79.07 5.57,-19.7 17.68,-33.24 37.04,-41.06zm67.5 430.52c16.77,-6.68 33.22,-6.07 49.62,1.84 16.16,8.13 28.26,21.65 36.09,40.77 11.05,27.85 13.43,52.1 6.43,73.2 -6.77,21.11 -20.08,35.81 -40.13,43.87 -16.76,6.67 -32.99,6.53 -48.92,-0.67 -16.16,-7.19 -27.82,-20 -35.19,-38.17 -10.81,-26.9 -12.46,-53.5 -4.7,-80.01 5.34,-19.47 17.68,-33 36.8,-40.83z"/>
  <path id="_8_11" class="fil13" d="M9633.12 7322.75l35.18 -14.04 -7.11 112.83c-1.71,7.98 -6.48,15.69 -14.08,23.16 -7.83,7.22 -26.96,17.17 -57.64,29.6 -91.11,36.84 -152.02,64.05 -182.53,81.9 0.3,21.17 0.84,38.82 2.13,52.7 1.06,13.89 2.85,24.02 5.62,30.39 6.44,16.05 24.48,24.45 53.87,24.94 52.69,0.45 91.92,5.74 117.7,15.6 25.78,9.87 49.64,26.07 71.55,48.37 21.91,22.3 40.01,51.15 54.52,86.56 36.6,90.87 33.42,186.1 -9.56,285.91 -42.73,99.82 -108.23,167.46 -195.8,202.91 -41.07,16.57 -74.99,22.63 -102,18.16 -19.26,-3.69 -32.34,-13.92 -39.24,-30.91 -4.61,-11.1 -4.75,-21.69 -0.9,-31.77 3.85,-9.84 10.5,-16.84 19.94,-20.52 5.9,-2.53 10.85,-3.67 14.85,-3.87 3.76,0.04 14.32,1.54 31.7,4.98 22.31,4.9 39.45,6.93 51.69,5.86 12.24,-0.83 26.39,-4.7 41.97,-10.92 58.77,-23.71 101.5,-69.9 128.2,-138.11 26.7,-68.21 27.97,-132.64 3.33,-193.07 -16.34,-40.36 -42.41,-72.1 -78.66,-95.24 -36.01,-23.13 -78.95,-34.78 -129.06,-34.76 -21.16,-0.41 -35.95,-3.13 -44.85,-7.91 -8.89,-4.79 -15.64,-12.84 -20.01,-23.93 -5.07,-12.27 -9.51,-43.36 -13.07,-92.78l-11.37 -152.97c13.07,-14.71 32.95,-28.65 59.64,-42.06l135.74 -57.85c30.69,-13.84 50.32,-25.19 58.86,-34.52 8.79,-9.11 15.25,-21.98 19.39,-38.64z"/>
  <g id="Dove">
   <path class="fil8" d="M8424.19 3212.08c1071.61,26.03 1140.99,-0.92 1528.59,-405.98 41.43,152.42 -39.58,140.65 -32.19,214.94 36.7,146.34 -299.37,571.37 -598.11,688.69 -12.77,38.04 -74.37,68.98 -149.92,61.88 -111.05,77.24 -203.33,49.58 -324.04,38.65 -40.28,114.66 -175.38,210.37 -252.23,222.11l-232.66 0c-115.64,149.01 -106.51,132.93 -290.92,128.22 -12.47,107.02 -174.59,71.01 -430.5,44.15 -6.25,12.67 -12.76,25.26 -19.57,37.79l-122.77 160.12 353.07 479.18c-439.72,493.3 -1572.59,460.16 -1849.57,-238.44 263.01,6.17 628.11,-159.14 766.04,-338.94 17.56,-27.75 34.84,-54.56 51.83,-80.58 -15.32,-9.23 -29.52,-22.11 -43.32,-39.58 -184.41,4.72 -208.45,-2.91 -324.09,-151.92l-175.79 0c-76.85,-11.74 -205.86,-103.35 -267.61,-201.53 -120.72,10.93 -143.15,19.02 -254.2,-58.22 -75.55,7.1 -180.94,-18.93 -210.3,-80.67 -298.74,-117.32 -654.96,-541.16 -618.26,-687.49 -2.07,-90.89 -71.25,-109.94 -29.82,-262.36 835.11,1028.78 2099.42,-56.26 2262.67,809.79l64.93 39.21c69.08,-133.08 130.63,-282.69 185.38,-474.28 62.81,-185.83 215.9,-188.41 289.32,-20.96l96.87 113.2c12.25,9.46 -52.88,15.69 -122.12,16.25 -32.42,0.26 -11.8,43.73 -11.8,70.99 16.18,49.63 36.65,98.27 47.82,145.99 163.09,-309.32 623.27,-84.03 713.27,-230.21z"/>
   <polygon class="fil14" points="7708.25,3117.6 7665.6,3137.24 7605.27,3199.46 7645.21,3213.35 7764.4,3208.3 "/>
   <path class="fil9" d="M8424.19 3212.08c1071.61,26.03 1140.99,-0.92 1528.59,-405.98 41.43,152.42 -39.58,140.65 -32.19,214.94 36.7,146.34 -299.37,571.37 -598.11,688.69 -12.77,38.04 -74.37,68.98 -149.92,61.88 -111.05,77.24 -203.33,49.58 -324.04,38.65 -40.28,114.66 -175.38,210.37 -252.23,222.11l-232.66 0c-115.64,149.01 -106.51,132.93 -290.92,128.22 -12.47,107.02 -174.59,71.01 -430.5,44.15 -6.25,12.67 -12.76,25.26 -19.57,37.79l-122.77 160.12 353.07 479.18c-439.72,493.3 -1572.59,460.16 -1849.57,-238.44 263.01,6.17 628.11,-159.14 766.04,-338.94 17.56,-27.75 34.84,-54.56 51.83,-80.58 -15.32,-9.23 -29.52,-22.11 -43.32,-39.58 -184.41,4.72 -208.45,-2.91 -324.09,-151.92l-175.79 0c-76.85,-11.74 -205.86,-103.35 -267.61,-201.53 -120.72,10.93 -143.15,19.02 -254.2,-58.22 -75.55,7.1 -180.94,-18.93 -210.3,-80.67 -298.74,-117.32 -654.96,-541.16 -618.26,-687.49 -2.07,-90.89 -71.25,-109.94 -29.82,-262.36 835.11,1028.78 2099.42,-56.26 2262.67,809.79l64.93 39.21c69.08,-133.08 130.63,-282.69 185.38,-474.28 47.15,-213.11 198.91,-197.12 312.33,-28.13l92.94 138.02 -120.11 6.05c-32.43,0.26 -26.08,36.28 -26.08,63.54 16.18,49.63 29.84,98.27 41.01,145.99 163.09,-309.32 623.27,-84.03 713.27,-230.21zm-249.99 85.09c-157.95,-3.43 -348.67,-7.58 -436.59,159.18l-37.68 71.5 -18.44 -78.72c-5.54,-23.7 -11.64,-47.37 -18.26,-70.97 -6.72,-23.92 -14.07,-48.12 -22.03,-72.53l-1.53 -4.7 0 -5.07c0,-33.38 18.48,-65.05 -34.39,-96.4 68.83,9.71 81.08,-2.26 149.34,2.62l-48.06 -75.5 -32.05 18.21c62.01,-48.76 -157.72,-292.55 -234.5,-20.29 -14.54,72.67 -60.12,191.09 -88.39,262.5 -31.1,78.61 -64.22,150.23 -99.36,217.93l-14.87 28.68 -104 -62.8 -2.52 -13.37c-72.07,-382.34 -383.01,-357.03 -775.19,-325.09 -447.8,36.47 -996.1,81.09 -1439.8,-422.27 -3.8,46.68 7.72,74.37 18.92,101.29 11.17,26.81 22.1,53.07 22.99,92.49l0.11 4.27 -0.93 3.65c-16.46,65.69 66.44,204.91 189.19,341.41 117.65,130.83 271.16,255.83 410.76,310.65l11.14 4.38 5.16 10.86c9.75,20.53 33.2,36.4 61.76,47.36 37.39,14.33 81.93,19.61 118.53,16.18l11.03 -1.03 8.94 6.22c94.99,66.06 119.06,63.81 212.23,55.06l40.4 -3.73 9.83 15.63c27.94,44.42 71.16,87.78 116.62,122.01 46.08,34.7 93.35,59.37 127.8,65.35l188.17 0 9.16 11.81c54.74,70.54 87.26,107.37 124.92,124.63 37.75,17.3 86.97,17.84 174.6,15.6l14.99 -0.38 9.35 11.83c5.67,7.17 11.58,13.58 17.79,19.22 5.65,5.17 11.49,9.54 17.5,13.16 137.14,-180.93 249.06,-387.11 373.58,-580.67l26.97 16.28c-149.68,281.59 -335.04,549.69 -444,689.15 -72.64,94.71 -204.24,184.97 -351.23,250.02 -128.01,56.63 -268.76,94.63 -393.3,100.2 46.06,99.18 110.95,183.45 189.19,253.2 157.15,140.07 368.43,221.75 590.18,248.85 222.74,27.22 455.49,-0.57 654.41,-79.43 128.58,-50.98 242.99,-123.34 331.22,-215.94l-351.74 -477.36 135.26 -176.42c50.92,-105.9 64.48,-389.95 90.07,-563.34 9.23,183.06 -5.68,382.78 -42.16,512.19 39.11,4.11 70.57,7.75 100.25,11.18 179.17,20.73 289.91,33.53 297.16,-28.75l3.19 -27.39 76.14 2.22c120.41,4.21 122.79,4.29 217.74,-118.05l9.17 -11.81 245.03 0c36.31,-6.32 87.91,-34.36 134.31,-75.21 40.08,-35.3 75.24,-79.52 91.77,-126.58l7.81 -22.2 23.37 2.11c22.11,2.01 39.32,4.02 55.88,5.95 88.97,10.38 164.03,19.13 248.2,-39.4l8.96 -6.22 11.01 1.02c31.22,2.92 59.39,-1.55 81.23,-10.57 19.95,-8.24 33.55,-19.44 37.39,-30.87l4.5 -13.39 13.09 -5.15c137.78,-54.11 284.62,-176.9 396.83,-306.09 120.04,-138.24 199.74,-280.26 182.97,-347.16l-0.44 -1.76 -0.26 -2.61c-3.89,-39.21 9.2,-59.32 23.59,-81.39 10.57,-16.2 22.24,-34.12 19.57,-73.34 -173.91,179.55 -288.44,278.51 -480.96,330.66 -201.2,54.51 -484.85,55.35 -1013.61,42.66 -50.22,59.21 -150,57.06 -264.98,54.58z"/>
   <circle class="fil9" cx="7553.39" cy="3093.2" r="30.24"/>
   <path class="fil15 str1" d="M8272.81 3087.89l56.56 7.9c23.51,31.22 54.65,43.2 122.31,32.12 32.14,-7.38 78.07,-22.87 115.99,-62.69 -86.92,20.91 -142.54,-36.18 -238.86,26.34l-55.44 -4.15c39.65,-33.18 79.24,-69.11 118.47,-106.04l46.81 10.89c48.7,67.07 242.78,-9.14 249.73,-36.92 -121.39,6.52 -178.75,-27.3 -245.94,33.19l-50.49 -7.25c38.04,-35.84 75.74,-72.61 112.87,-108.75l43.92 10.2c24.66,18.05 58.77,22.02 121.05,0.51 72.38,-34.16 99.29,-78.4 114.65,-139.88 -140.1,46.25 -164.86,74.08 -232.04,134.57l-47.15 -5.82c34.73,-33.82 68.95,-67.11 102.44,-98.56 -14.77,12.16 -37.67,29.72 -65.8,50.69l4.46 -53.82c19.29,-15.83 82.28,-28.53 101.38,-55.53 51.37,-103.13 15.74,-97.34 69.96,-182.29 -128.9,110.38 -165.51,110.78 -175.8,291.64 -45.92,34.22 -105.76,77.61 -167.06,121.79l1.67 -46.68c19.28,-15.82 40.68,-42.45 59.77,-69.45 31.73,-44.85 32.91,-130.87 37.71,-196.24 -66.36,108.65 -129.22,145.77 -99.36,265.94l-0.24 46.76c-60.36,43.51 -122.07,87.76 -173.2,124.79l-8.02 -47.83c19.15,-23.83 24.43,-38.51 43.52,-65.52 31.73,-44.84 14.79,-125.91 19.58,-191.28 -67.16,109.54 -110.35,188.56 -78.56,242.43l21.76 63.44c-35.64,25.81 -66.04,48.03 -87.05,63.92 -34.1,21.66 -61.93,36.4 -107.99,51.17l-2.23 -30.86c19.14,-23.83 28.26,-32.66 43.82,-60.17 23.67,-49.56 27.12,-154.39 31.93,-219.75 -67.17,109.54 -122.4,231.84 -85.41,275.1l7.92 36.95c-271.1,85.37 -844.23,113.25 -1082.4,409.06 -84.83,112.45 57.96,167.58 107.94,66.99 221.27,-286.7 607.93,-340.59 938.73,-434.85 95.14,-34.93 206.16,-68.5 308.09,-142.06z"/>
   <polygon class="fil9" points="7668.17,3134.65 7610.06,3194.88 7565.46,3192.14 "/>
  </g>
 </g>
</svg>
